Palanquin Bold.ufo
<glyph name="exclam" format="1">
  <advance width="252"/>
  <unicode hex="0021"/>
  <outline>
    <contour>
      <point x="74" y="244" type="line"/>
      <point x="178" y="196" type="line"/>
      <point x="193" y="702" type="line"/>
      <point x="57" y="702" type="line"/>
    </contour>
    <contour>
      <point x="199" y="115"/>
      <point x="167" y="146"/>
      <point x="125" y="146" type="curve" smooth="yes"/>
      <point x="85" y="146"/>
      <point x="52" y="115"/>
      <point x="52" y="73" type="curve" smooth="yes"/>
      <point x="52" y="31"/>
      <point x="85" y="0"/>
      <point x="125" y="0" type="curve" smooth="yes"/>
      <point x="167" y="0"/>
      <point x="199" y="31"/>
      <point x="199" y="73" type="curve" smooth="yes"/>
    </contour>
  </outline>
</glyph>
<glyph name="numbersign" format="1">
  <advance width="566"/>
  <unicode hex="0023"/>
  <outline>
    <contour>
      <point x="515" y="517" type="line"/>
      <point x="403" y="520" type="line"/>
      <point x="378" y="408" type="line"/>
      <point x="258" y="408" type="line"/>
      <point x="284" y="517" type="line"/>
      <point x="173" y="520" type="line"/>
      <point x="147" y="408" type="line"/>
      <point x="21" y="408" type="line"/>
      <point x="32" y="311" type="line"/>
      <point x="124" y="311" type="line"/>
      <point x="99" y="199" type="line"/>
      <point x="21" y="199" type="line"/>
      <point x="32" y="103" type="line"/>
      <point x="77" y="103" type="line"/>
      <point x="52" y="-10" type="line"/>
      <point x="162" y="-15" type="line"/>
      <point x="189" y="103" type="line"/>
      <point x="309" y="103" type="line"/>
      <point x="284" y="-10" type="line"/>
      <point x="395" y="-15" type="line"/>
      <point x="421" y="103" type="line"/>
      <point x="545" y="103" type="line"/>
      <point x="535" y="199" type="line"/>
      <point x="443" y="199" type="line"/>
      <point x="469" y="311" type="line"/>
      <point x="545" y="311" type="line"/>
      <point x="535" y="408" type="line"/>
      <point x="491" y="408" type="line"/>
    </contour>
    <contour>
      <point x="237" y="311" type="line"/>
      <point x="356" y="311" type="line"/>
      <point x="330" y="199" type="line"/>
      <point x="212" y="199" type="line"/>
    </contour>
  </outline>
</glyph>
<glyph name="ampersand" format="1">
  <advance width="685"/>
  <unicode hex="0026"/>
  <outline>
    <contour>
      <point x="379" y="583"/>
      <point x="421" y="561"/>
      <point x="463" y="541" type="curve"/>
      <point x="507" y="645" type="line"/>
      <point x="453" y="671"/>
      <point x="387" y="696"/>
      <point x="321" y="696" type="curve" smooth="yes"/>
      <point x="193" y="696"/>
      <point x="110" y="608"/>
      <point x="110" y="505" type="curve" smooth="yes"/>
      <point x="110" y="469"/>
      <point x="120" y="438"/>
      <point x="138" y="412" type="curve"/>
      <point x="82" y="363"/>
      <point x="42" y="293"/>
      <point x="42" y="220" type="curve"/>
      <point x="42" y="67"/>
      <point x="161" y="-9"/>
      <point x="308" y="-11" type="curve"/>
      <point x="394" y="-11"/>
      <point x="461" y="13"/>
      <point x="511" y="55" type="curve"/>
      <point x="587" y="-15" type="line"/>
      <point x="665" y="82" type="line"/>
      <point x="586" y="151" type="line"/>
      <point x="612" y="206"/>
      <point x="628" y="269"/>
      <point x="632" y="339" type="curve"/>
      <point x="515" y="386" type="line"/>
      <point x="512" y="330"/>
      <point x="502" y="281"/>
      <point x="486" y="241" type="curve"/>
      <point x="326" y="386" type="line" smooth="yes"/>
      <point x="270" y="436"/>
      <point x="244" y="471"/>
      <point x="244" y="510" type="curve" smooth="yes"/>
      <point x="244" y="550"/>
      <point x="272" y="583"/>
      <point x="322" y="583" type="curve" smooth="yes"/>
    </contour>
    <contour>
      <point x="241" y="106"/>
      <point x="179" y="139"/>
      <point x="179" y="221" type="curve"/>
      <point x="180" y="258"/>
      <point x="194" y="292"/>
      <point x="220" y="321" type="curve"/>
      <point x="241" y="302" type="line"/>
      <point x="418" y="140" type="line"/>
      <point x="388" y="118"/>
      <point x="351" y="106"/>
      <point x="308" y="106" type="curve" smooth="yes"/>
    </contour>
  </outline>
</glyph>
<glyph name="zero" format="1">
  <advance width="622"/>
  <unicode hex="0030"/>
  <outline>
    <contour>
      <point x="162" y="579"/>
      <point x="52" y="469"/>
      <point x="52" y="285" type="curve" smooth="yes"/>
      <point x="52" y="96"/>
      <point x="162" y="-13"/>
      <point x="310" y="-13" type="curve" smooth="yes"/>
      <point x="456" y="-13"/>
      <point x="568" y="102"/>
      <point x="568" y="287" type="curve" smooth="yes"/>
      <point x="568" y="475"/>
      <point x="461" y="579"/>
      <point x="311" y="579" type="curve" smooth="yes"/>
    </contour>
    <contour>
      <point x="234" y="98"/>
      <point x="171" y="164"/>
      <point x="171" y="288" type="curve" smooth="yes"/>
      <point x="171" y="406"/>
      <point x="235" y="469"/>
      <point x="310" y="469" type="curve" smooth="yes"/>
      <point x="388" y="469"/>
      <point x="451" y="406"/>
      <point x="451" y="283" type="curve" smooth="yes"/>
      <point x="451" y="164"/>
      <point x="385" y="98"/>
      <point x="311" y="98" type="curve" smooth="yes"/>
    </contour>
  </outline>
</glyph>
<glyph name="eight" format="1">
  <advance width="568"/>
  <unicode hex="0038"/>
  <outline>
    <contour>
      <point x="430" y="-13"/>
      <point x="516" y="76"/>
      <point x="516" y="185" type="curve" smooth="yes"/>
      <point x="516" y="253"/>
      <point x="460" y="321"/>
      <point x="404" y="340" type="curve"/>
      <point x="455" y="363"/>
      <point x="491" y="412"/>
      <point x="491" y="468" type="curve" smooth="yes"/>
      <point x="491" y="563"/>
      <point x="412" y="643"/>
      <point x="285" y="643" type="curve" smooth="yes"/>
      <point x="156" y="643"/>
      <point x="78" y="563"/>
      <point x="78" y="468" type="curve" smooth="yes"/>
      <point x="78" y="412"/>
      <point x="113" y="363"/>
      <point x="164" y="340" type="curve"/>
      <point x="108" y="321"/>
      <point x="52" y="253"/>
      <point x="52" y="185" type="curve" smooth="yes"/>
      <point x="52" y="76"/>
      <point x="138" y="-13"/>
      <point x="285" y="-13" type="curve" smooth="yes"/>
    </contour>
    <contour>
      <point x="284" y="92" type="line"/>
      <point x="225" y="92"/>
      <point x="169" y="125"/>
      <point x="169" y="183" type="curve" smooth="yes"/>
      <point x="169" y="231"/>
      <point x="207" y="276"/>
      <point x="285" y="288" type="curve"/>
      <point x="360" y="276"/>
      <point x="400" y="231"/>
      <point x="400" y="183" type="curve" smooth="yes"/>
      <point x="400" y="125"/>
      <point x="342" y="92"/>
      <point x="285" y="92" type="curve"/>
    </contour>
    <contour>
      <point x="225" y="395"/>
      <point x="193" y="423"/>
      <point x="194" y="468" type="curve" smooth="yes"/>
      <point x="194" y="505"/>
      <point x="234" y="537"/>
      <point x="283" y="537" type="curve" smooth="yes"/>
      <point x="335" y="537"/>
      <point x="374" y="505"/>
      <point x="374" y="468" type="curve" smooth="yes"/>
      <point x="374" y="423"/>
      <point x="344" y="395"/>
      <point x="285" y="385" type="curve"/>
    </contour>
  </outline>
</glyph>
<glyph name="semicolon" format="1">
  <advance width="188"/>
  <unicode hex="003B"/>
  <outline>
    <contour>
      <point x="172" y="441"/>
      <point x="140" y="474"/>
      <point x="99" y="474" type="curve" smooth="yes"/>
      <point x="57" y="474"/>
      <point x="24" y="441"/>
      <point x="24" y="401" type="curve" smooth="yes"/>
      <point x="24" y="360"/>
      <point x="57" y="327"/>
      <point x="99" y="327" type="curve" smooth="yes"/>
      <point x="140" y="327"/>
      <point x="172" y="360"/>
      <point x="172" y="401" type="curve" smooth="yes"/>
    </contour>
    <contour>
      <point x="171" y="109"/>
      <point x="137" y="146"/>
      <point x="95" y="146" type="curve" smooth="yes"/>
      <point x="55" y="146"/>
      <point x="23" y="108"/>
      <point x="23" y="72" type="curve" smooth="yes"/>
      <point x="23" y="36"/>
      <point x="55" y="0"/>
      <point x="78" y="0" type="curve"/>
      <point x="69" y="-43"/>
      <point x="45" y="-63"/>
      <point x="10" y="-92" type="curve"/>
      <point x="39" y="-154" type="line"/>
      <point x="116" y="-111"/>
      <point x="171" y="-18"/>
      <point x="171" y="56" type="curve" smooth="yes"/>
    </contour>
  </outline>
</glyph>
<glyph name="less" format="1">
  <advance width="344"/>
  <unicode hex="003C"/>
  <outline>
    <contour>
      <point x="291" y="19" type="line"/>
      <point x="314" y="127" type="line"/>
      <point x="146" y="245" type="line"/>
      <point x="314" y="363" type="line"/>
      <point x="291" y="470" type="line"/>
      <point x="16" y="274" type="line"/>
      <point x="16" y="216" type="line"/>
    </contour>
  </outline>
</glyph>
<glyph name="equal" format="1">
  <advance width="498"/>
  <unicode hex="003D"/>
  <outline>
    <contour>
      <point x="477" y="311" type="line"/>
      <point x="468" y="408" type="line"/>
      <point x="21" y="408" type="line"/>
      <point x="32" y="311" type="line"/>
    </contour>
    <contour>
      <point x="477" y="103" type="line"/>
      <point x="468" y="199" type="line"/>
      <point x="21" y="199" type="line"/>
      <point x="32" y="103" type="line"/>
    </contour>
  </outline>
</glyph>
<glyph name="at" format="1">
  <advance width="809"/>
  <unicode hex="0040"/>
  <outline>
    <contour>
      <point x="584" y="389" type="line"/>
      <point x="548" y="434" type="line"/>
      <point x="468" y="434" type="line"/>
      <point x="347" y="434"/>
      <point x="236" y="352"/>
      <point x="236" y="223" type="curve" smooth="yes"/>
      <point x="236" y="127"/>
      <point x="292" y="60"/>
      <point x="414" y="60" type="curve" smooth="yes"/>
      <point x="443" y="60"/>
      <point x="475" y="71"/>
      <point x="498" y="84" type="curve"/>
      <point x="520" y="68"/>
      <point x="548" y="59"/>
      <point x="577" y="59" type="curve" smooth="yes"/>
      <point x="686" y="59"/>
      <point x="767" y="142"/>
      <point x="767" y="307" type="curve" smooth="yes"/>
      <point x="767" y="479"/>
      <point x="631" y="603"/>
      <point x="447" y="603" type="curve" smooth="yes"/>
      <point x="206" y="603"/>
      <point x="52" y="430"/>
      <point x="52" y="225" type="curve" smooth="yes"/>
      <point x="52" y="29"/>
      <point x="218" y="-97"/>
      <point x="384" y="-97" type="curve" smooth="yes"/>
      <point x="451" y="-97"/>
      <point x="521" y="-93"/>
      <point x="593" y="-55" type="curve"/>
      <point x="561" y="44" type="line"/>
      <point x="505" y="15"/>
      <point x="441" y="8"/>
      <point x="394" y="8" type="curve" smooth="yes"/>
      <point x="274" y="8"/>
      <point x="167" y="90"/>
      <point x="167" y="225" type="curve" smooth="yes"/>
      <point x="167" y="394"/>
      <point x="304" y="499"/>
      <point x="446" y="499" type="curve" smooth="yes"/>
      <point x="571" y="499"/>
      <point x="659" y="418"/>
      <point x="659" y="302" type="curve" smooth="yes"/>
      <point x="659" y="214"/>
      <point x="621" y="162"/>
      <point x="583" y="162" type="curve" smooth="yes"/>
      <point x="573" y="162"/>
      <point x="561" y="174"/>
      <point x="561" y="194" type="curve"/>
    </contour>
    <contour>
      <point x="367" y="162"/>
      <point x="350" y="193"/>
      <point x="350" y="223" type="curve" smooth="yes"/>
      <point x="350" y="292"/>
      <point x="403" y="337"/>
      <point x="463" y="337" type="curve"/>
      <point x="471" y="337" type="line"/>
      <point x="454" y="208" type="line" smooth="yes"/>
      <point x="451" y="183"/>
      <point x="435" y="162"/>
      <point x="412" y="162" type="curve" smooth="yes"/>
    </contour>
  </outline>
</glyph>
<glyph name="B" format="1">
  <advance width="651"/>
  <unicode hex="0042"/>
  <outline>
    <contour>
      <point x="561" y="628"/>
      <point x="470" y="680"/>
      <point x="338" y="680" type="curve" smooth="yes"/>
      <point x="84" y="680" type="line"/>
      <point x="84" y="0" type="line"/>
      <point x="363" y="0" type="line" smooth="yes"/>
      <point x="509" y="0"/>
      <point x="603" y="74"/>
      <point x="603" y="200" type="curve" smooth="yes"/>
      <point x="603" y="284"/>
      <point x="559" y="337"/>
      <point x="498" y="369" type="curve"/>
      <point x="535" y="399"/>
      <point x="561" y="439"/>
      <point x="561" y="490" type="curve" smooth="yes"/>
    </contour>
    <contour>
      <point x="362" y="298" type="line" smooth="yes"/>
      <point x="426" y="298"/>
      <point x="468" y="263"/>
      <point x="468" y="199" type="curve" smooth="yes"/>
      <point x="468" y="140"/>
      <point x="423" y="107"/>
      <point x="353" y="107" type="curve" smooth="yes"/>
      <point x="213" y="107" type="line"/>
      <point x="213" y="298" type="line"/>
    </contour>
    <contour>
      <point x="319" y="572" type="line" smooth="yes"/>
      <point x="384" y="572"/>
      <point x="424" y="552"/>
      <point x="424" y="488" type="curve" smooth="yes"/>
      <point x="424" y="429"/>
      <point x="381" y="403"/>
      <point x="309" y="403" type="curve" smooth="yes"/>
      <point x="213" y="403" type="line"/>
      <point x="213" y="572" type="line"/>
    </contour>
  </outline>
</glyph>
<glyph name="K" format="1">
  <advance width="634"/>
  <unicode hex="004B"/>
  <outline>
    <contour>
      <point x="201" y="680" type="line"/>
      <point x="71" y="680" type="line"/>
      <point x="71" y="0" type="line"/>
      <point x="201" y="0" type="line"/>
      <point x="201" y="213" type="line"/>
      <point x="265" y="288" type="line"/>
      <point x="473" y="0" type="line"/>
      <point x="634" y="0" type="line"/>
      <point x="350" y="387" type="line"/>
      <point x="552" y="621" type="line"/>
      <point x="456" y="695" type="line"/>
      <point x="201" y="395" type="line"/>
    </contour>
    <contour>
      <point x="318" y="0" type="move" name="bottom"/>
    </contour>
  </outline>
</glyph>
<glyph name="M" format="1">
  <advance width="767"/>
  <unicode hex="004D"/>
  <outline>
    <contour>
      <point x="376" y="206" type="line"/>
      <point x="426" y="213" type="line"/>
      <point x="553" y="392" type="line"/>
      <point x="553" y="0" type="line"/>
      <point x="684" y="0" type="line"/>
      <point x="684" y="680" type="line"/>
      <point x="605" y="680" type="line"/>
      <point x="396" y="366" type="line"/>
      <point x="166" y="680" type="line"/>
      <point x="84" y="680" type="line"/>
      <point x="84" y="0" type="line"/>
      <point x="213" y="0" type="line"/>
      <point x="213" y="415" type="line"/>
    </contour>
  </outline>
</glyph>
<glyph name="U" format="1">
  <advance width="713"/>
  <unicode hex="0055"/>
  <outline>
    <contour>
      <point x="209" y="680" type="line"/>
      <point x="78" y="680" type="line"/>
      <point x="79" y="247" type="line" smooth="yes"/>
      <point x="79" y="99"/>
      <point x="185" y="-12"/>
      <point x="356" y="-11" type="curve" smooth="yes"/>
      <point x="527" y="-9"/>
      <point x="634" y="99"/>
      <point x="634" y="247" type="curve" smooth="yes"/>
      <point x="634" y="680" type="line"/>
      <point x="503" y="680" type="line"/>
      <point x="503" y="257" type="line" smooth="yes"/>
      <point x="503" y="147"/>
      <point x="445" y="95"/>
      <point x="356" y="95" type="curve" smooth="yes"/>
      <point x="269" y="95"/>
      <point x="209" y="143"/>
      <point x="209" y="257" type="curve" smooth="yes"/>
    </contour>
    <contour>
      <point x="390" y="0" type="move" name="bottom"/>
    </contour>
  </outline>
</glyph>
<glyph name="underscore" format="1">
  <advance width="414"/>
  <unicode hex="005F"/>
  <outline>
    <contour>
      <point x="398" y="0" type="line"/>
      <point x="388" y="101" type="line"/>
      <point x="16" y="101" type="line"/>
      <point x="27" y="0" type="line"/>
    </contour>
  </outline>
</glyph>
<glyph name="grave" format="1">
  <advance width="225"/>
  <unicode hex="0060"/>
  <outline>
    <contour>
      <point x="16" y="753" type="line"/>
      <point x="111" y="589" type="line"/>
      <point x="210" y="589" type="line"/>
      <point x="150" y="753" type="line"/>
    </contour>
    <contour>
      <point x="123" y="545" type="move" name="_top"/>
    </contour>
  </outline>
</glyph>
<glyph name="t" format="1">
  <advance width="372"/>
  <unicode hex="0074"/>
  <outline>
    <contour>
      <point x="295" y="-20"/>
      <point x="340" y="-8"/>
      <point x="362" y="10" type="curve"/>
      <point x="324" y="104" type="line"/>
      <point x="305" y="95"/>
      <point x="288" y="91"/>
      <point x="271" y="91" type="curve" smooth="yes"/>
      <point x="224" y="91"/>
      <point x="200" y="127"/>
      <point x="200" y="178" type="curve" smooth="yes"/>
      <point x="200" y="384" type="line"/>
      <point x="328" y="384" type="line"/>
      <point x="288" y="484" type="line"/>
      <point x="200" y="484" type="line"/>
      <point x="200" y="622" type="line"/>
      <point x="71" y="599" type="line"/>
      <point x="71" y="484" type="line"/>
      <point x="6" y="484" type="line"/>
      <point x="6" y="384" type="line"/>
      <point x="71" y="384" type="line"/>
      <point x="71" y="155" type="line" smooth="yes"/>
      <point x="71" y="42"/>
      <point x="144" y="-20"/>
      <point x="264" y="-20" type="curve" smooth="yes"/>
    </contour>
    <contour>
      <point x="264" y="0" type="move" name="bottom"/>
    </contour>
  </outline>
</glyph>
<glyph name="x" format="1">
  <advance width="542"/>
  <unicode hex="0078"/>
  <outline>
    <contour>
      <point x="6" y="0" type="line"/>
      <point x="150" y="0" type="line"/>
      <point x="265" y="145" type="line"/>
      <point x="377" y="0" type="line"/>
      <point x="520" y="0" type="line"/>
      <point x="349" y="227" type="line"/>
      <point x="536" y="485" type="line"/>
      <point x="394" y="485" type="line"/>
      <point x="272" y="329" type="line"/>
      <point x="155" y="485" type="line"/>
      <point x="22" y="466" type="line"/>
      <point x="189" y="246" type="line"/>
    </contour>
  </outline>
</glyph>
<glyph name="z" format="1">
  <advance width="449"/>
  <unicode hex="007A"/>
  <outline>
    <contour>
      <point x="423" y="411" type="line"/>
      <point x="416" y="485" type="line"/>
      <point x="28" y="485" type="line"/>
      <point x="53" y="378" type="line"/>
      <point x="247" y="378" type="line"/>
      <point x="16" y="69" type="line"/>
      <point x="33" y="0" type="line"/>
      <point x="433" y="0" type="line"/>
      <point x="423" y="105" type="line"/>
      <point x="189" y="105" type="line"/>
    </contour>
    <contour>
      <point x="221" y="545" type="move" name="top"/>
    </contour>
  </outline>
</glyph>
<glyph name="sterling" format="1">
  <advance width="514"/>
  <unicode hex="00A3"/>
  <outline>
    <contour>
      <point x="52" y="390" type="line"/>
      <point x="52" y="291" type="line"/>
      <point x="127" y="291" type="line"/>
      <point x="127" y="187" type="line" smooth="yes"/>
      <point x="127" y="137"/>
      <point x="111" y="103"/>
      <point x="68" y="101" type="curve" smooth="yes"/>
      <point x="64" y="101" type="line"/>
      <point x="64" y="0" type="line"/>
      <point x="503" y="0" type="line"/>
      <point x="483" y="101" type="line"/>
      <point x="237" y="101" type="line"/>
      <point x="252" y="128"/>
      <point x="258" y="162"/>
      <point x="258" y="200" type="curve" smooth="yes"/>
      <point x="258" y="291" type="line"/>
      <point x="419" y="291" type="line"/>
      <point x="376" y="390" type="line"/>
      <point x="258" y="390" type="line"/>
      <point x="258" y="486" type="line" smooth="yes"/>
      <point x="258" y="536"/>
      <point x="276" y="572"/>
      <point x="323" y="572" type="curve" smooth="yes"/>
      <point x="339" y="572"/>
      <point x="358" y="568"/>
      <point x="377" y="560" type="curve"/>
      <point x="415" y="652" type="line"/>
      <point x="393" y="671"/>
      <point x="349" y="684"/>
      <point x="317" y="684" type="curve" smooth="yes"/>
      <point x="196" y="684"/>
      <point x="127" y="616"/>
      <point x="127" y="503" type="curve" smooth="yes"/>
      <point x="127" y="390" type="line"/>
    </contour>
  </outline>
</glyph>
<glyph name="brokenbar" format="1">
  <advance width="266"/>
  <unicode hex="00A6"/>
  <outline>
    <contour>
      <point x="198" y="288" type="line"/>
      <point x="69" y="297" type="line"/>
      <point x="69" y="0" type="line"/>
      <point x="198" y="-10" type="line"/>
    </contour>
    <contour>
      <point x="198" y="703" type="line"/>
      <point x="69" y="713" type="line"/>
      <point x="69" y="417" type="line"/>
      <point x="198" y="406" type="line"/>
    </contour>
  </outline>
</glyph>
<glyph name="section" format="1">
  <advance width="624"/>
  <unicode hex="00A7"/>
  <outline>
    <contour>
      <point x="196" y="-4"/>
      <point x="124" y="24"/>
      <point x="83" y="43" type="curve"/>
      <point x="54" y="-59" type="line"/>
      <point x="85" y="-88"/>
      <point x="197" y="-119"/>
      <point x="255" y="-119" type="curve" smooth="yes"/>
      <point x="420" y="-119"/>
      <point x="507" y="-40"/>
      <point x="509" y="69" type="curve"/>
      <point x="509" y="86"/>
      <point x="507" y="101"/>
      <point x="502" y="117" type="curve"/>
      <point x="553" y="150"/>
      <point x="580" y="200"/>
      <point x="581" y="259" type="curve" smooth="yes"/>
      <point x="583" y="374"/>
      <point x="474" y="434"/>
      <point x="377" y="482" type="curve" smooth="yes"/>
      <point x="307" y="519"/>
      <point x="248" y="549"/>
      <point x="248" y="600" type="curve" smooth="yes"/>
      <point x="248" y="645"/>
      <point x="292" y="668"/>
      <point x="351" y="668" type="curve" smooth="yes"/>
      <point x="408" y="668"/>
      <point x="455" y="646"/>
      <point x="498" y="626" type="curve"/>
      <point x="540" y="730" type="line"/>
      <point x="487" y="755"/>
      <point x="416" y="780"/>
      <point x="350" y="780" type="curve" smooth="yes"/>
      <point x="198" y="780"/>
      <point x="116" y="703"/>
      <point x="115" y="599" type="curve"/>
      <point x="115" y="582"/>
      <point x="117" y="566"/>
      <point x="120" y="550" type="curve"/>
      <point x="70" y="518"/>
      <point x="42" y="467"/>
      <point x="42" y="408" type="curve" smooth="yes"/>
      <point x="41" y="291"/>
      <point x="148" y="230"/>
      <point x="245" y="182" type="curve" smooth="yes"/>
      <point x="310" y="149"/>
      <point x="375" y="116"/>
      <point x="375" y="71" type="curve" smooth="yes"/>
      <point x="375" y="23"/>
      <point x="335" y="-4"/>
      <point x="253" y="-4" type="curve" smooth="yes"/>
    </contour>
    <contour>
      <point x="384" y="339"/>
      <point x="448" y="306"/>
      <point x="448" y="260" type="curve" smooth="yes"/>
      <point x="448" y="243"/>
      <point x="441" y="228"/>
      <point x="430" y="217" type="curve"/>
      <point x="393" y="246"/>
      <point x="349" y="270"/>
      <point x="304" y="292" type="curve" smooth="yes"/>
      <point x="234" y="328"/>
      <point x="176" y="358"/>
      <point x="176" y="409" type="curve" smooth="yes"/>
      <point x="176" y="425"/>
      <point x="181" y="438"/>
      <point x="190" y="449" type="curve"/>
      <point x="228" y="419"/>
      <point x="274" y="394"/>
      <point x="318" y="372" type="curve" smooth="yes"/>
    </contour>
  </outline>
</glyph>
<glyph name="degree" format="1">
  <advance width="251"/>
  <unicode hex="00B0"/>
  <outline>
    <contour>
      <point x="245" y="673"/>
      <point x="189" y="724"/>
      <point x="126" y="724" type="curve" smooth="yes"/>
      <point x="60" y="724"/>
      <point x="6" y="673"/>
      <point x="6" y="610" type="curve" smooth="yes"/>
      <point x="6" y="545"/>
      <point x="60" y="497"/>
      <point x="126" y="497" type="curve" smooth="yes"/>
      <point x="189" y="497"/>
      <point x="245" y="545"/>
      <point x="245" y="610" type="curve" smooth="yes"/>
    </contour>
    <contour>
      <point x="148" y="648"/>
      <point x="165" y="629"/>
      <point x="165" y="607" type="curve" smooth="yes"/>
      <point x="165" y="587"/>
      <point x="148" y="568"/>
      <point x="126" y="568" type="curve" smooth="yes"/>
      <point x="105" y="568"/>
      <point x="87" y="589"/>
      <point x="87" y="610" type="curve" smooth="yes"/>
      <point x="87" y="629"/>
      <point x="105" y="648"/>
      <point x="126" y="648" type="curve" smooth="yes"/>
    </contour>
  </outline>
</glyph>
<glyph name="plusminus" format="1">
  <advance width="452"/>
  <unicode hex="00B1"/>
  <outline>
    <contour>
      <point x="430" y="298" type="line"/>
      <point x="421" y="387" type="line"/>
      <point x="284" y="387" type="line"/>
      <point x="284" y="531" type="line"/>
      <point x="173" y="534" type="line"/>
      <point x="173" y="387" type="line"/>
      <point x="21" y="387" type="line"/>
      <point x="31" y="298" type="line"/>
      <point x="173" y="298" type="line"/>
      <point x="173" y="145" type="line"/>
      <point x="284" y="140" type="line"/>
      <point x="284" y="298" type="line"/>
    </contour>
    <contour>
      <point x="430" y="0" type="line"/>
      <point x="426" y="90" type="line"/>
      <point x="24" y="90" type="line"/>
      <point x="31" y="0" type="line"/>
    </contour>
  </outline>
</glyph>
<glyph name="acute" format="1">
  <advance width="225"/>
  <unicode hex="00B4"/>
  <outline>
    <contour>
      <point x="76" y="753" type="line"/>
      <point x="16" y="589" type="line"/>
      <point x="115" y="589" type="line"/>
      <point x="210" y="753" type="line"/>
    </contour>
    <contour>
      <point x="94" y="545" type="move" name="_top"/>
    </contour>
  </outline>
</glyph>
<glyph name="cedilla" format="1">
  <advance width="253"/>
  <unicode hex="00B8"/>
  <outline>
    <contour>
      <point x="92" y="13" type="line"/>
      <point x="57" y="-75" type="line"/>
      <point x="110" y="-81"/>
      <point x="145" y="-100"/>
      <point x="145" y="-120" type="curve" smooth="yes"/>
      <point x="145" y="-134"/>
      <point x="127" y="-137"/>
      <point x="111" y="-137" type="curve" smooth="yes"/>
      <point x="94" y="-137"/>
      <point x="64" y="-126"/>
      <point x="46" y="-117" type="curve"/>
      <point x="16" y="-193" type="line"/>
      <point x="38" y="-210"/>
      <point x="85" y="-221"/>
      <point x="111" y="-221" type="curve" smooth="yes"/>
      <point x="176" y="-221"/>
      <point x="237" y="-189"/>
      <point x="237" y="-118" type="curve" smooth="yes"/>
      <point x="237" y="-83"/>
      <point x="207" y="-45"/>
      <point x="167" y="-29" type="curve"/>
      <point x="185" y="13" type="line"/>
    </contour>
    <contour>
      <point x="133" y="0" type="move" name="_bottom"/>
    </contour>
  </outline>
</glyph>
<glyph name="guillemotright" format="1">
  <advance width="384"/>
  <unicode hex="00BB"/>
  <outline>
    <contour>
      <point x="202" y="408" type="line"/>
      <point x="180" y="321" type="line"/>
      <point x="265" y="245" type="line"/>
      <point x="180" y="169" type="line"/>
      <point x="202" y="83" type="line"/>
      <point x="363" y="221" type="line"/>
      <point x="363" y="269" type="line"/>
    </contour>
    <contour>
      <point x="33" y="408" type="line"/>
      <point x="10" y="321" type="line"/>
      <point x="95" y="245" type="line"/>
      <point x="10" y="169" type="line"/>
      <point x="33" y="83" type="line"/>
      <point x="192" y="221" type="line"/>
      <point x="192" y="269" type="line"/>
    </contour>
  </outline>
</glyph>
<glyph name="threequarters" format="1">
  <advance width="933"/>
  <unicode hex="00BE"/>
  <outline>
    <contour>
      <point x="892" y="-81" type="line"/>
      <point x="902" y="15" type="line"/>
      <point x="812" y="15" type="line"/>
      <point x="812" y="322" type="line"/>
      <point x="730" y="322" type="line"/>
      <point x="482" y="15" type="line"/>
      <point x="495" y="-81" type="line"/>
      <point x="693" y="-81" type="line"/>
      <point x="693" y="-165" type="line"/>
      <point x="812" y="-165" type="line"/>
      <point x="812" y="-81" type="line"/>
    </contour>
    <contour>
      <point x="354" y="710"/>
      <point x="302" y="771"/>
      <point x="195" y="771" type="curve" smooth="yes"/>
      <point x="134" y="771"/>
      <point x="85" y="749"/>
      <point x="36" y="717" type="curve"/>
      <point x="83" y="636" type="line"/>
      <point x="108" y="656"/>
      <point x="134" y="674"/>
      <point x="177" y="674" type="curve" smooth="yes"/>
      <point x="222" y="674"/>
      <point x="233" y="652"/>
      <point x="233" y="638" type="curve" smooth="yes"/>
      <point x="233" y="615"/>
      <point x="226" y="583"/>
      <point x="164" y="583" type="curve" smooth="yes"/>
      <point x="115" y="583" type="line"/>
      <point x="128" y="493" type="line"/>
      <point x="159" y="493" type="line" smooth="yes"/>
      <point x="213" y="493"/>
      <point x="241" y="470"/>
      <point x="241" y="426" type="curve" smooth="yes"/>
      <point x="241" y="396"/>
      <point x="215" y="374"/>
      <point x="171" y="374" type="curve" smooth="yes"/>
      <point x="133" y="374"/>
      <point x="111" y="385"/>
      <point x="71" y="409" type="curve"/>
      <point x="21" y="326" type="line"/>
      <point x="66" y="304"/>
      <point x="129" y="279"/>
      <point x="185" y="279" type="curve" smooth="yes"/>
      <point x="293" y="279"/>
      <point x="362" y="344"/>
      <point x="362" y="427" type="curve" smooth="yes"/>
      <point x="362" y="489"/>
      <point x="321" y="533"/>
      <point x="292" y="540" type="curve"/>
      <point x="322" y="552"/>
      <point x="354" y="593"/>
      <point x="354" y="639" type="curve" smooth="yes"/>
    </contour>
    <contour>
      <point x="656" y="498" type="line"/>
      <point x="514" y="501" type="line"/>
      <point x="227" y="0" type="line"/>
      <point x="370" y="-4" type="line"/>
    </contour>
    <contour>
      <point x="602" y="15" type="line"/>
      <point x="693" y="122" type="line"/>
      <point x="693" y="15" type="line"/>
    </contour>
  </outline>
</glyph>
<glyph name="Agrave" format="1">
  <advance width="651"/>
  <unicode hex="00C0"/>
  <outline>
    <contour>
      <point x="381" y="680" type="line"/>
      <point x="271" y="680" type="line"/>
      <point x="6" y="0" type="line"/>
      <point x="136" y="0" type="line"/>
      <point x="196" y="160" type="line"/>
      <point x="454" y="160" type="line"/>
      <point x="515" y="0" type="line"/>
      <point x="645" y="18" type="line"/>
    </contour>
    <contour>
      <point x="323" y="502" type="line"/>
      <point x="414" y="265" type="line"/>
      <point x="234" y="265" type="line"/>
    </contour>
    <contour>
      <point x="215" y="903" type="line"/>
      <point x="310" y="739" type="line"/>
      <point x="409" y="739" type="line"/>
      <point x="349" y="903" type="line"/>
    </contour>
  </outline>
</glyph>
<glyph name="Aacute" format="1">
  <advance width="651"/>
  <unicode hex="00C1"/>
  <outline>
    <contour>
      <point x="381" y="680" type="line"/>
      <point x="271" y="680" type="line"/>
      <point x="6" y="0" type="line"/>
      <point x="136" y="0" type="line"/>
      <point x="196" y="160" type="line"/>
      <point x="454" y="160" type="line"/>
      <point x="515" y="0" type="line"/>
      <point x="645" y="18" type="line"/>
    </contour>
    <contour>
      <point x="323" y="502" type="line"/>
      <point x="414" y="265" type="line"/>
      <point x="234" y="265" type="line"/>
    </contour>
    <contour>
      <point x="304" y="903" type="line"/>
      <point x="244" y="739" type="line"/>
      <point x="343" y="739" type="line"/>
      <point x="438" y="903" type="line"/>
    </contour>
  </outline>
</glyph>
<glyph name="Egrave" format="1">
  <advance width="580"/>
  <unicode hex="00C8"/>
  <outline>
    <contour>
      <point x="560" y="0" type="line"/>
      <point x="539" y="101" type="line"/>
      <point x="213" y="101" type="line"/>
      <point x="213" y="292" type="line"/>
      <point x="416" y="292" type="line"/>
      <point x="395" y="395" type="line"/>
      <point x="213" y="395" type="line"/>
      <point x="213" y="578" type="line"/>
      <point x="510" y="578" type="line"/>
      <point x="490" y="680" type="line"/>
      <point x="84" y="680" type="line"/>
      <point x="84" y="0" type="line"/>
    </contour>
    <contour>
      <point x="186" y="903" type="line"/>
      <point x="281" y="739" type="line"/>
      <point x="380" y="739" type="line"/>
      <point x="320" y="903" type="line"/>
    </contour>
  </outline>
</glyph>
<glyph name="Icircumflex" format="1">
  <advance width="297"/>
  <unicode hex="00CE"/>
  <outline>
    <contour>
      <point x="213" y="680" type="line"/>
      <point x="84" y="680" type="line"/>
      <point x="84" y="0" type="line"/>
      <point x="213" y="0" type="line"/>
    </contour>
    <contour>
      <point x="81" y="739" type="line"/>
      <point x="148" y="804" type="line"/>
      <point x="214" y="739" type="line"/>
      <point x="333" y="739" type="line"/>
      <point x="181" y="903" type="line"/>
      <point x="110" y="903" type="line"/>
      <point x="-42" y="739" type="line"/>
    </contour>
  </outline>
</glyph>
<glyph name="Otilde" format="1">
  <advance width="741"/>
  <unicode hex="00D5"/>
  <outline>
    <contour>
      <point x="171" y="692"/>
      <point x="57" y="548"/>
      <point x="57" y="337" type="curve" smooth="yes"/>
      <point x="57" y="141"/>
      <point x="157" y="-14"/>
      <point x="370" y="-14" type="curve"/>
      <point x="570" y="-10"/>
      <point x="684" y="132"/>
      <point x="684" y="344" type="curve" smooth="yes"/>
      <point x="684" y="540"/>
      <point x="584" y="696"/>
      <point x="370" y="696" type="curve"/>
    </contour>
    <contour>
      <point x="247" y="95"/>
      <point x="192" y="195"/>
      <point x="192" y="338" type="curve" smooth="yes"/>
      <point x="192" y="491"/>
      <point x="265" y="586"/>
      <point x="372" y="586" type="curve" smooth="yes"/>
      <point x="494" y="586"/>
      <point x="549" y="486"/>
      <point x="549" y="344" type="curve" smooth="yes"/>
      <point x="549" y="174"/>
      <point x="479" y="95"/>
      <point x="369" y="95" type="curve" smooth="yes"/>
    </contour>
    <contour>
      <point x="288" y="750" type="line"/>
      <point x="288" y="763"/>
      <point x="301" y="781"/>
      <point x="316" y="781" type="curve" smooth="yes"/>
      <point x="352" y="781"/>
      <point x="373" y="745"/>
      <point x="422" y="745" type="curve" smooth="yes"/>
      <point x="476" y="745"/>
      <point x="529" y="775"/>
      <point x="529" y="866" type="curve"/>
      <point x="448" y="866" type="line"/>
      <point x="448" y="850"/>
      <point x="436" y="835"/>
      <point x="421" y="835" type="curve" smooth="yes"/>
      <point x="384" y="835"/>
      <point x="358" y="870"/>
      <point x="309" y="870" type="curve" smooth="yes"/>
      <point x="255" y="870"/>
      <point x="202" y="840"/>
      <point x="202" y="750" type="curve"/>
    </contour>
  </outline>
</glyph>
<glyph name="Ucircumflex" format="1">
  <advance width="713"/>
  <unicode hex="00DB"/>
  <outline>
    <contour>
      <point x="209" y="680" type="line"/>
      <point x="78" y="680" type="line"/>
      <point x="79" y="247" type="line" smooth="yes"/>
      <point x="79" y="99"/>
      <point x="185" y="-12"/>
      <point x="356" y="-11" type="curve" smooth="yes"/>
      <point x="527" y="-9"/>
      <point x="634" y="99"/>
      <point x="634" y="247" type="curve" smooth="yes"/>
      <point x="634" y="680" type="line"/>
      <point x="503" y="680" type="line"/>
      <point x="503" y="257" type="line" smooth="yes"/>
      <point x="503" y="147"/>
      <point x="445" y="95"/>
      <point x="356" y="95" type="curve" smooth="yes"/>
      <point x="269" y="95"/>
      <point x="209" y="143"/>
      <point x="209" y="257" type="curve" smooth="yes"/>
    </contour>
    <contour>
      <point x="292" y="739" type="line"/>
      <point x="359" y="804" type="line"/>
      <point x="425" y="739" type="line"/>
      <point x="544" y="739" type="line"/>
      <point x="392" y="903" type="line"/>
      <point x="321" y="903" type="line"/>
      <point x="169" y="739" type="line"/>
    </contour>
  </outline>
</glyph>
<glyph name="Udieresis" format="1">
  <advance width="713"/>
  <unicode hex="00DC"/>
  <outline>
    <contour>
      <point x="209" y="680" type="line"/>
      <point x="78" y="680" type="line"/>
      <point x="79" y="247" type="line" smooth="yes"/>
      <point x="79" y="99"/>
      <point x="185" y="-12"/>
      <point x="356" y="-11" type="curve" smooth="yes"/>
      <point x="527" y="-9"/>
      <point x="634" y="99"/>
      <point x="634" y="247" type="curve" smooth="yes"/>
      <point x="634" y="680" type="line"/>
      <point x="503" y="680" type="line"/>
      <point x="503" y="257" type="line" smooth="yes"/>
      <point x="503" y="147"/>
      <point x="445" y="95"/>
      <point x="356" y="95" type="curve" smooth="yes"/>
      <point x="269" y="95"/>
      <point x="209" y="143"/>
      <point x="209" y="257" type="curve" smooth="yes"/>
    </contour>
    <contour>
      <point x="517" y="853"/>
      <point x="489" y="882"/>
      <point x="452" y="882" type="curve" smooth="yes"/>
      <point x="417" y="882"/>
      <point x="387" y="853"/>
      <point x="387" y="817" type="curve" smooth="yes"/>
      <point x="387" y="781"/>
      <point x="417" y="753"/>
      <point x="452" y="753" type="curve" smooth="yes"/>
      <point x="489" y="753"/>
      <point x="517" y="781"/>
      <point x="517" y="817" type="curve" smooth="yes"/>
    </contour>
    <contour>
      <point x="325" y="853"/>
      <point x="298" y="882"/>
      <point x="262" y="882" type="curve" smooth="yes"/>
      <point x="225" y="882"/>
      <point x="196" y="853"/>
      <point x="196" y="817" type="curve" smooth="yes"/>
      <point x="196" y="781"/>
      <point x="225" y="753"/>
      <point x="262" y="753" type="curve" smooth="yes"/>
      <point x="298" y="753"/>
      <point x="325" y="781"/>
      <point x="325" y="817" type="curve" smooth="yes"/>
    </contour>
  </outline>
</glyph>
<glyph name="igrave" format="1">
  <advance width="256"/>
  <unicode hex="00EC"/>
  <outline>
    <contour>
      <point x="192" y="485" type="line"/>
      <point x="62" y="485" type="line"/>
      <point x="62" y="0" type="line"/>
      <point x="192" y="0" type="line"/>
    </contour>
    <contour>
      <point x="-1" y="753" type="line"/>
      <point x="94" y="589" type="line"/>
      <point x="192" y="589" type="line"/>
      <point x="134" y="753" type="line"/>
    </contour>
  </outline>
</glyph>
<glyph name="ntilde" format="1">
  <advance width="580"/>
  <unicode hex="00F1"/>
  <outline>
    <contour>
      <point x="288" y="504"/>
      <point x="213" y="477"/>
      <point x="169" y="433" type="curve"/>
      <point x="130" y="485" type="line"/>
      <point x="62" y="485" type="line"/>
      <point x="62" y="0" type="line"/>
      <point x="192" y="0" type="line"/>
      <point x="192" y="345" type="line"/>
      <point x="225" y="371"/>
      <point x="269" y="393"/>
      <point x="306" y="393" type="curve" smooth="yes"/>
      <point x="362" y="393"/>
      <point x="392" y="360"/>
      <point x="392" y="298" type="curve" smooth="yes"/>
      <point x="392" y="0" type="line"/>
      <point x="522" y="0" type="line"/>
      <point x="522" y="304" type="line" smooth="yes"/>
      <point x="522" y="417"/>
      <point x="472" y="504"/>
      <point x="340" y="504" type="curve" smooth="yes"/>
    </contour>
    <contour>
      <point x="223" y="600" type="line"/>
      <point x="223" y="613"/>
      <point x="235" y="631"/>
      <point x="251" y="631" type="curve" smooth="yes"/>
      <point x="288" y="631"/>
      <point x="307" y="595"/>
      <point x="356" y="595" type="curve" smooth="yes"/>
      <point x="411" y="595"/>
      <point x="464" y="625"/>
      <point x="464" y="716" type="curve"/>
      <point x="384" y="716" type="line"/>
      <point x="384" y="700"/>
      <point x="370" y="685"/>
      <point x="356" y="685" type="curve" smooth="yes"/>
      <point x="318" y="685"/>
      <point x="292" y="720"/>
      <point x="244" y="720" type="curve" smooth="yes"/>
      <point x="189" y="720"/>
      <point x="135" y="690"/>
      <point x="135" y="600" type="curve"/>
    </contour>
  </outline>
</glyph>
<glyph name="ograve" format="1">
  <advance width="590"/>
  <unicode hex="00F2"/>
  <outline>
    <contour>
      <point x="42" y="87"/>
      <point x="132" y="-11"/>
      <point x="286" y="-12" type="curve"/>
      <point x="444" y="-11"/>
      <point x="548" y="84"/>
      <point x="548" y="239" type="curve" smooth="yes"/>
      <point x="548" y="395"/>
      <point x="456" y="498"/>
      <point x="294" y="498" type="curve" smooth="yes"/>
      <point x="137" y="498"/>
      <point x="42" y="400"/>
      <point x="42" y="244" type="curve" smooth="yes"/>
    </contour>
    <contour>
      <point x="372" y="387"/>
      <point x="414" y="331"/>
      <point x="414" y="239" type="curve" smooth="yes"/>
      <point x="414" y="141"/>
      <point x="363" y="99"/>
      <point x="288" y="99" type="curve" smooth="yes"/>
      <point x="212" y="99"/>
      <point x="176" y="148"/>
      <point x="176" y="245" type="curve" smooth="yes"/>
      <point x="176" y="341"/>
      <point x="221" y="387"/>
      <point x="297" y="387" type="curve" smooth="yes"/>
    </contour>
    <contour>
      <point x="186" y="753" type="line"/>
      <point x="281" y="589" type="line"/>
      <point x="380" y="589" type="line"/>
      <point x="321" y="753" type="line"/>
    </contour>
  </outline>
</glyph>
<glyph name="divide" format="1">
  <advance width="481"/>
  <unicode hex="00F7"/>
  <outline>
    <contour>
      <point x="162" y="395"/>
      <point x="196" y="360"/>
      <point x="239" y="360" type="curve" smooth="yes"/>
      <point x="282" y="360"/>
      <point x="317" y="395"/>
      <point x="317" y="436" type="curve" smooth="yes"/>
      <point x="317" y="480"/>
      <point x="282" y="514"/>
      <point x="239" y="514" type="curve" smooth="yes"/>
      <point x="196" y="514"/>
      <point x="162" y="480"/>
      <point x="162" y="436" type="curve" smooth="yes"/>
    </contour>
    <contour>
      <point x="162" y="59"/>
      <point x="196" y="24"/>
      <point x="239" y="24" type="curve" smooth="yes"/>
      <point x="282" y="24"/>
      <point x="317" y="59"/>
      <point x="317" y="101" type="curve" smooth="yes"/>
      <point x="317" y="145"/>
      <point x="282" y="179"/>
      <point x="239" y="179" type="curve" smooth="yes"/>
      <point x="196" y="179"/>
      <point x="162" y="145"/>
      <point x="162" y="101" type="curve" smooth="yes"/>
    </contour>
    <contour>
      <point x="465" y="223" type="line"/>
      <point x="454" y="325" type="line"/>
      <point x="16" y="325" type="line"/>
      <point x="25" y="223" type="line"/>
    </contour>
  </outline>
</glyph>
<glyph name="thorn" format="1">
  <advance width="581"/>
  <unicode hex="00FE"/>
  <outline>
    <contour>
      <point x="198" y="706" type="line"/>
      <point x="69" y="695" type="line"/>
      <point x="69" y="-219" type="line"/>
      <point x="198" y="-209" type="line"/>
      <point x="198" y="22" type="line"/>
      <point x="237" y="1"/>
      <point x="283" y="-12"/>
      <point x="318" y="-12" type="curve" smooth="yes"/>
      <point x="458" y="-12"/>
      <point x="539" y="99"/>
      <point x="539" y="246" type="curve" smooth="yes"/>
      <point x="539" y="393"/>
      <point x="462" y="504"/>
      <point x="318" y="504" type="curve" smooth="yes"/>
      <point x="283" y="504"/>
      <point x="237" y="492"/>
      <point x="198" y="470" type="curve"/>
    </contour>
    <contour>
      <point x="405" y="179"/>
      <point x="374" y="99"/>
      <point x="284" y="99" type="curve" smooth="yes"/>
      <point x="256" y="99"/>
      <point x="225" y="111"/>
      <point x="198" y="127" type="curve"/>
      <point x="198" y="365" type="line"/>
      <point x="225" y="382"/>
      <point x="256" y="393"/>
      <point x="284" y="393" type="curve" smooth="yes"/>
      <point x="382" y="393"/>
      <point x="405" y="323"/>
      <point x="405" y="246" type="curve" smooth="yes"/>
    </contour>
  </outline>
</glyph>
<glyph name="ydieresis" format="1">
  <advance width="500"/>
  <unicode hex="00FF"/>
  <outline>
    <contour>
      <point x="156" y="-23" type="line"/>
      <point x="139" y="-69"/>
      <point x="76" y="-95"/>
      <point x="29" y="-115" type="curve"/>
      <point x="75" y="-222" type="line"/>
      <point x="161" y="-202"/>
      <point x="247" y="-143"/>
      <point x="278" y="-64" type="curve" smooth="yes"/>
      <point x="304" y="0" type="line"/>
      <point x="495" y="485" type="line"/>
      <point x="358" y="485" type="line"/>
      <point x="252" y="191" type="line"/>
      <point x="140" y="485" type="line"/>
      <point x="6" y="467" type="line"/>
      <point x="179" y="34" type="line"/>
    </contour>
    <contour>
      <point x="221" y="703"/>
      <point x="192" y="732"/>
      <point x="156" y="732" type="curve" smooth="yes"/>
      <point x="121" y="732"/>
      <point x="91" y="703"/>
      <point x="91" y="667" type="curve" smooth="yes"/>
      <point x="91" y="631"/>
      <point x="121" y="603"/>
      <point x="156" y="603" type="curve" smooth="yes"/>
      <point x="192" y="603"/>
      <point x="221" y="631"/>
      <point x="221" y="667" type="curve" smooth="yes"/>
    </contour>
    <contour>
      <point x="412" y="703"/>
      <point x="385" y="732"/>
      <point x="349" y="732" type="curve" smooth="yes"/>
      <point x="312" y="732"/>
      <point x="283" y="703"/>
      <point x="283" y="667" type="curve" smooth="yes"/>
      <point x="283" y="631"/>
      <point x="312" y="603"/>
      <point x="349" y="603" type="curve" smooth="yes"/>
      <point x="385" y="603"/>
      <point x="412" y="631"/>
      <point x="412" y="667" type="curve" smooth="yes"/>
    </contour>
  </outline>
</glyph>
<glyph name="abreve" format="1">
  <advance width="516"/>
  <unicode hex="0103"/>
  <outline>
    <contour>
      <point x="48" y="51"/>
      <point x="104" y="-12"/>
      <point x="223" y="-12" type="curve" smooth="yes"/>
      <point x="271" y="-12"/>
      <point x="323" y="13"/>
      <point x="359" y="41" type="curve"/>
      <point x="391" y="0" type="line"/>
      <point x="458" y="0" type="line"/>
      <point x="458" y="319" type="line" smooth="yes"/>
      <point x="458" y="423"/>
      <point x="363" y="498"/>
      <point x="247" y="498" type="curve" smooth="yes"/>
      <point x="205" y="498"/>
      <point x="111" y="479"/>
      <point x="73" y="454" type="curve"/>
      <point x="108" y="346" type="line"/>
      <point x="144" y="363"/>
      <point x="204" y="378"/>
      <point x="249" y="378" type="curve" smooth="yes"/>
      <point x="297" y="378"/>
      <point x="325" y="349"/>
      <point x="327" y="300" type="curve"/>
      <point x="232" y="300" type="line" smooth="yes"/>
      <point x="122" y="300"/>
      <point x="48" y="245"/>
      <point x="48" y="145" type="curve" smooth="yes"/>
    </contour>
    <contour>
      <point x="184" y="91"/>
      <point x="159" y="117"/>
      <point x="159" y="145" type="curve" smooth="yes"/>
      <point x="159" y="180"/>
      <point x="184" y="213"/>
      <point x="230" y="213" type="curve" smooth="yes"/>
      <point x="328" y="213" type="line"/>
      <point x="328" y="139" type="line"/>
      <point x="294" y="107"/>
      <point x="257" y="91"/>
      <point x="221" y="91" type="curve" smooth="yes"/>
    </contour>
    <contour>
      <point x="358" y="591"/>
      <point x="405" y="668"/>
      <point x="405" y="753" type="curve"/>
      <point x="316" y="753" type="line"/>
      <point x="316" y="718"/>
      <point x="300" y="682"/>
      <point x="258" y="682" type="curve" smooth="yes"/>
      <point x="213" y="682"/>
      <point x="199" y="718"/>
      <point x="199" y="753" type="curve"/>
      <point x="110" y="753" type="line"/>
      <point x="110" y="668"/>
      <point x="156" y="591"/>
      <point x="258" y="589" type="curve"/>
    </contour>
  </outline>
</glyph>
<glyph name="Cacute" format="1">
  <advance width="593"/>
  <unicode hex="0106"/>
  <outline>
    <contour>
      <point x="420" y="585"/>
      <point x="446" y="575"/>
      <point x="505" y="557" type="curve"/>
      <point x="545" y="650" type="line"/>
      <point x="486" y="682"/>
      <point x="405" y="694"/>
      <point x="365" y="694" type="curve" smooth="yes"/>
      <point x="165" y="694"/>
      <point x="57" y="547"/>
      <point x="57" y="337" type="curve" smooth="yes"/>
      <point x="57" y="140"/>
      <point x="147" y="-14"/>
      <point x="360" y="-14" type="curve" smooth="yes"/>
      <point x="416" y="-14"/>
      <point x="499" y="3"/>
      <point x="551" y="30" type="curve"/>
      <point x="502" y="126" type="line"/>
      <point x="461" y="108"/>
      <point x="411" y="95"/>
      <point x="353" y="95" type="curve" smooth="yes"/>
      <point x="237" y="95"/>
      <point x="192" y="206"/>
      <point x="192" y="338" type="curve" smooth="yes"/>
      <point x="192" y="492"/>
      <point x="253" y="585"/>
      <point x="361" y="585" type="curve" smooth="yes"/>
    </contour>
    <contour>
      <point x="346" y="903" type="line"/>
      <point x="286" y="739" type="line"/>
      <point x="385" y="739" type="line"/>
      <point x="480" y="903" type="line"/>
    </contour>
  </outline>
</glyph>
<glyph name="dcaron" format="1">
  <advance width="767"/>
  <unicode hex="010F"/>
  <outline>
    <contour>
      <point x="524" y="706" type="line"/>
      <point x="393" y="695" type="line"/>
      <point x="393" y="468" type="line"/>
      <point x="353" y="491"/>
      <point x="304" y="504"/>
      <point x="268" y="504" type="curve" smooth="yes"/>
      <point x="127" y="504"/>
      <point x="42" y="394"/>
      <point x="42" y="246" type="curve" smooth="yes"/>
      <point x="42" y="99"/>
      <point x="120" y="-12"/>
      <point x="262" y="-12" type="curve" smooth="yes"/>
      <point x="310" y="-12"/>
      <point x="376" y="9"/>
      <point x="420" y="47" type="curve"/>
      <point x="456" y="0" type="line"/>
      <point x="524" y="0" type="line"/>
    </contour>
    <contour>
      <point x="176" y="314"/>
      <point x="206" y="393"/>
      <point x="297" y="393" type="curve" smooth="yes"/>
      <point x="328" y="393"/>
      <point x="363" y="378"/>
      <point x="393" y="358" type="curve"/>
      <point x="393" y="134" type="line"/>
      <point x="363" y="115"/>
      <point x="328" y="99"/>
      <point x="297" y="99" type="curve" smooth="yes"/>
      <point x="199" y="99"/>
      <point x="176" y="169"/>
      <point x="176" y="246" type="curve" smooth="yes"/>
    </contour>
    <contour>
      <point x="757" y="706"/>
      <point x="723" y="742"/>
      <point x="682" y="742" type="curve" smooth="yes"/>
      <point x="640" y="742"/>
      <point x="608" y="703"/>
      <point x="608" y="668" type="curve" smooth="yes"/>
      <point x="608" y="632"/>
      <point x="640" y="597"/>
      <point x="665" y="597" type="curve"/>
      <point x="656" y="554"/>
      <point x="632" y="533"/>
      <point x="597" y="504" type="curve"/>
      <point x="624" y="443" type="line"/>
      <point x="703" y="486"/>
      <point x="757" y="578"/>
      <point x="757" y="653" type="curve" smooth="yes"/>
    </contour>
  </outline>
</glyph>
<glyph name="Iogonek" format="1">
  <advance width="297"/>
  <unicode hex="012E"/>
  <outline>
    <contour>
      <point x="213" y="680" type="line"/>
      <point x="84" y="680" type="line"/>
      <point x="84" y="0" type="line"/>
      <point x="90" y="0" type="line"/>
      <point x="73" y="-22"/>
      <point x="56" y="-67"/>
      <point x="56" y="-94" type="curve" smooth="yes"/>
      <point x="56" y="-156"/>
      <point x="102" y="-207"/>
      <point x="172" y="-207" type="curve" smooth="yes"/>
      <point x="210" y="-207"/>
      <point x="242" y="-198"/>
      <point x="274" y="-174" type="curve"/>
      <point x="237" y="-94" type="line"/>
      <point x="222" y="-105"/>
      <point x="204" y="-111"/>
      <point x="196" y="-111" type="curve" smooth="yes"/>
      <point x="174" y="-111"/>
      <point x="165" y="-98"/>
      <point x="165" y="-83" type="curve" smooth="yes"/>
      <point x="165" y="-57"/>
      <point x="186" y="-20"/>
      <point x="204" y="0" type="curve"/>
      <point x="213" y="0" type="line"/>
    </contour>
  </outline>
</glyph>
<glyph name="Idotaccent" format="1">
  <advance width="297"/>
  <unicode hex="0130"/>
  <outline>
    <contour>
      <point x="213" y="680" type="line"/>
      <point x="84" y="680" type="line"/>
      <point x="84" y="0" type="line"/>
      <point x="213" y="0" type="line"/>
    </contour>
    <contour>
      <point x="220" y="858"/>
      <point x="190" y="891"/>
      <point x="148" y="891" type="curve" smooth="yes"/>
      <point x="107" y="891"/>
      <point x="74" y="858"/>
      <point x="74" y="817" type="curve" smooth="yes"/>
      <point x="74" y="775"/>
      <point x="107" y="744"/>
      <point x="148" y="744" type="curve" smooth="yes"/>
      <point x="190" y="744"/>
      <point x="220" y="775"/>
      <point x="220" y="817" type="curve" smooth="yes"/>
    </contour>
  </outline>
</glyph>
<glyph name="Kcedilla" format="1">
  <advance width="634"/>
  <unicode hex="0136"/>
  <outline>
    <contour>
      <point x="394" y="-57"/>
      <point x="360" y="-21"/>
      <point x="320" y="-21" type="curve" smooth="yes"/>
      <point x="278" y="-21"/>
      <point x="246" y="-59"/>
      <point x="246" y="-95" type="curve" smooth="yes"/>
      <point x="246" y="-132"/>
      <point x="278" y="-167"/>
      <point x="302" y="-167" type="curve"/>
      <point x="292" y="-195"/>
      <point x="267" y="-216"/>
      <point x="250" y="-223" type="curve"/>
      <point x="278" y="-284" type="line"/>
      <point x="341" y="-253"/>
      <point x="394" y="-186"/>
      <point x="394" y="-111" type="curve" smooth="yes"/>
    </contour>
    <contour>
      <point x="201" y="680" type="line"/>
      <point x="71" y="680" type="line"/>
      <point x="71" y="0" type="line"/>
      <point x="201" y="0" type="line"/>
      <point x="201" y="213" type="line"/>
      <point x="265" y="288" type="line"/>
      <point x="473" y="0" type="line"/>
      <point x="634" y="0" type="line"/>
      <point x="350" y="387" type="line"/>
      <point x="552" y="621" type="line"/>
      <point x="456" y="695" type="line"/>
      <point x="201" y="395" type="line"/>
    </contour>
  </outline>
</glyph>
<glyph name="lcaron" format="1">
  <advance width="442"/>
  <unicode hex="013E"/>
  <outline>
    <contour>
      <point x="198" y="706" type="line"/>
      <point x="69" y="695" type="line"/>
      <point x="69" y="0" type="line"/>
      <point x="198" y="0" type="line"/>
    </contour>
    <contour>
      <point x="432" y="706"/>
      <point x="398" y="742"/>
      <point x="356" y="742" type="curve" smooth="yes"/>
      <point x="316" y="742"/>
      <point x="284" y="703"/>
      <point x="284" y="668" type="curve" smooth="yes"/>
      <point x="284" y="632"/>
      <point x="316" y="597"/>
      <point x="339" y="597" type="curve"/>
      <point x="330" y="554"/>
      <point x="306" y="533"/>
      <point x="272" y="504" type="curve"/>
      <point x="300" y="443" type="line"/>
      <point x="377" y="486"/>
      <point x="432" y="578"/>
      <point x="432" y="653" type="curve" smooth="yes"/>
    </contour>
  </outline>
</glyph>
<glyph name="lslash" format="1">
  <advance width="266"/>
  <unicode hex="0142"/>
  <outline>
    <contour>
      <point x="316" y="445" type="line"/>
      <point x="265" y="535" type="line"/>
      <point x="198" y="484" type="line"/>
      <point x="198" y="706" type="line"/>
      <point x="69" y="695" type="line"/>
      <point x="69" y="386" type="line"/>
      <point x="-50" y="296" type="line"/>
      <point x="0" y="206" type="line"/>
      <point x="69" y="257" type="line"/>
      <point x="69" y="0" type="line"/>
      <point x="198" y="0" type="line"/>
      <point x="198" y="356" type="line"/>
    </contour>
  </outline>
</glyph>
<glyph name="ohungarumlaut" format="1">
  <advance width="590"/>
  <unicode hex="0151"/>
  <outline>
    <contour>
      <point x="42" y="87"/>
      <point x="132" y="-11"/>
      <point x="286" y="-12" type="curve"/>
      <point x="444" y="-11"/>
      <point x="548" y="84"/>
      <point x="548" y="239" type="curve" smooth="yes"/>
      <point x="548" y="395"/>
      <point x="456" y="498"/>
      <point x="294" y="498" type="curve" smooth="yes"/>
      <point x="137" y="498"/>
      <point x="42" y="400"/>
      <point x="42" y="244" type="curve" smooth="yes"/>
    </contour>
    <contour>
      <point x="372" y="387"/>
      <point x="414" y="331"/>
      <point x="414" y="239" type="curve" smooth="yes"/>
      <point x="414" y="141"/>
      <point x="363" y="99"/>
      <point x="288" y="99" type="curve" smooth="yes"/>
      <point x="212" y="99"/>
      <point x="176" y="148"/>
      <point x="176" y="245" type="curve" smooth="yes"/>
      <point x="176" y="341"/>
      <point x="221" y="387"/>
      <point x="297" y="387" type="curve" smooth="yes"/>
    </contour>
    <contour>
      <point x="213" y="753" type="line"/>
      <point x="153" y="589" type="line"/>
      <point x="241" y="589" type="line"/>
      <point x="337" y="753" type="line"/>
    </contour>
    <contour>
      <point x="401" y="753" type="line"/>
      <point x="339" y="589" type="line"/>
      <point x="428" y="589" type="line"/>
      <point x="524" y="753" type="line"/>
    </contour>
  </outline>
</glyph>
<glyph name="sacute" format="1">
  <advance width="432"/>
  <unicode hex="015B"/>
  <outline>
    <contour>
      <point x="263" y="387"/>
      <point x="300" y="375"/>
      <point x="347" y="354" type="curve"/>
      <point x="386" y="447" type="line"/>
      <point x="337" y="481"/>
      <point x="261" y="498"/>
      <point x="220" y="498" type="curve" smooth="yes"/>
      <point x="103" y="498"/>
      <point x="31" y="443"/>
      <point x="31" y="350" type="curve" smooth="yes"/>
      <point x="31" y="269"/>
      <point x="114" y="225"/>
      <point x="192" y="200" type="curve" smooth="yes"/>
      <point x="247" y="183"/>
      <point x="271" y="162"/>
      <point x="271" y="135" type="curve" smooth="yes"/>
      <point x="271" y="114"/>
      <point x="245" y="99"/>
      <point x="197" y="99" type="curve" smooth="yes"/>
      <point x="161" y="99"/>
      <point x="117" y="110"/>
      <point x="70" y="132" type="curve"/>
      <point x="31" y="38" type="line"/>
      <point x="77" y="3"/>
      <point x="157" y="-12"/>
      <point x="199" y="-12" type="curve" smooth="yes"/>
      <point x="332" y="-12"/>
      <point x="401" y="44"/>
      <point x="401" y="140" type="curve" smooth="yes"/>
      <point x="401" y="225"/>
      <point x="318" y="275"/>
      <point x="236" y="304" type="curve" smooth="yes"/>
      <point x="186" y="322"/>
      <point x="166" y="335"/>
      <point x="166" y="351" type="curve" smooth="yes"/>
      <point x="166" y="374"/>
      <point x="185" y="387"/>
      <point x="218" y="387" type="curve" smooth="yes"/>
    </contour>
    <contour>
      <point x="202" y="753" type="line"/>
      <point x="142" y="589" type="line"/>
      <point x="241" y="589" type="line"/>
      <point x="337" y="753" type="line"/>
    </contour>
  </outline>
</glyph>
<glyph name="tcedilla" format="1">
  <advance width="372"/>
  <unicode hex="0163"/>
  <outline>
    <contour>
      <point x="324" y="104" type="line"/>
      <point x="305" y="95"/>
      <point x="288" y="91"/>
      <point x="271" y="91" type="curve" smooth="yes"/>
      <point x="224" y="91"/>
      <point x="200" y="127"/>
      <point x="200" y="178" type="curve" smooth="yes"/>
      <point x="200" y="384" type="line"/>
      <point x="328" y="384" type="line"/>
      <point x="288" y="484" type="line"/>
      <point x="200" y="484" type="line"/>
      <point x="200" y="622" type="line"/>
      <point x="71" y="599" type="line"/>
      <point x="71" y="484" type="line"/>
      <point x="6" y="484" type="line"/>
      <point x="6" y="384" type="line"/>
      <point x="71" y="384" type="line"/>
      <point x="71" y="155" type="line" smooth="yes"/>
      <point x="71" y="68"/>
      <point x="114" y="11"/>
      <point x="188" y="-10" type="curve"/>
      <point x="162" y="-75" type="line"/>
      <point x="214" y="-81"/>
      <point x="249" y="-100"/>
      <point x="249" y="-120" type="curve" smooth="yes"/>
      <point x="249" y="-134"/>
      <point x="232" y="-137"/>
      <point x="216" y="-137" type="curve" smooth="yes"/>
      <point x="199" y="-137"/>
      <point x="168" y="-126"/>
      <point x="150" y="-117" type="curve"/>
      <point x="120" y="-193" type="line"/>
      <point x="142" y="-210"/>
      <point x="189" y="-221"/>
      <point x="216" y="-221" type="curve" smooth="yes"/>
      <point x="281" y="-221"/>
      <point x="341" y="-189"/>
      <point x="341" y="-118" type="curve" smooth="yes"/>
      <point x="341" y="-83"/>
      <point x="311" y="-45"/>
      <point x="272" y="-29" type="curve"/>
      <point x="276" y="-19" type="line"/>
      <point x="305" y="-17"/>
      <point x="342" y="-6"/>
      <point x="362" y="10" type="curve"/>
    </contour>
  </outline>
</glyph>
<glyph name="Tcaron" format="1">
  <advance width="582"/>
  <unicode hex="0164"/>
  <outline>
    <contour>
      <point x="6" y="680" type="line"/>
      <point x="6" y="578" type="line"/>
      <point x="213" y="578" type="line"/>
      <point x="213" y="0" type="line"/>
      <point x="344" y="0" type="line"/>
      <point x="344" y="578" type="line"/>
      <point x="577" y="578" type="line"/>
      <point x="556" y="680" type="line"/>
    </contour>
    <contour>
      <point x="108" y="903" type="line"/>
      <point x="260" y="739" type="line"/>
      <point x="331" y="739" type="line"/>
      <point x="483" y="903" type="line"/>
      <point x="364" y="903" type="line"/>
      <point x="298" y="838" type="line"/>
      <point x="231" y="903" type="line"/>
    </contour>
  </outline>
</glyph>
<glyph name="Uring" format="1">
  <advance width="713"/>
  <unicode hex="016E"/>
  <outline>
    <contour>
      <point x="209" y="680" type="line"/>
      <point x="78" y="680" type="line"/>
      <point x="79" y="247" type="line" smooth="yes"/>
      <point x="79" y="99"/>
      <point x="185" y="-12"/>
      <point x="356" y="-11" type="curve" smooth="yes"/>
      <point x="527" y="-9"/>
      <point x="634" y="99"/>
      <point x="634" y="247" type="curve" smooth="yes"/>
      <point x="634" y="680" type="line"/>
      <point x="503" y="680" type="line"/>
      <point x="503" y="257" type="line" smooth="yes"/>
      <point x="503" y="147"/>
      <point x="445" y="95"/>
      <point x="356" y="95" type="curve" smooth="yes"/>
      <point x="269" y="95"/>
      <point x="209" y="143"/>
      <point x="209" y="257" type="curve" smooth="yes"/>
    </contour>
    <contour>
      <point x="394" y="821"/>
      <point x="377" y="802"/>
      <point x="355" y="802" type="curve" smooth="yes"/>
      <point x="333" y="802"/>
      <point x="315" y="821"/>
      <point x="315" y="842" type="curve" smooth="yes"/>
      <point x="315" y="864"/>
      <point x="333" y="881"/>
      <point x="355" y="881" type="curve" smooth="yes"/>
      <point x="377" y="881"/>
      <point x="394" y="864"/>
      <point x="394" y="842" type="curve" smooth="yes"/>
    </contour>
    <contour>
      <point x="462" y="899"/>
      <point x="412" y="943"/>
      <point x="355" y="943" type="curve" smooth="yes"/>
      <point x="297" y="943"/>
      <point x="248" y="899"/>
      <point x="248" y="842" type="curve" smooth="yes"/>
      <point x="248" y="784"/>
      <point x="297" y="744"/>
      <point x="355" y="744" type="curve" smooth="yes"/>
      <point x="412" y="744"/>
      <point x="462" y="784"/>
      <point x="462" y="842" type="curve" smooth="yes"/>
    </contour>
  </outline>
</glyph>
<glyph name="uogonek" format="1">
  <advance width="575"/>
  <unicode hex="0173"/>
  <outline>
    <contour>
      <point x="291" y="-20"/>
      <point x="363" y="6"/>
      <point x="407" y="48" type="curve"/>
      <point x="420" y="31" type="line"/>
      <point x="393" y="4"/>
      <point x="363" y="-41"/>
      <point x="363" y="-94" type="curve" smooth="yes"/>
      <point x="363" y="-156"/>
      <point x="409" y="-207"/>
      <point x="479" y="-207" type="curve" smooth="yes"/>
      <point x="517" y="-207"/>
      <point x="549" y="-198"/>
      <point x="581" y="-174" type="curve"/>
      <point x="544" y="-94" type="line"/>
      <point x="529" y="-105"/>
      <point x="512" y="-111"/>
      <point x="503" y="-111" type="curve" smooth="yes"/>
      <point x="481" y="-111"/>
      <point x="472" y="-98"/>
      <point x="472" y="-83" type="curve" smooth="yes"/>
      <point x="472" y="-53"/>
      <point x="493" y="-20"/>
      <point x="512" y="0" type="curve"/>
      <point x="512" y="485" type="line"/>
      <point x="382" y="485" type="line"/>
      <point x="382" y="134" type="line"/>
      <point x="350" y="111"/>
      <point x="309" y="91"/>
      <point x="274" y="91" type="curve" smooth="yes"/>
      <point x="218" y="91"/>
      <point x="188" y="125"/>
      <point x="188" y="186" type="curve" smooth="yes"/>
      <point x="188" y="485" type="line"/>
      <point x="57" y="485" type="line"/>
      <point x="57" y="180" type="line" smooth="yes"/>
      <point x="57" y="69"/>
      <point x="107" y="-20"/>
      <point x="239" y="-20" type="curve" smooth="yes"/>
    </contour>
  </outline>
</glyph>
<glyph name="Zacute" format="1">
  <advance width="579"/>
  <unicode hex="0179"/>
  <outline>
    <contour>
      <point x="555" y="578" type="line"/>
      <point x="540" y="680" type="line"/>
      <point x="45" y="680" type="line"/>
      <point x="60" y="578" type="line"/>
      <point x="404" y="578" type="line"/>
      <point x="16" y="101" type="line"/>
      <point x="31" y="0" type="line"/>
      <point x="563" y="0" type="line"/>
      <point x="548" y="101" type="line"/>
      <point x="156" y="101" type="line"/>
    </contour>
    <contour>
      <point x="252" y="903" type="line"/>
      <point x="192" y="739" type="line"/>
      <point x="291" y="739" type="line"/>
      <point x="386" y="903" type="line"/>
    </contour>
  </outline>
</glyph>
<glyph name="scommaaccent" format="1">
  <advance width="432"/>
  <unicode hex="0219"/>
  <outline>
    <contour>
      <point x="263" y="387"/>
      <point x="300" y="375"/>
      <point x="347" y="354" type="curve"/>
      <point x="386" y="447" type="line"/>
      <point x="337" y="481"/>
      <point x="261" y="498"/>
      <point x="220" y="498" type="curve" smooth="yes"/>
      <point x="103" y="498"/>
      <point x="31" y="443"/>
      <point x="31" y="350" type="curve" smooth="yes"/>
      <point x="31" y="269"/>
      <point x="114" y="225"/>
      <point x="192" y="200" type="curve" smooth="yes"/>
      <point x="247" y="183"/>
      <point x="271" y="162"/>
      <point x="271" y="135" type="curve" smooth="yes"/>
      <point x="271" y="114"/>
      <point x="245" y="99"/>
      <point x="197" y="99" type="curve" smooth="yes"/>
      <point x="161" y="99"/>
      <point x="117" y="110"/>
      <point x="70" y="132" type="curve"/>
      <point x="31" y="38" type="line"/>
      <point x="77" y="3"/>
      <point x="157" y="-12"/>
      <point x="199" y="-12" type="curve" smooth="yes"/>
      <point x="332" y="-12"/>
      <point x="401" y="44"/>
      <point x="401" y="140" type="curve" smooth="yes"/>
      <point x="401" y="225"/>
      <point x="318" y="275"/>
      <point x="236" y="304" type="curve" smooth="yes"/>
      <point x="186" y="322"/>
      <point x="166" y="335"/>
      <point x="166" y="351" type="curve" smooth="yes"/>
      <point x="166" y="374"/>
      <point x="185" y="387"/>
      <point x="218" y="387" type="curve" smooth="yes"/>
    </contour>
    <contour>
      <point x="283" y="-57"/>
      <point x="249" y="-21"/>
      <point x="207" y="-21" type="curve" smooth="yes"/>
      <point x="167" y="-21"/>
      <point x="134" y="-59"/>
      <point x="134" y="-95" type="curve" smooth="yes"/>
      <point x="134" y="-132"/>
      <point x="167" y="-167"/>
      <point x="190" y="-167" type="curve"/>
      <point x="182" y="-195"/>
      <point x="156" y="-216"/>
      <point x="139" y="-223" type="curve"/>
      <point x="167" y="-284" type="line"/>
      <point x="230" y="-253"/>
      <point x="283" y="-186"/>
      <point x="283" y="-111" type="curve" smooth="yes"/>
    </contour>
  </outline>
</glyph>
<glyph name="circumflex" format="1">
  <advance width="406"/>
  <unicode hex="02C6"/>
  <outline>
    <contour>
      <point x="139" y="589" type="line"/>
      <point x="206" y="654" type="line"/>
      <point x="272" y="589" type="line"/>
      <point x="391" y="589" type="line"/>
      <point x="239" y="753" type="line"/>
      <point x="168" y="753" type="line"/>
      <point x="16" y="589" type="line"/>
    </contour>
    <contour>
      <point x="206" y="545" type="move" name="_top"/>
    </contour>
  </outline>
</glyph>
<glyph name="breve" format="1">
  <advance width="326"/>
  <unicode hex="02D8"/>
  <outline>
    <contour>
      <point x="264" y="591"/>
      <point x="310" y="668"/>
      <point x="310" y="753" type="curve"/>
      <point x="223" y="753" type="line"/>
      <point x="223" y="718"/>
      <point x="206" y="682"/>
      <point x="163" y="682" type="curve" smooth="yes"/>
      <point x="119" y="682"/>
      <point x="105" y="718"/>
      <point x="105" y="753" type="curve"/>
      <point x="16" y="753" type="line"/>
      <point x="16" y="668"/>
      <point x="62" y="591"/>
      <point x="163" y="589" type="curve"/>
    </contour>
    <contour>
      <point x="162" y="545" type="move" name="_top"/>
    </contour>
  </outline>
</glyph>
<glyph name="dotaccent" format="1">
  <advance width="179"/>
  <unicode hex="02D9"/>
  <outline>
    <contour>
      <point x="162" y="708"/>
      <point x="132" y="741"/>
      <point x="90" y="741" type="curve" smooth="yes"/>
      <point x="49" y="741"/>
      <point x="16" y="708"/>
      <point x="16" y="667" type="curve" smooth="yes"/>
      <point x="16" y="625"/>
      <point x="49" y="594"/>
      <point x="90" y="594" type="curve" smooth="yes"/>
      <point x="132" y="594"/>
      <point x="162" y="625"/>
      <point x="162" y="667" type="curve" smooth="yes"/>
    </contour>
    <contour>
      <point x="90" y="545" type="move" name="_top"/>
    </contour>
  </outline>
</glyph>
<glyph name="ring" format="1">
  <advance width="246"/>
  <unicode hex="02DA"/>
  <outline>
    <contour>
      <point x="162" y="671"/>
      <point x="145" y="652"/>
      <point x="123" y="652" type="curve" smooth="yes"/>
      <point x="101" y="652"/>
      <point x="83" y="671"/>
      <point x="83" y="692" type="curve" smooth="yes"/>
      <point x="83" y="714"/>
      <point x="101" y="731"/>
      <point x="123" y="731" type="curve" smooth="yes"/>
      <point x="145" y="731"/>
      <point x="162" y="714"/>
      <point x="162" y="692" type="curve" smooth="yes"/>
    </contour>
    <contour>
      <point x="230" y="749"/>
      <point x="180" y="793"/>
      <point x="123" y="793" type="curve" smooth="yes"/>
      <point x="65" y="793"/>
      <point x="16" y="749"/>
      <point x="16" y="692" type="curve" smooth="yes"/>
      <point x="16" y="634"/>
      <point x="65" y="594"/>
      <point x="123" y="594" type="curve" smooth="yes"/>
      <point x="180" y="594"/>
      <point x="230" y="634"/>
      <point x="230" y="692" type="curve" smooth="yes"/>
    </contour>
    <contour>
      <point x="123" y="545" type="move" name="_top"/>
    </contour>
  </outline>
</glyph>
<glyph name="ogonek" format="1">
  <advance width="250"/>
  <unicode hex="02DB"/>
  <outline>
    <contour>
      <point x="54" y="5" type="line"/>
      <point x="36" y="-15"/>
      <point x="16" y="-65"/>
      <point x="16" y="-94" type="curve" smooth="yes"/>
      <point x="16" y="-156"/>
      <point x="62" y="-207"/>
      <point x="132" y="-207" type="curve" smooth="yes"/>
      <point x="170" y="-207"/>
      <point x="202" y="-198"/>
      <point x="234" y="-174" type="curve"/>
      <point x="197" y="-94" type="line"/>
      <point x="182" y="-105"/>
      <point x="164" y="-111"/>
      <point x="156" y="-111" type="curve" smooth="yes"/>
      <point x="134" y="-111"/>
      <point x="125" y="-98"/>
      <point x="125" y="-83" type="curve" smooth="yes"/>
      <point x="125" y="-55"/>
      <point x="150" y="-13"/>
      <point x="169" y="5" type="curve"/>
    </contour>
    <contour>
      <point x="102" y="0" type="move" name="_bottom"/>
    </contour>
  </outline>
</glyph>
<glyph name="dv_U" format="1">
  <advance width="614"/>
  <unicode hex="0909"/>
  <outline>
    <contour>
      <point x="625" y="569" type="line"/>
      <point x="608" y="680" type="line"/>
      <point x="-11" y="680" type="line"/>
      <point x="6" y="569" type="line"/>
      <point x="342" y="569" type="line"/>
      <point x="369" y="554"/>
      <point x="384" y="530"/>
      <point x="384" y="503" type="curve" smooth="yes"/>
      <point x="384" y="448"/>
      <point x="341" y="403"/>
      <point x="252" y="403" type="curve" smooth="yes"/>
      <point x="136" y="403" type="line"/>
      <point x="150" y="301" type="line"/>
      <point x="245" y="301" type="line" smooth="yes"/>
      <point x="360" y="301"/>
      <point x="397" y="259"/>
      <point x="397" y="193" type="curve" smooth="yes"/>
      <point x="397" y="132"/>
      <point x="337" y="100"/>
      <point x="272" y="100" type="curve" smooth="yes"/>
      <point x="206" y="100"/>
      <point x="149" y="116"/>
      <point x="83" y="156" type="curve"/>
      <point x="57" y="42" type="line"/>
      <point x="117" y="9"/>
      <point x="202" y="-15"/>
      <point x="281" y="-15" type="curve" smooth="yes"/>
      <point x="437" y="-15"/>
      <point x="540" y="75"/>
      <point x="540" y="195" type="curve" smooth="yes"/>
      <point x="540" y="264"/>
      <point x="496" y="332"/>
      <point x="423" y="347" type="curve"/>
      <point x="494" y="371"/>
      <point x="527" y="444"/>
      <point x="527" y="504" type="curve" smooth="yes"/>
      <point x="527" y="527"/>
      <point x="523" y="549"/>
      <point x="515" y="569" type="curve"/>
    </contour>
  </outline>
</glyph>
<glyph name="dv_Ca" format="1">
  <advance width="726"/>
  <unicode hex="091A"/>
  <outline>
    <contour>
      <point x="486" y="0" type="line"/>
      <point x="626" y="-16" type="line"/>
      <point x="626" y="569" type="line"/>
      <point x="737" y="569" type="line"/>
      <point x="720" y="680" type="line"/>
      <point x="-11" y="680" type="line"/>
      <point x="6" y="569" type="line"/>
      <point x="486" y="569" type="line"/>
      <point x="486" y="255" type="line"/>
      <point x="472" y="213"/>
      <point x="413" y="183"/>
      <point x="363" y="183" type="curve" smooth="yes"/>
      <point x="302" y="183"/>
      <point x="250" y="217"/>
      <point x="250" y="271" type="curve" smooth="yes"/>
      <point x="250" y="324"/>
      <point x="288" y="356"/>
      <point x="367" y="358" type="curve" smooth="yes"/>
      <point x="399" y="358" type="line"/>
      <point x="383" y="468" type="line"/>
      <point x="34" y="468" type="line"/>
      <point x="50" y="358" type="line"/>
      <point x="143" y="358" type="line"/>
      <point x="130" y="332"/>
      <point x="122" y="304"/>
      <point x="122" y="271" type="curve" smooth="yes"/>
      <point x="122" y="137"/>
      <point x="233" y="67"/>
      <point x="363" y="67" type="curve" smooth="yes"/>
      <point x="401" y="67"/>
      <point x="454" y="77"/>
      <point x="486" y="90" type="curve"/>
    </contour>
  </outline>
</glyph>
<glyph name="dv_Dda" format="1">
  <advance width="539"/>
  <unicode hex="0921"/>
  <outline>
    <contour>
      <point x="551" y="569" type="line"/>
      <point x="533" y="680" type="line"/>
      <point x="-11" y="680" type="line"/>
      <point x="6" y="569" type="line"/>
      <point x="323" y="569" type="line"/>
      <point x="323" y="524" type="line"/>
      <point x="218" y="524" type="line" smooth="yes"/>
      <point x="120" y="524"/>
      <point x="45" y="470"/>
      <point x="45" y="369" type="curve" smooth="yes"/>
      <point x="45" y="272"/>
      <point x="133" y="213"/>
      <point x="220" y="213" type="curve" smooth="yes"/>
      <point x="306" y="213" type="line" smooth="yes"/>
      <point x="350" y="213"/>
      <point x="365" y="190"/>
      <point x="365" y="162" type="curve" smooth="yes"/>
      <point x="365" y="129"/>
      <point x="331" y="100"/>
      <point x="265" y="100" type="curve" smooth="yes"/>
      <point x="198" y="100"/>
      <point x="143" y="110"/>
      <point x="76" y="151" type="curve"/>
      <point x="52" y="37" type="line"/>
      <point x="111" y="4"/>
      <point x="195" y="-15"/>
      <point x="273" y="-15" type="curve" smooth="yes"/>
      <point x="426" y="-15"/>
      <point x="508" y="71"/>
      <point x="508" y="162" type="curve" smooth="yes"/>
      <point x="508" y="281"/>
      <point x="419" y="330"/>
      <point x="298" y="330" type="curve" smooth="yes"/>
      <point x="224" y="330" type="line" smooth="yes"/>
      <point x="197" y="330"/>
      <point x="177" y="349"/>
      <point x="177" y="369" type="curve" smooth="yes"/>
      <point x="177" y="389"/>
      <point x="195" y="406"/>
      <point x="223" y="406" type="curve" smooth="yes"/>
      <point x="449" y="406" type="line"/>
      <point x="449" y="569" type="line"/>
    </contour>
  </outline>
</glyph>
<glyph name="dv_Ta" format="1">
  <advance width="692"/>
  <unicode hex="0924"/>
  <outline>
    <contour>
      <point x="452" y="0" type="line"/>
      <point x="593" y="-16" type="line"/>
      <point x="593" y="569" type="line"/>
      <point x="703" y="569" type="line"/>
      <point x="687" y="680" type="line"/>
      <point x="-11" y="680" type="line"/>
      <point x="6" y="569" type="line"/>
      <point x="452" y="569" type="line"/>
      <point x="452" y="473" type="line"/>
      <point x="241" y="473" type="line" smooth="yes"/>
      <point x="121" y="473"/>
      <point x="54" y="399"/>
      <point x="54" y="299" type="curve" smooth="yes"/>
      <point x="54" y="202"/>
      <point x="141" y="77"/>
      <point x="210" y="-22" type="curve"/>
      <point x="337" y="15" type="line"/>
      <point x="248" y="152"/>
      <point x="192" y="239"/>
      <point x="192" y="295" type="curve" smooth="yes"/>
      <point x="192" y="338"/>
      <point x="223" y="360"/>
      <point x="284" y="360" type="curve" smooth="yes"/>
      <point x="452" y="360" type="line"/>
    </contour>
  </outline>
</glyph>
<glyph name="dv_Na" format="1">
  <advance width="666"/>
  <unicode hex="0928"/>
  <outline>
    <contour>
      <point x="425" y="0" type="line"/>
      <point x="566" y="-16" type="line"/>
      <point x="566" y="569" type="line"/>
      <point x="677" y="569" type="line"/>
      <point x="661" y="680" type="line"/>
      <point x="-11" y="680" type="line"/>
      <point x="6" y="569" type="line"/>
      <point x="425" y="569" type="line"/>
      <point x="425" y="382" type="line"/>
      <point x="104" y="382" type="line" smooth="yes"/>
      <point x="59" y="382"/>
      <point x="31" y="362"/>
      <point x="31" y="324" type="curve" smooth="yes"/>
      <point x="31" y="246"/>
      <point x="127" y="190"/>
      <point x="185" y="197" type="curve"/>
      <point x="212" y="204"/>
      <point x="224" y="241"/>
      <point x="224" y="271" type="curve"/>
      <point x="425" y="271" type="line"/>
    </contour>
  </outline>
</glyph>
<glyph name="dv_Nnna" format="1">
  <advance width="666"/>
  <unicode hex="0929"/>
  <outline>
    <contour>
      <point x="425" y="0" type="line"/>
      <point x="566" y="-16" type="line"/>
      <point x="566" y="569" type="line"/>
      <point x="677" y="569" type="line"/>
      <point x="661" y="680" type="line"/>
      <point x="-11" y="680" type="line"/>
      <point x="6" y="569" type="line"/>
      <point x="425" y="569" type="line"/>
      <point x="425" y="382" type="line"/>
      <point x="104" y="382" type="line" smooth="yes"/>
      <point x="59" y="382"/>
      <point x="31" y="362"/>
      <point x="31" y="324" type="curve" smooth="yes"/>
      <point x="31" y="246"/>
      <point x="127" y="190"/>
      <point x="185" y="197" type="curve"/>
      <point x="212" y="204"/>
      <point x="224" y="241"/>
      <point x="224" y="271" type="curve"/>
      <point x="425" y="271" type="line"/>
    </contour>
    <contour>
      <point x="108" y="-43"/>
      <point x="142" y="-78"/>
      <point x="186" y="-78" type="curve" smooth="yes"/>
      <point x="229" y="-78"/>
      <point x="264" y="-43"/>
      <point x="264" y="0" type="curve" smooth="yes"/>
      <point x="264" y="43"/>
      <point x="229" y="78"/>
      <point x="186" y="78" type="curve" smooth="yes"/>
      <point x="142" y="78"/>
      <point x="108" y="43"/>
      <point x="108" y="0" type="curve" smooth="yes"/>
    </contour>
  </outline>
</glyph>
<glyph name="dv_Bha" format="1">
  <advance width="790"/>
  <unicode hex="092D"/>
  <outline>
    <contour>
      <point x="549" y="0" type="line"/>
      <point x="691" y="-16" type="line"/>
      <point x="691" y="569" type="line"/>
      <point x="801" y="569" type="line"/>
      <point x="785" y="680" type="line"/>
      <point x="440" y="680" type="line"/>
      <point x="458" y="569" type="line"/>
      <point x="549" y="569" type="line"/>
      <point x="549" y="323" type="line"/>
      <point x="346" y="323" type="line"/>
      <point x="346" y="521" type="line" smooth="yes"/>
      <point x="346" y="629"/>
      <point x="286" y="699"/>
      <point x="185" y="699" type="curve" smooth="yes"/>
      <point x="112" y="699"/>
      <point x="45" y="649"/>
      <point x="45" y="572" type="curve" smooth="yes"/>
      <point x="45" y="493"/>
      <point x="101" y="440"/>
      <point x="183" y="440" type="curve" smooth="yes"/>
      <point x="190" y="440"/>
      <point x="200" y="439"/>
      <point x="210" y="441" type="curve"/>
      <point x="210" y="323" type="line"/>
      <point x="167" y="323"/>
      <point x="139" y="304"/>
      <point x="139" y="265" type="curve" smooth="yes"/>
      <point x="139" y="188"/>
      <point x="219" y="139"/>
      <point x="288" y="139" type="curve" smooth="yes"/>
      <point x="318" y="139"/>
      <point x="332" y="182"/>
      <point x="332" y="213" type="curve"/>
      <point x="549" y="213" type="line"/>
    </contour>
    <contour>
      <point x="170" y="536"/>
      <point x="154" y="546"/>
      <point x="154" y="566" type="curve" smooth="yes"/>
      <point x="154" y="582"/>
      <point x="166" y="597"/>
      <point x="185" y="597" type="curve" smooth="yes"/>
      <point x="203" y="597"/>
      <point x="217" y="576"/>
      <point x="217" y="552" type="curve"/>
      <point x="213" y="545"/>
      <point x="199" y="536"/>
      <point x="186" y="536" type="curve" smooth="yes"/>
    </contour>
  </outline>
</glyph>
<glyph name="dv_Ra" format="1">
  <advance width="466"/>
  <unicode hex="0930"/>
  <outline>
    <contour>
      <point x="477" y="569" type="line"/>
      <point x="461" y="680" type="line"/>
      <point x="-11" y="680" type="line"/>
      <point x="6" y="569" type="line"/>
      <point x="228" y="569" type="line"/>
      <point x="248" y="545"/>
      <point x="260" y="508"/>
      <point x="260" y="466" type="curve" smooth="yes"/>
      <point x="260" y="428"/>
      <point x="241" y="386"/>
      <point x="205" y="364" type="curve"/>
      <point x="196" y="390"/>
      <point x="178" y="422"/>
      <point x="157" y="422" type="curve" smooth="yes"/>
      <point x="97" y="422"/>
      <point x="29" y="344"/>
      <point x="29" y="281" type="curve"/>
      <point x="34" y="255"/>
      <point x="57" y="239"/>
      <point x="88" y="239" type="curve" smooth="yes"/>
      <point x="123" y="238" type="line"/>
      <point x="272" y="-21" type="line"/>
      <point x="403" y="12" type="line"/>
      <point x="250" y="255" type="line"/>
      <point x="335" y="289"/>
      <point x="389" y="371"/>
      <point x="389" y="463" type="curve" smooth="yes"/>
      <point x="389" y="493"/>
      <point x="384" y="535"/>
      <point x="372" y="569" type="curve"/>
    </contour>
  </outline>
</glyph>
<glyph name="dv_La" format="1">
  <advance width="857"/>
  <unicode hex="0932"/>
  <outline>
    <contour>
      <point x="616" y="0" type="line"/>
      <point x="757" y="-16" type="line"/>
      <point x="757" y="569" type="line"/>
      <point x="868" y="569" type="line"/>
      <point x="851" y="680" type="line"/>
      <point x="-11" y="680" type="line"/>
      <point x="6" y="569" type="line"/>
      <point x="616" y="569" type="line"/>
      <point x="616" y="486" type="line"/>
      <point x="596" y="497"/>
      <point x="566" y="503"/>
      <point x="543" y="503" type="curve" smooth="yes"/>
      <point x="490" y="503"/>
      <point x="437" y="485"/>
      <point x="403" y="450" type="curve"/>
      <point x="367" y="484"/>
      <point x="313" y="502"/>
      <point x="257" y="503" type="curve"/>
      <point x="146" y="502"/>
      <point x="52" y="416"/>
      <point x="52" y="319" type="curve" smooth="yes"/>
      <point x="52" y="217"/>
      <point x="93" y="134"/>
      <point x="176" y="-24" type="curve"/>
      <point x="288" y="14" type="line"/>
      <point x="204" y="183"/>
      <point x="177" y="249"/>
      <point x="177" y="311" type="curve" smooth="yes"/>
      <point x="177" y="350"/>
      <point x="209" y="384"/>
      <point x="257" y="384" type="curve" smooth="yes"/>
      <point x="319" y="384"/>
      <point x="342" y="343"/>
      <point x="342" y="280" type="curve" smooth="yes"/>
      <point x="342" y="145" type="line"/>
      <point x="468" y="132" type="line"/>
      <point x="468" y="280" type="line" smooth="yes"/>
      <point x="468" y="343"/>
      <point x="498" y="387"/>
      <point x="542" y="387" type="curve" smooth="yes"/>
      <point x="580" y="387"/>
      <point x="608" y="357"/>
      <point x="616" y="311" type="curve"/>
    </contour>
  </outline>
</glyph>
<glyph name="dv_MatraOoe" format="1">
  <advance width="338"/>
  <unicode hex="093B"/>
  <outline>
    <contour>
      <point x="97" y="0" type="line"/>
      <point x="239" y="-16" type="line"/>
      <point x="239" y="569" type="line"/>
      <point x="350" y="569" type="line"/>
      <point x="332" y="680" type="line"/>
      <point x="236" y="680" type="line"/>
      <point x="236" y="888" type="line"/>
      <point x="100" y="904" type="line"/>
      <point x="100" y="680" type="line"/>
      <point x="-11" y="680" type="line"/>
      <point x="6" y="569" type="line"/>
      <point x="97" y="569" type="line"/>
    </contour>
  </outline>
</glyph>
<glyph name="dv_Nukta" format="1">
  <advance width="0"/>
  <unicode hex="093C"/>
  <outline>
    <contour>
      <point x="17" y="-174"/>
      <point x="51" y="-208"/>
      <point x="94" y="-208" type="curve" smooth="yes"/>
      <point x="139" y="-208"/>
      <point x="173" y="-174"/>
      <point x="173" y="-130" type="curve" smooth="yes"/>
      <point x="173" y="-87"/>
      <point x="139" y="-52"/>
      <point x="94" y="-52" type="curve" smooth="yes"/>
      <point x="51" y="-52"/>
      <point x="17" y="-87"/>
      <point x="17" y="-130" type="curve" smooth="yes"/>
    </contour>
  </outline>
</glyph>
<glyph name="dv_Avagraha" format="1">
  <advance width="571"/>
  <unicode hex="093D"/>
  <outline>
    <contour>
      <point x="220" y="104"/>
      <point x="162" y="129"/>
      <point x="102" y="170" type="curve"/>
      <point x="40" y="55" type="line"/>
      <point x="112" y="4"/>
      <point x="213" y="-17"/>
      <point x="271" y="-17" type="curve" smooth="yes"/>
      <point x="423" y="-17"/>
      <point x="504" y="68"/>
      <point x="504" y="178" type="curve" smooth="yes"/>
      <point x="504" y="284"/>
      <point x="390" y="411"/>
      <point x="318" y="500" type="curve" smooth="yes"/>
      <point x="262" y="569" type="line"/>
      <point x="511" y="569" type="line"/>
      <point x="489" y="680" type="line"/>
      <point x="81" y="680" type="line"/>
      <point x="81" y="586" type="line"/>
      <point x="232" y="415" type="line" smooth="yes"/>
      <point x="298" y="341"/>
      <point x="375" y="240"/>
      <point x="375" y="178" type="curve" smooth="yes"/>
      <point x="375" y="132"/>
      <point x="335" y="104"/>
      <point x="275" y="104" type="curve" smooth="yes"/>
    </contour>
  </outline>
</glyph>
<glyph name="dv_MatraAa" format="1">
  <advance width="338"/>
  <unicode hex="093E"/>
  <outline>
    <contour>
      <point x="97" y="0" type="line"/>
      <point x="239" y="-16" type="line"/>
      <point x="239" y="569" type="line"/>
      <point x="350" y="569" type="line"/>
      <point x="332" y="680" type="line"/>
      <point x="-11" y="680" type="line"/>
      <point x="6" y="569" type="line"/>
      <point x="97" y="569" type="line"/>
    </contour>
  </outline>
</glyph>
<glyph name="dv_MatraCandraLongE" format="1">
  <advance width="0"/>
  <unicode hex="0955"/>
  <outline>
    <contour>
      <point x="406" y="1067" type="line"/>
      <point x="367" y="996"/>
      <point x="307" y="980"/>
      <point x="260" y="980" type="curve" smooth="yes"/>
      <point x="214" y="980"/>
      <point x="146" y="1002"/>
      <point x="115" y="1067" type="curve"/>
      <point x="17" y="1013" type="line"/>
      <point x="73" y="903"/>
      <point x="166" y="877"/>
      <point x="260" y="877" type="curve" smooth="yes"/>
      <point x="354" y="877"/>
      <point x="447" y="902"/>
      <point x="503" y="1013" type="curve"/>
    </contour>
    <contour>
      <point x="514" y="748" type="line"/>
      <point x="497" y="846" type="line"/>
      <point x="26" y="846" type="line"/>
      <point x="43" y="748" type="line"/>
    </contour>
  </outline>
</glyph>
<glyph name="dv_Khha" format="1">
  <advance width="958"/>
  <unicode hex="0959"/>
  <outline>
    <contour>
      <point x="717" y="0" type="line"/>
      <point x="858" y="-16" type="line"/>
      <point x="858" y="569" type="line"/>
      <point x="969" y="569" type="line"/>
      <point x="953" y="680" type="line"/>
      <point x="-11" y="680" type="line"/>
      <point x="6" y="569" type="line"/>
      <point x="223" y="569" type="line"/>
      <point x="243" y="544"/>
      <point x="255" y="504"/>
      <point x="255" y="463" type="curve" smooth="yes"/>
      <point x="255" y="423"/>
      <point x="231" y="383"/>
      <point x="206" y="367" type="curve"/>
      <point x="197" y="394"/>
      <point x="178" y="422"/>
      <point x="157" y="422" type="curve" smooth="yes"/>
      <point x="97" y="422"/>
      <point x="24" y="344"/>
      <point x="24" y="281" type="curve"/>
      <point x="28" y="255"/>
      <point x="52" y="239"/>
      <point x="83" y="239" type="curve"/>
      <point x="109" y="238" type="line"/>
      <point x="140" y="116"/>
      <point x="255" y="-18"/>
      <point x="462" y="-18" type="curve" smooth="yes"/>
      <point x="556" y="-18"/>
      <point x="648" y="13"/>
      <point x="717" y="66" type="curve"/>
    </contour>
    <contour>
      <point x="330" y="100"/>
      <point x="267" y="192"/>
      <point x="245" y="255" type="curve"/>
      <point x="328" y="290"/>
      <point x="384" y="371"/>
      <point x="384" y="463" type="curve" smooth="yes"/>
      <point x="384" y="493"/>
      <point x="378" y="535"/>
      <point x="367" y="569" type="curve"/>
      <point x="717" y="569" type="line"/>
      <point x="717" y="510" type="line"/>
      <point x="696" y="517"/>
      <point x="672" y="520"/>
      <point x="648" y="520" type="curve" smooth="yes"/>
      <point x="521" y="520"/>
      <point x="437" y="435"/>
      <point x="437" y="323" type="curve"/>
      <point x="437" y="228"/>
      <point x="499" y="152"/>
      <point x="597" y="133" type="curve"/>
      <point x="556" y="111"/>
      <point x="508" y="99"/>
      <point x="462" y="99" type="curve" smooth="yes"/>
    </contour>
    <contour>
      <point x="34" y="-43"/>
      <point x="69" y="-78"/>
      <point x="112" y="-78" type="curve" smooth="yes"/>
      <point x="155" y="-78"/>
      <point x="190" y="-43"/>
      <point x="190" y="0" type="curve" smooth="yes"/>
      <point x="190" y="43"/>
      <point x="155" y="78"/>
      <point x="112" y="78" type="curve" smooth="yes"/>
      <point x="69" y="78"/>
      <point x="34" y="43"/>
      <point x="34" y="0" type="curve" smooth="yes"/>
    </contour>
    <contour>
      <point x="681" y="400"/>
      <point x="716" y="373"/>
      <point x="716" y="324" type="curve" smooth="yes"/>
      <point x="716" y="276"/>
      <point x="683" y="248"/>
      <point x="648" y="248" type="curve" smooth="yes"/>
      <point x="615" y="248"/>
      <point x="580" y="274"/>
      <point x="580" y="324" type="curve" smooth="yes"/>
      <point x="580" y="372"/>
      <point x="613" y="400"/>
      <point x="648" y="400" type="curve" smooth="yes"/>
    </contour>
  </outline>
</glyph>
<glyph name="dv_Za" format="1">
  <advance width="816"/>
  <unicode hex="095B"/>
  <outline>
    <contour>
      <point x="577" y="0" type="line"/>
      <point x="717" y="-16" type="line"/>
      <point x="717" y="569" type="line"/>
      <point x="829" y="569" type="line"/>
      <point x="812" y="680" type="line"/>
      <point x="-11" y="680" type="line"/>
      <point x="6" y="569" type="line"/>
      <point x="577" y="569" type="line"/>
      <point x="577" y="468" type="line"/>
      <point x="169" y="468" type="line"/>
      <point x="185" y="358" type="line"/>
      <point x="247" y="358" type="line" smooth="yes"/>
      <point x="319" y="358"/>
      <point x="344" y="318"/>
      <point x="344" y="269" type="curve" smooth="yes"/>
      <point x="344" y="211"/>
      <point x="300" y="169"/>
      <point x="227" y="169" type="curve"/>
      <point x="171" y="171"/>
      <point x="106" y="200"/>
      <point x="42" y="249" type="curve"/>
      <point x="17" y="122" type="line"/>
      <point x="71" y="87"/>
      <point x="150" y="52"/>
      <point x="232" y="52" type="curve" smooth="yes"/>
      <point x="353" y="52"/>
      <point x="476" y="116"/>
      <point x="476" y="275" type="curve" smooth="yes"/>
      <point x="476" y="306"/>
      <point x="469" y="334"/>
      <point x="461" y="358" type="curve"/>
      <point x="577" y="358" type="line"/>
    </contour>
    <contour>
      <point x="156" y="-122"/>
      <point x="190" y="-156"/>
      <point x="234" y="-156" type="curve" smooth="yes"/>
      <point x="277" y="-156"/>
      <point x="313" y="-122"/>
      <point x="313" y="-78" type="curve" smooth="yes"/>
      <point x="313" y="-36"/>
      <point x="277" y="0"/>
      <point x="234" y="0" type="curve" smooth="yes"/>
      <point x="190" y="0"/>
      <point x="156" y="-36"/>
      <point x="156" y="-78" type="curve" smooth="yes"/>
    </contour>
  </outline>
</glyph>
<glyph name="dv_Rha" format="1">
  <advance width="624"/>
  <unicode hex="095D"/>
  <outline>
    <contour>
      <point x="55" y="48"/>
      <point x="225" y="-18"/>
      <point x="365" y="-18" type="curve" smooth="yes"/>
      <point x="503" y="-18"/>
      <point x="594" y="62"/>
      <point x="594" y="167" type="curve" smooth="yes"/>
      <point x="594" y="260"/>
      <point x="526" y="318"/>
      <point x="433" y="318" type="curve" smooth="yes"/>
      <point x="345" y="318"/>
      <point x="275" y="248"/>
      <point x="275" y="160" type="curve" smooth="yes"/>
      <point x="275" y="143"/>
      <point x="278" y="115"/>
      <point x="290" y="102" type="curve"/>
      <point x="236" y="120"/>
      <point x="184" y="171"/>
      <point x="183" y="246" type="curve"/>
      <point x="183" y="339"/>
      <point x="269" y="390"/>
      <point x="378" y="390" type="curve" smooth="yes"/>
      <point x="523" y="390" type="line"/>
      <point x="522" y="508" type="line"/>
      <point x="522" y="569" type="line"/>
      <point x="650" y="569" type="line"/>
      <point x="634" y="680" type="line"/>
      <point x="-11" y="680" type="line"/>
      <point x="6" y="569" type="line"/>
      <point x="381" y="569" type="line"/>
      <point x="381" y="508" type="line"/>
      <point x="378" y="508" type="line" smooth="yes"/>
      <point x="206" y="508"/>
      <point x="55" y="416"/>
      <point x="55" y="245" type="curve" smooth="yes"/>
    </contour>
    <contour>
      <point x="289" y="-173"/>
      <point x="323" y="-207"/>
      <point x="367" y="-207" type="curve" smooth="yes"/>
      <point x="410" y="-207"/>
      <point x="446" y="-173"/>
      <point x="446" y="-128" type="curve" smooth="yes"/>
      <point x="446" y="-86"/>
      <point x="410" y="-50"/>
      <point x="367" y="-50" type="curve" smooth="yes"/>
      <point x="323" y="-50"/>
      <point x="289" y="-86"/>
      <point x="289" y="-128" type="curve" smooth="yes"/>
    </contour>
    <contour>
      <point x="394" y="188"/>
      <point x="414" y="202"/>
      <point x="438" y="202" type="curve" smooth="yes"/>
      <point x="463" y="202"/>
      <point x="479" y="188"/>
      <point x="479" y="165" type="curve" smooth="yes"/>
      <point x="479" y="140"/>
      <point x="454" y="107"/>
      <point x="419" y="102" type="curve"/>
      <point x="402" y="117"/>
      <point x="394" y="137"/>
      <point x="394" y="158" type="curve" smooth="yes"/>
    </contour>
  </outline>
</glyph>
<glyph name="dv_VocalicRr" format="1">
  <advance width="904"/>
  <unicode hex="0960"/>
  <outline>
    <contour>
      <point x="864" y="281"/>
      <point x="825" y="325"/>
      <point x="773" y="389" type="curve"/>
      <point x="784" y="403"/>
      <point x="789" y="418"/>
      <point x="789" y="435" type="curve" smooth="yes"/>
      <point x="789" y="533"/>
      <point x="605" y="571"/>
      <point x="605" y="460" type="curve" smooth="yes"/>
      <point x="605" y="435"/>
      <point x="612" y="416"/>
      <point x="623" y="400" type="curve"/>
      <point x="608" y="385"/>
      <point x="544" y="370"/>
      <point x="500" y="365" type="curve"/>
      <point x="500" y="569" type="line"/>
      <point x="914" y="569" type="line"/>
      <point x="898" y="680" type="line"/>
      <point x="-11" y="680" type="line"/>
      <point x="6" y="569" type="line"/>
      <point x="358" y="569" type="line"/>
      <point x="358" y="441" type="line"/>
      <point x="292" y="484"/>
      <point x="239" y="486"/>
      <point x="189" y="486" type="curve" smooth="yes"/>
      <point x="164" y="486"/>
      <point x="76" y="466"/>
      <point x="31" y="444" type="curve"/>
      <point x="85" y="325" type="line"/>
      <point x="134" y="347"/>
      <point x="184" y="362"/>
      <point x="198" y="362" type="curve" smooth="yes"/>
      <point x="234" y="362"/>
      <point x="272" y="350"/>
      <point x="324" y="304" type="curve"/>
      <point x="82" y="156" type="line"/>
      <point x="159" y="50" type="line"/>
      <point x="358" y="174" type="line"/>
      <point x="358" y="0" type="line"/>
      <point x="500" y="-16" type="line"/>
      <point x="500" y="251" type="line"/>
      <point x="559" y="255"/>
      <point x="656" y="278"/>
      <point x="691" y="308" type="curve"/>
      <point x="723" y="276"/>
      <point x="741" y="255"/>
      <point x="741" y="218" type="curve" smooth="yes"/>
      <point x="741" y="168"/>
      <point x="651" y="112"/>
      <point x="651" y="50" type="curve" smooth="yes"/>
      <point x="651" y="24"/>
      <point x="657" y="6"/>
      <point x="668" y="-10" type="curve"/>
      <point x="652" y="-31"/>
      <point x="642" y="-56"/>
      <point x="642" y="-85" type="curve" smooth="yes"/>
      <point x="642" y="-164"/>
      <point x="716" y="-218"/>
      <point x="773" y="-216" type="curve"/>
      <point x="814" y="-216" type="line"/>
      <point x="837" y="-108" type="line"/>
      <point x="795" y="-108" type="line" smooth="yes"/>
      <point x="780" y="-108"/>
      <point x="764" y="-101"/>
      <point x="764" y="-83" type="curve" smooth="yes"/>
      <point x="764" y="-69"/>
      <point x="785" y="-59"/>
      <point x="800" y="-59" type="curve" smooth="yes"/>
      <point x="829" y="-59" type="line"/>
      <point x="851" y="49" type="line"/>
      <point x="804" y="49" type="line" smooth="yes"/>
      <point x="788" y="49"/>
      <point x="778" y="52"/>
      <point x="778" y="68" type="curve" smooth="yes"/>
      <point x="778" y="97"/>
      <point x="864" y="145"/>
      <point x="864" y="219" type="curve" smooth="yes"/>
    </contour>
  </outline>
</glyph>
<glyph name="dv_Four" format="1">
  <advance width="700"/>
  <unicode hex="096A"/>
  <outline>
    <contour>
      <point x="464" y="-18"/>
      <point x="537" y="57"/>
      <point x="537" y="158" type="curve" smooth="yes"/>
      <point x="537" y="228"/>
      <point x="489" y="303"/>
      <point x="429" y="384" type="curve"/>
      <point x="502" y="464"/>
      <point x="593" y="549"/>
      <point x="666" y="617" type="curve"/>
      <point x="589" y="715" type="line"/>
      <point x="454" y="587"/>
      <point x="402" y="537"/>
      <point x="350" y="479" type="curve"/>
      <point x="297" y="537"/>
      <point x="245" y="587"/>
      <point x="111" y="715" type="curve"/>
      <point x="34" y="617" type="line"/>
      <point x="107" y="549"/>
      <point x="197" y="464"/>
      <point x="271" y="384" type="curve"/>
      <point x="211" y="303"/>
      <point x="162" y="228"/>
      <point x="162" y="158" type="curve" smooth="yes"/>
      <point x="162" y="57"/>
      <point x="236" y="-18"/>
      <point x="350" y="-18" type="curve" smooth="yes"/>
    </contour>
    <contour>
      <point x="318" y="100"/>
      <point x="291" y="123"/>
      <point x="291" y="158" type="curve" smooth="yes"/>
      <point x="291" y="194"/>
      <point x="319" y="234"/>
      <point x="350" y="281" type="curve"/>
      <point x="381" y="234"/>
      <point x="409" y="194"/>
      <point x="409" y="158" type="curve" smooth="yes"/>
      <point x="409" y="123"/>
      <point x="383" y="100"/>
      <point x="350" y="100" type="curve" smooth="yes"/>
    </contour>
  </outline>
</glyph>
<glyph name="dv_Eight" format="1">
  <advance width="587"/>
  <unicode hex="096E"/>
  <outline>
    <contour>
      <point x="227" y="108"/>
      <point x="188" y="159"/>
      <point x="188" y="223" type="curve" smooth="yes"/>
      <point x="188" y="355"/>
      <point x="276" y="478"/>
      <point x="426" y="618" type="curve"/>
      <point x="347" y="715" type="line"/>
      <point x="227" y="616"/>
      <point x="51" y="400"/>
      <point x="51" y="219" type="curve" smooth="yes"/>
      <point x="51" y="83"/>
      <point x="138" y="-18"/>
      <point x="292" y="-18" type="curve" smooth="yes"/>
      <point x="495" y="-18"/>
      <point x="545" y="139"/>
      <point x="540" y="239" type="curve"/>
      <point x="423" y="273" type="line"/>
      <point x="423" y="141"/>
      <point x="360" y="108"/>
      <point x="299" y="108" type="curve" smooth="yes"/>
    </contour>
  </outline>
</glyph>
<glyph name="dv_Nine" format="1">
  <advance width="503"/>
  <unicode hex="096F"/>
  <outline>
    <contour>
      <point x="447" y="608"/>
      <point x="367" y="694"/>
      <point x="239" y="694" type="curve" smooth="yes"/>
      <point x="114" y="694"/>
      <point x="45" y="594"/>
      <point x="45" y="497" type="curve" smooth="yes"/>
      <point x="45" y="412"/>
      <point x="103" y="346"/>
      <point x="149" y="278" type="curve" smooth="yes"/>
      <point x="202" y="201"/>
      <point x="246" y="139"/>
      <point x="246" y="119" type="curve" smooth="yes"/>
      <point x="246" y="90"/>
      <point x="227" y="83"/>
      <point x="195" y="74" type="curve"/>
      <point x="216" y="-26" type="line"/>
      <point x="311" y="-8"/>
      <point x="374" y="36"/>
      <point x="374" y="107" type="curve" smooth="yes"/>
      <point x="374" y="164"/>
      <point x="365" y="182"/>
      <point x="273" y="318" type="curve" smooth="yes"/>
      <point x="270" y="322"/>
      <point x="266" y="326"/>
      <point x="263" y="331" type="curve"/>
      <point x="367" y="334"/>
      <point x="447" y="410"/>
      <point x="447" y="514" type="curve" smooth="yes"/>
    </contour>
    <contour>
      <point x="179" y="537"/>
      <point x="207" y="568"/>
      <point x="246" y="568" type="curve" smooth="yes"/>
      <point x="288" y="568"/>
      <point x="312" y="538"/>
      <point x="312" y="502" type="curve" smooth="yes"/>
      <point x="312" y="465"/>
      <point x="284" y="431"/>
      <point x="236" y="431" type="curve" smooth="yes"/>
      <point x="213" y="431"/>
      <point x="200" y="435"/>
      <point x="190" y="437" type="curve"/>
      <point x="184" y="454"/>
      <point x="179" y="470"/>
      <point x="179" y="491" type="curve" smooth="yes"/>
    </contour>
  </outline>
</glyph>
<glyph name="dv_CandraA" format="1">
  <advance width="969"/>
  <unicode hex="0972"/>
  <outline>
    <contour>
      <point x="729" y="0" type="line"/>
      <point x="869" y="-16" type="line"/>
      <point x="869" y="569" type="line"/>
      <point x="980" y="569" type="line"/>
      <point x="964" y="680" type="line"/>
      <point x="619" y="680" type="line"/>
      <point x="636" y="569" type="line"/>
      <point x="729" y="569" type="line"/>
      <point x="729" y="403" type="line"/>
      <point x="484" y="403" type="line"/>
      <point x="511" y="429"/>
      <point x="532" y="469"/>
      <point x="532" y="504" type="curve" smooth="yes"/>
      <point x="532" y="607"/>
      <point x="455" y="699"/>
      <point x="301" y="699" type="curve" smooth="yes"/>
      <point x="215" y="699"/>
      <point x="141" y="676"/>
      <point x="74" y="634" type="curve"/>
      <point x="93" y="517" type="line"/>
      <point x="166" y="566"/>
      <point x="223" y="584"/>
      <point x="288" y="584" type="curve" smooth="yes"/>
      <point x="351" y="584"/>
      <point x="389" y="545"/>
      <point x="389" y="503" type="curve" smooth="yes"/>
      <point x="389" y="448"/>
      <point x="347" y="403"/>
      <point x="257" y="403" type="curve" smooth="yes"/>
      <point x="141" y="403" type="line"/>
      <point x="156" y="301" type="line"/>
      <point x="251" y="301" type="line" smooth="yes"/>
      <point x="367" y="301"/>
      <point x="403" y="259"/>
      <point x="403" y="193" type="curve" smooth="yes"/>
      <point x="403" y="132"/>
      <point x="342" y="100"/>
      <point x="278" y="100" type="curve" smooth="yes"/>
      <point x="212" y="100"/>
      <point x="154" y="116"/>
      <point x="87" y="156" type="curve"/>
      <point x="62" y="42" type="line"/>
      <point x="122" y="9"/>
      <point x="207" y="-15"/>
      <point x="287" y="-15" type="curve" smooth="yes"/>
      <point x="444" y="-15"/>
      <point x="545" y="75"/>
      <point x="545" y="195" type="curve" smooth="yes"/>
      <point x="545" y="234"/>
      <point x="529" y="276"/>
      <point x="498" y="299" type="curve"/>
      <point x="729" y="299" type="line"/>
    </contour>
    <contour>
      <point x="948" y="959" type="line"/>
      <point x="909" y="888"/>
      <point x="849" y="866"/>
      <point x="803" y="866" type="curve" smooth="yes"/>
      <point x="757" y="866"/>
      <point x="689" y="893"/>
      <point x="657" y="959" type="curve"/>
      <point x="561" y="899" type="line"/>
      <point x="617" y="788"/>
      <point x="708" y="757"/>
      <point x="803" y="757" type="curve" smooth="yes"/>
      <point x="897" y="757"/>
      <point x="989" y="787"/>
      <point x="1046" y="899" type="curve"/>
    </contour>
  </outline>
</glyph>
<glyph name="dv_Aw" format="1">
  <advance width="1302"/>
  <unicode hex="0975"/>
  <outline>
    <contour>
      <point x="729" y="0" type="line"/>
      <point x="869" y="-16" type="line"/>
      <point x="869" y="569" type="line"/>
      <point x="1061" y="569" type="line"/>
      <point x="1061" y="0" type="line"/>
      <point x="1203" y="-16" type="line"/>
      <point x="1203" y="569" type="line"/>
      <point x="1313" y="569" type="line"/>
      <point x="1296" y="680" type="line"/>
      <point x="1193" y="680" type="line"/>
      <point x="1193" y="721" type="line" smooth="yes"/>
      <point x="1193" y="797"/>
      <point x="1159" y="848"/>
      <point x="1092" y="874" type="curve" smooth="yes"/>
      <point x="1056" y="887"/>
      <point x="1031" y="923"/>
      <point x="1031" y="968" type="curve"/>
      <point x="920" y="987" type="line"/>
      <point x="920" y="951" type="line" smooth="yes"/>
      <point x="920" y="877"/>
      <point x="967" y="828"/>
      <point x="1032" y="810" type="curve"/>
      <point x="928" y="810" type="line" smooth="yes"/>
      <point x="883" y="810"/>
      <point x="859" y="835"/>
      <point x="859" y="880" type="curve"/>
      <point x="749" y="899" type="line"/>
      <point x="749" y="864" type="line" smooth="yes"/>
      <point x="749" y="771"/>
      <point x="822" y="712"/>
      <point x="933" y="710" type="curve"/>
      <point x="1034" y="710" type="line" smooth="yes"/>
      <point x="1052" y="710"/>
      <point x="1065" y="700"/>
      <point x="1071" y="680" type="curve"/>
      <point x="619" y="680" type="line"/>
      <point x="636" y="569" type="line"/>
      <point x="729" y="569" type="line"/>
      <point x="729" y="403" type="line"/>
      <point x="484" y="403" type="line"/>
      <point x="511" y="429"/>
      <point x="532" y="469"/>
      <point x="532" y="504" type="curve" smooth="yes"/>
      <point x="532" y="607"/>
      <point x="455" y="699"/>
      <point x="301" y="699" type="curve" smooth="yes"/>
      <point x="215" y="699"/>
      <point x="141" y="676"/>
      <point x="74" y="634" type="curve"/>
      <point x="93" y="517" type="line"/>
      <point x="166" y="566"/>
      <point x="223" y="584"/>
      <point x="288" y="584" type="curve" smooth="yes"/>
      <point x="351" y="584"/>
      <point x="389" y="545"/>
      <point x="389" y="503" type="curve" smooth="yes"/>
      <point x="389" y="448"/>
      <point x="347" y="403"/>
      <point x="257" y="403" type="curve" smooth="yes"/>
      <point x="141" y="403" type="line"/>
      <point x="156" y="301" type="line"/>
      <point x="251" y="301" type="line" smooth="yes"/>
      <point x="367" y="301"/>
      <point x="403" y="259"/>
      <point x="403" y="193" type="curve" smooth="yes"/>
      <point x="403" y="132"/>
      <point x="342" y="100"/>
      <point x="278" y="100" type="curve" smooth="yes"/>
      <point x="212" y="100"/>
      <point x="154" y="116"/>
      <point x="87" y="156" type="curve"/>
      <point x="62" y="42" type="line"/>
      <point x="122" y="9"/>
      <point x="207" y="-15"/>
      <point x="287" y="-15" type="curve" smooth="yes"/>
      <point x="444" y="-15"/>
      <point x="545" y="75"/>
      <point x="545" y="195" type="curve" smooth="yes"/>
      <point x="545" y="234"/>
      <point x="529" y="276"/>
      <point x="498" y="299" type="curve"/>
      <point x="729" y="299" type="line"/>
    </contour>
  </outline>
</glyph>
<glyph name="dv_HeavyYa" format="1">
  <advance width="666"/>
  <unicode hex="097A"/>
  <outline>
    <contour>
      <point x="425" y="0" type="line"/>
      <point x="566" y="-16" type="line"/>
      <point x="566" y="569" type="line"/>
      <point x="677" y="569" type="line"/>
      <point x="661" y="680" type="line"/>
      <point x="-11" y="680" type="line"/>
      <point x="6" y="569" type="line"/>
      <point x="87" y="569" type="line"/>
      <point x="114" y="558"/>
      <point x="135" y="527"/>
      <point x="135" y="493" type="curve" smooth="yes"/>
      <point x="135" y="440"/>
      <point x="106" y="398"/>
      <point x="76" y="388" type="curve"/>
      <point x="50" y="360" type="line"/>
      <point x="50" y="249"/>
      <point x="173" y="151"/>
      <point x="297" y="151" type="curve" smooth="yes"/>
      <point x="360" y="151"/>
      <point x="395" y="164"/>
      <point x="425" y="178" type="curve"/>
    </contour>
    <contour>
      <point x="377" y="283"/>
      <point x="339" y="269"/>
      <point x="302" y="269" type="curve" smooth="yes"/>
      <point x="234" y="269"/>
      <point x="202" y="307"/>
      <point x="184" y="334" type="curve"/>
      <point x="237" y="372"/>
      <point x="260" y="426"/>
      <point x="260" y="486" type="curve"/>
      <point x="303" y="435"/>
      <point x="348" y="374"/>
      <point x="400" y="308" type="curve"/>
    </contour>
    <contour>
      <point x="425" y="569" type="line"/>
      <point x="425" y="388" type="line"/>
      <point x="276" y="569" type="line"/>
    </contour>
  </outline>
</glyph>
<glyph name="dv_Gga" format="1">
  <advance width="699"/>
  <unicode hex="097B"/>
  <outline>
    <contour>
      <point x="458" y="0" type="line"/>
      <point x="599" y="-16" type="line"/>
      <point x="599" y="569" type="line"/>
      <point x="709" y="569" type="line"/>
      <point x="693" y="680" type="line"/>
      <point x="-11" y="680" type="line"/>
      <point x="6" y="569" type="line"/>
      <point x="127" y="569" type="line"/>
      <point x="127" y="332" type="line"/>
      <point x="97" y="332"/>
      <point x="65" y="314"/>
      <point x="59" y="288" type="curve"/>
      <point x="52" y="230"/>
      <point x="134" y="139"/>
      <point x="211" y="139" type="curve" smooth="yes"/>
      <point x="249" y="139"/>
      <point x="269" y="168"/>
      <point x="269" y="213" type="curve" smooth="yes"/>
      <point x="269" y="569" type="line"/>
      <point x="458" y="569" type="line"/>
    </contour>
    <contour>
      <point x="622" y="-181" type="line"/>
      <point x="605" y="-71" type="line"/>
      <point x="71" y="-71" type="line"/>
      <point x="87" y="-181" type="line"/>
    </contour>
  </outline>
</glyph>
<glyph name="endash" format="1">
  <advance width="414"/>
  <unicode hex="2013"/>
  <outline>
    <contour>
      <point x="398" y="223" type="line"/>
      <point x="388" y="325" type="line"/>
      <point x="16" y="325" type="line"/>
      <point x="27" y="223" type="line"/>
    </contour>
  </outline>
</glyph>
<glyph name="quoteleft" format="1">
  <advance width="176"/>
  <unicode hex="2018"/>
  <outline>
    <contour>
      <point x="10" y="481"/>
      <point x="43" y="443"/>
      <point x="85" y="443" type="curve" smooth="yes"/>
      <point x="127" y="443"/>
      <point x="158" y="482"/>
      <point x="158" y="517" type="curve" smooth="yes"/>
      <point x="158" y="554"/>
      <point x="126" y="589"/>
      <point x="103" y="589" type="curve"/>
      <point x="112" y="633"/>
      <point x="136" y="652"/>
      <point x="171" y="682" type="curve"/>
      <point x="142" y="742" type="line"/>
      <point x="65" y="701"/>
      <point x="10" y="608"/>
      <point x="10" y="533" type="curve" smooth="yes"/>
    </contour>
  </outline>
</glyph>
<glyph name="dagger" format="1">
  <advance width="428"/>
  <unicode hex="2020"/>
  <outline>
    <contour>
      <point x="286" y="780" type="line"/>
      <point x="146" y="783" type="line"/>
      <point x="146" y="625" type="line"/>
      <point x="21" y="625" type="line"/>
      <point x="40" y="503" type="line"/>
      <point x="146" y="503" type="line"/>
      <point x="156" y="0" type="line"/>
      <point x="275" y="-4" type="line"/>
      <point x="286" y="503" type="line"/>
      <point x="407" y="503" type="line"/>
      <point x="389" y="625" type="line"/>
      <point x="286" y="625" type="line"/>
    </contour>
  </outline>
</glyph>
<glyph name="daggerdbl" format="1">
  <advance width="463"/>
  <unicode hex="2021"/>
  <outline>
    <contour>
      <point x="154" y="-6" type="line"/>
      <point x="306" y="1" type="line"/>
      <point x="301" y="154" type="line"/>
      <point x="430" y="154" type="line"/>
      <point x="412" y="276" type="line"/>
      <point x="304" y="276" type="line"/>
      <point x="304" y="503" type="line"/>
      <point x="430" y="503" type="line"/>
      <point x="412" y="625" type="line"/>
      <point x="304" y="625" type="line"/>
      <point x="308" y="780" type="line"/>
      <point x="156" y="783" type="line"/>
      <point x="161" y="625" type="line"/>
      <point x="31" y="625" type="line"/>
      <point x="50" y="503" type="line"/>
      <point x="159" y="503" type="line"/>
      <point x="156" y="276" type="line"/>
      <point x="31" y="276" type="line"/>
      <point x="50" y="154" type="line"/>
      <point x="159" y="154" type="line"/>
    </contour>
  </outline>
</glyph>
<glyph name="ellipsis" format="1">
  <advance width="500"/>
  <unicode hex="2026"/>
  <outline>
    <contour>
      <point x="145" y="104"/>
      <point x="115" y="134"/>
      <point x="78" y="134" type="curve" smooth="yes"/>
      <point x="41" y="134"/>
      <point x="10" y="104"/>
      <point x="10" y="66" type="curve" smooth="yes"/>
      <point x="10" y="29"/>
      <point x="41" y="0"/>
      <point x="78" y="0" type="curve" smooth="yes"/>
      <point x="115" y="0"/>
      <point x="145" y="29"/>
      <point x="145" y="66" type="curve"/>
    </contour>
    <contour>
      <point x="318" y="104"/>
      <point x="288" y="134"/>
      <point x="252" y="134" type="curve" smooth="yes"/>
      <point x="213" y="134"/>
      <point x="184" y="104"/>
      <point x="184" y="66" type="curve" smooth="yes"/>
      <point x="184" y="29"/>
      <point x="213" y="0"/>
      <point x="252" y="0" type="curve" smooth="yes"/>
      <point x="288" y="0"/>
      <point x="318" y="29"/>
      <point x="318" y="66" type="curve" smooth="yes"/>
    </contour>
    <contour>
      <point x="489" y="104"/>
      <point x="460" y="134"/>
      <point x="422" y="134" type="curve" smooth="yes"/>
      <point x="386" y="134"/>
      <point x="356" y="104"/>
      <point x="356" y="66" type="curve" smooth="yes"/>
      <point x="356" y="29"/>
      <point x="386" y="0"/>
      <point x="422" y="0" type="curve" smooth="yes"/>
      <point x="460" y="0"/>
      <point x="489" y="29"/>
      <point x="489" y="66" type="curve" smooth="yes"/>
    </contour>
  </outline>
</glyph>
<glyph name="minus" format="1">
  <advance width="450"/>
  <unicode hex="2212"/>
  <outline>
    <contour>
      <point x="435" y="223" type="line"/>
      <point x="423" y="325" type="line"/>
      <point x="16" y="325" type="line"/>
      <point x="25" y="223" type="line"/>
    </contour>
  </outline>
</glyph>
<glyph name="radical" format="1">
  <advance width="621"/>
  <unicode hex="221A"/>
  <outline>
    <contour>
      <point x="616" y="706" type="line"/>
      <point x="482" y="710" type="line"/>
      <point x="241" y="139" type="line"/>
      <point x="141" y="321" type="line"/>
      <point x="6" y="317" type="line"/>
      <point x="176" y="0" type="line"/>
      <point x="318" y="-4" type="line"/>
    </contour>
  </outline>
</glyph>
<glyph name="approxequal" format="1">
  <advance width="514"/>
  <unicode hex="2248"/>
  <outline>
    <contour>
      <point x="407" y="88"/>
      <point x="496" y="106"/>
      <point x="492" y="218" type="curve"/>
      <point x="393" y="239" type="line"/>
      <point x="390" y="205"/>
      <point x="370" y="195"/>
      <point x="356" y="195" type="curve"/>
      <point x="356" y="194" type="line"/>
      <point x="295" y="194"/>
      <point x="201" y="236"/>
      <point x="160" y="236" type="curve" smooth="yes"/>
      <point x="106" y="236"/>
      <point x="18" y="219"/>
      <point x="22" y="107" type="curve"/>
      <point x="120" y="87" type="line"/>
      <point x="122" y="120"/>
      <point x="143" y="129"/>
      <point x="158" y="129" type="curve" smooth="yes"/>
      <point x="230" y="129"/>
      <point x="299" y="88"/>
      <point x="353" y="88" type="curve" smooth="yes"/>
    </contour>
    <contour>
      <point x="407" y="291"/>
      <point x="496" y="308"/>
      <point x="492" y="419" type="curve"/>
      <point x="393" y="440" type="line"/>
      <point x="390" y="406"/>
      <point x="370" y="396"/>
      <point x="356" y="396" type="curve"/>
      <point x="356" y="395" type="line"/>
      <point x="295" y="395"/>
      <point x="201" y="437"/>
      <point x="160" y="437" type="curve" smooth="yes"/>
      <point x="106" y="437"/>
      <point x="18" y="421"/>
      <point x="22" y="309" type="curve"/>
      <point x="120" y="288" type="line"/>
      <point x="122" y="322"/>
      <point x="143" y="332"/>
      <point x="158" y="332" type="curve" smooth="yes"/>
      <point x="230" y="332"/>
      <point x="299" y="291"/>
      <point x="353" y="291" type="curve" smooth="yes"/>
    </contour>
  </outline>
</glyph>
<glyph name="lessequal" format="1">
  <advance width="356"/>
  <unicode hex="2264"/>
  <outline>
    <contour>
      <point x="318" y="113" type="line"/>
      <point x="339" y="222" type="line"/>
      <point x="168" y="313" type="line"/>
      <point x="339" y="404" type="line"/>
      <point x="318" y="514" type="line"/>
      <point x="21" y="353" type="line"/>
      <point x="21" y="273" type="line"/>
    </contour>
    <contour>
      <point x="337" y="0" type="line"/>
      <point x="332" y="90" type="line"/>
      <point x="22" y="90" type="line"/>
      <point x="28" y="0" type="line"/>
    </contour>
  </outline>
</glyph>
<glyph name="greaterequal" format="1">
  <advance width="356"/>
  <unicode hex="2265"/>
  <outline>
    <contour>
      <point x="335" y="273" type="line"/>
      <point x="335" y="353" type="line"/>
      <point x="38" y="514" type="line"/>
      <point x="16" y="404" type="line"/>
      <point x="187" y="313" type="line"/>
      <point x="16" y="222" type="line"/>
      <point x="38" y="113" type="line"/>
    </contour>
    <contour>
      <point x="332" y="0" type="line"/>
      <point x="326" y="90" type="line"/>
      <point x="17" y="90" type="line"/>
      <point x="23" y="0" type="line"/>
    </contour>
  </outline>
</glyph>
<glyph name="lozenge" format="1">
  <advance width="563"/>
  <unicode hex="25CA"/>
  <outline>
    <contour>
      <point x="256" y="0" type="line"/>
      <point x="308" y="0" type="line"/>
      <point x="542" y="281" type="line"/>
      <point x="542" y="318" type="line"/>
      <point x="308" y="600" type="line"/>
      <point x="256" y="600" type="line"/>
      <point x="21" y="318" type="line"/>
      <point x="21" y="281" type="line"/>
    </contour>
    <contour>
      <point x="151" y="300" type="line"/>
      <point x="281" y="457" type="line"/>
      <point x="412" y="300" type="line"/>
      <point x="281" y="143" type="line"/>
    </contour>
  </outline>
</glyph>
<glyph name="breve.case" format="1">
  <advance width="326"/>
  <outline>
    <contour>
      <point x="264" y="741"/>
      <point x="310" y="818"/>
      <point x="310" y="903" type="curve"/>
      <point x="223" y="903" type="line"/>
      <point x="223" y="868"/>
      <point x="206" y="832"/>
      <point x="163" y="832" type="curve" smooth="yes"/>
      <point x="119" y="832"/>
      <point x="105" y="868"/>
      <point x="105" y="903" type="curve"/>
      <point x="16" y="903" type="line"/>
      <point x="16" y="818"/>
      <point x="62" y="741"/>
      <point x="163" y="739" type="curve"/>
    </contour>
    <contour>
      <point x="162" y="702" type="move" name="_topU"/>
    </contour>
  </outline>
</glyph>
<glyph name="dotaccent.case" format="1">
  <advance width="179"/>
  <outline>
    <contour>
      <point x="162" y="858"/>
      <point x="132" y="891"/>
      <point x="90" y="891" type="curve" smooth="yes"/>
      <point x="49" y="891"/>
      <point x="16" y="858"/>
      <point x="16" y="817" type="curve" smooth="yes"/>
      <point x="16" y="775"/>
      <point x="49" y="744"/>
      <point x="90" y="744" type="curve" smooth="yes"/>
      <point x="132" y="744"/>
      <point x="162" y="775"/>
      <point x="162" y="817" type="curve" smooth="yes"/>
    </contour>
    <contour>
      <point x="90" y="702" type="move" name="_topU"/>
    </contour>
  </outline>
</glyph>
<glyph name="dv_BDha" format="1">
  <advance width="1079"/>
  <outline>
    <contour>
      <point x="40" y="93"/>
      <point x="133" y="-1"/>
      <point x="273" y="-1" type="curve"/>
      <point x="361" y="0"/>
      <point x="429" y="38"/>
      <point x="468" y="98" type="curve"/>
      <point x="508" y="75"/>
      <point x="561" y="62"/>
      <point x="629" y="62" type="curve" smooth="yes"/>
      <point x="731" y="62"/>
      <point x="796" y="104"/>
      <point x="838" y="139" type="curve"/>
      <point x="838" y="0" type="line"/>
      <point x="979" y="-16" type="line"/>
      <point x="979" y="569" type="line"/>
      <point x="1089" y="569" type="line"/>
      <point x="1073" y="680" type="line"/>
      <point x="729" y="680" type="line"/>
      <point x="745" y="569" type="line"/>
      <point x="838" y="569" type="line"/>
      <point x="838" y="409" type="line" smooth="yes"/>
      <point x="838" y="271"/>
      <point x="733" y="188"/>
      <point x="631" y="188" type="curve" smooth="yes"/>
      <point x="554" y="188"/>
      <point x="511" y="218"/>
      <point x="511" y="265" type="curve" smooth="yes"/>
      <point x="511" y="316"/>
      <point x="552" y="344"/>
      <point x="617" y="344" type="curve" smooth="yes"/>
      <point x="679" y="344" type="line"/>
      <point x="642" y="453" type="line"/>
      <point x="610" y="453" type="line" smooth="yes"/>
      <point x="554" y="453"/>
      <point x="521" y="481"/>
      <point x="521" y="520" type="curve" smooth="yes"/>
      <point x="521" y="547"/>
      <point x="549" y="571"/>
      <point x="576" y="571" type="curve" smooth="yes"/>
      <point x="595" y="571"/>
      <point x="612" y="568"/>
      <point x="634" y="549" type="curve"/>
      <point x="702" y="640" type="line"/>
      <point x="673" y="666"/>
      <point x="634" y="694"/>
      <point x="570" y="694" type="curve" smooth="yes"/>
      <point x="542" y="694"/>
      <point x="517" y="689"/>
      <point x="495" y="680" type="curve"/>
      <point x="-11" y="680" type="line"/>
      <point x="6" y="569" type="line"/>
      <point x="394" y="569" type="line"/>
      <point x="390" y="555"/>
      <point x="388" y="540"/>
      <point x="388" y="526" type="curve" smooth="yes"/>
      <point x="388" y="480"/>
      <point x="413" y="426"/>
      <point x="447" y="403" type="curve"/>
      <point x="439" y="398"/>
      <point x="431" y="393"/>
      <point x="423" y="386" type="curve"/>
      <point x="385" y="417"/>
      <point x="333" y="435"/>
      <point x="273" y="436" type="curve"/>
      <point x="133" y="436"/>
      <point x="40" y="342"/>
      <point x="40" y="218" type="curve" smooth="yes"/>
    </contour>
    <contour>
      <point x="218" y="117"/>
      <point x="173" y="156"/>
      <point x="173" y="218" type="curve" smooth="yes"/>
      <point x="173" y="243"/>
      <point x="181" y="266"/>
      <point x="194" y="283" type="curve"/>
      <point x="325" y="132" type="line"/>
      <point x="310" y="121"/>
      <point x="291" y="116"/>
      <point x="271" y="116" type="curve" smooth="yes"/>
    </contour>
    <contour>
      <point x="324" y="321"/>
      <point x="369" y="279"/>
      <point x="369" y="218" type="curve" smooth="yes"/>
      <point x="369" y="205"/>
      <point x="367" y="194"/>
      <point x="364" y="183" type="curve"/>
      <point x="246" y="318" type="line"/>
      <point x="254" y="320"/>
      <point x="262" y="321"/>
      <point x="271" y="321" type="curve" smooth="yes"/>
    </contour>
  </outline>
</glyph>
<glyph name="dv_BJha" format="1">
  <advance width="1204"/>
  <outline>
    <contour>
      <point x="40" y="186"/>
      <point x="133" y="92"/>
      <point x="273" y="92" type="curve" smooth="yes"/>
      <point x="374" y="92"/>
      <point x="450" y="144"/>
      <point x="483" y="220" type="curve"/>
      <point x="500" y="215"/>
      <point x="517" y="213"/>
      <point x="535" y="213" type="curve" smooth="yes"/>
      <point x="627" y="213" type="line" smooth="yes"/>
      <point x="670" y="213"/>
      <point x="686" y="190"/>
      <point x="686" y="162" type="curve" smooth="yes"/>
      <point x="686" y="129"/>
      <point x="650" y="101"/>
      <point x="592" y="100" type="curve" smooth="yes"/>
      <point x="575" y="100"/>
      <point x="557" y="102"/>
      <point x="542" y="104" type="curve"/>
      <point x="512" y="130"/>
      <point x="492" y="145"/>
      <point x="456" y="145" type="curve" smooth="yes"/>
      <point x="423" y="145"/>
      <point x="388" y="115"/>
      <point x="388" y="81" type="curve" smooth="yes"/>
      <point x="388" y="26"/>
      <point x="430" y="8"/>
      <point x="472" y="-12" type="curve"/>
      <point x="594" y="-168" type="line"/>
      <point x="687" y="-102" type="line"/>
      <point x="619" y="-14" type="line"/>
      <point x="750" y="-3"/>
      <point x="829" y="75"/>
      <point x="829" y="162" type="curve" smooth="yes"/>
      <point x="829" y="170" type="line"/>
      <point x="963" y="170" type="line"/>
      <point x="963" y="0" type="line"/>
      <point x="1105" y="-16" type="line"/>
      <point x="1105" y="569" type="line"/>
      <point x="1215" y="569" type="line"/>
      <point x="1198" y="680" type="line"/>
      <point x="-11" y="680" type="line"/>
      <point x="6" y="569" type="line"/>
      <point x="633" y="569" type="line"/>
      <point x="633" y="524" type="line"/>
      <point x="532" y="524" type="line" smooth="yes"/>
      <point x="485" y="524"/>
      <point x="443" y="511"/>
      <point x="413" y="487" type="curve"/>
      <point x="375" y="513"/>
      <point x="328" y="529"/>
      <point x="273" y="530" type="curve"/>
      <point x="133" y="530"/>
      <point x="40" y="435"/>
      <point x="40" y="309" type="curve" smooth="yes"/>
    </contour>
    <contour>
      <point x="963" y="569" type="line"/>
      <point x="963" y="273" type="line"/>
      <point x="790" y="272" type="line"/>
      <point x="752" y="312"/>
      <point x="692" y="330"/>
      <point x="619" y="330" type="curve" smooth="yes"/>
      <point x="540" y="330" type="line" smooth="yes"/>
      <point x="522" y="330"/>
      <point x="507" y="338"/>
      <point x="499" y="349" type="curve"/>
      <point x="497" y="358"/>
      <point x="495" y="367"/>
      <point x="492" y="376" type="curve"/>
      <point x="496" y="393"/>
      <point x="513" y="406"/>
      <point x="538" y="406" type="curve" smooth="yes"/>
      <point x="770" y="406" type="line"/>
      <point x="770" y="569" type="line"/>
    </contour>
    <contour>
      <point x="218" y="209"/>
      <point x="173" y="250"/>
      <point x="173" y="310" type="curve" smooth="yes"/>
      <point x="173" y="336"/>
      <point x="181" y="358"/>
      <point x="194" y="375" type="curve"/>
      <point x="326" y="225" type="line"/>
      <point x="310" y="214"/>
      <point x="291" y="208"/>
      <point x="271" y="208" type="curve" smooth="yes"/>
    </contour>
    <contour>
      <point x="310" y="412"/>
      <point x="346" y="389"/>
      <point x="361" y="352" type="curve"/>
      <point x="362" y="340"/>
      <point x="365" y="329"/>
      <point x="369" y="318" type="curve"/>
      <point x="369" y="310" type="line" smooth="yes"/>
      <point x="369" y="298"/>
      <point x="367" y="286"/>
      <point x="364" y="276" type="curve"/>
      <point x="247" y="410" type="line"/>
      <point x="254" y="412"/>
      <point x="263" y="413"/>
      <point x="271" y="413" type="curve" smooth="yes"/>
    </contour>
  </outline>
</glyph>
<glyph name="dv_BLa" format="1">
  <advance width="1182"/>
  <outline>
    <contour>
      <point x="40" y="154"/>
      <point x="133" y="59"/>
      <point x="273" y="59" type="curve"/>
      <point x="337" y="60"/>
      <point x="391" y="81"/>
      <point x="430" y="116" type="curve"/>
      <point x="449" y="75"/>
      <point x="473" y="30"/>
      <point x="501" y="-24" type="curve"/>
      <point x="611" y="14" type="line"/>
      <point x="530" y="183"/>
      <point x="502" y="249"/>
      <point x="502" y="311" type="curve" smooth="yes"/>
      <point x="502" y="350"/>
      <point x="534" y="384"/>
      <point x="582" y="384" type="curve" smooth="yes"/>
      <point x="643" y="384"/>
      <point x="668" y="343"/>
      <point x="668" y="280" type="curve" smooth="yes"/>
      <point x="668" y="145" type="line"/>
      <point x="793" y="132" type="line"/>
      <point x="793" y="280" type="line" smooth="yes"/>
      <point x="793" y="343"/>
      <point x="822" y="387"/>
      <point x="867" y="387" type="curve" smooth="yes"/>
      <point x="906" y="387"/>
      <point x="932" y="357"/>
      <point x="941" y="311" type="curve"/>
      <point x="941" y="0" type="line"/>
      <point x="1082" y="-16" type="line"/>
      <point x="1082" y="569" type="line"/>
      <point x="1193" y="569" type="line"/>
      <point x="1177" y="680" type="line"/>
      <point x="-11" y="680" type="line"/>
      <point x="6" y="569" type="line"/>
      <point x="941" y="569" type="line"/>
      <point x="941" y="486" type="line"/>
      <point x="920" y="497"/>
      <point x="892" y="503"/>
      <point x="868" y="503" type="curve" smooth="yes"/>
      <point x="815" y="503"/>
      <point x="763" y="485"/>
      <point x="728" y="450" type="curve"/>
      <point x="692" y="484"/>
      <point x="638" y="502"/>
      <point x="582" y="503" type="curve"/>
      <point x="522" y="502"/>
      <point x="468" y="478"/>
      <point x="431" y="441" type="curve"/>
      <point x="391" y="475"/>
      <point x="337" y="497"/>
      <point x="273" y="498" type="curve"/>
      <point x="133" y="498"/>
      <point x="40" y="403"/>
      <point x="40" y="278" type="curve" smooth="yes"/>
    </contour>
    <contour>
      <point x="218" y="177"/>
      <point x="173" y="218"/>
      <point x="173" y="279" type="curve" smooth="yes"/>
      <point x="173" y="304"/>
      <point x="181" y="327"/>
      <point x="194" y="344" type="curve"/>
      <point x="325" y="192" type="line"/>
      <point x="310" y="182"/>
      <point x="291" y="176"/>
      <point x="271" y="176" type="curve" smooth="yes"/>
    </contour>
    <contour>
      <point x="324" y="381"/>
      <point x="369" y="339"/>
      <point x="369" y="279" type="curve" smooth="yes"/>
      <point x="369" y="266"/>
      <point x="367" y="255"/>
      <point x="363" y="244" type="curve"/>
      <point x="247" y="378" type="line"/>
      <point x="254" y="380"/>
      <point x="263" y="381"/>
      <point x="271" y="381" type="curve" smooth="yes"/>
    </contour>
  </outline>
</glyph>
<glyph name="dv_BNa" format="1">
  <advance width="631"/>
  <outline>
    <contour>
      <point x="390" y="0" type="line"/>
      <point x="531" y="-16" type="line"/>
      <point x="531" y="569" type="line"/>
      <point x="642" y="569" type="line"/>
      <point x="626" y="680" type="line"/>
      <point x="-11" y="680" type="line"/>
      <point x="6" y="569" type="line"/>
      <point x="390" y="569" type="line"/>
      <point x="390" y="486" type="line"/>
      <point x="361" y="506"/>
      <point x="315" y="518"/>
      <point x="279" y="518" type="curve" smooth="yes"/>
      <point x="150" y="518"/>
      <point x="40" y="430"/>
      <point x="40" y="296" type="curve" smooth="yes"/>
      <point x="40" y="205"/>
      <point x="94" y="127"/>
      <point x="178" y="93" type="curve"/>
      <point x="130" y="67"/>
      <point x="28" y="33"/>
      <point x="28" y="-36" type="curve" smooth="yes"/>
      <point x="28" y="-97"/>
      <point x="107" y="-128"/>
      <point x="158" y="-128" type="curve" smooth="yes"/>
      <point x="185" y="-128"/>
      <point x="237" y="-122"/>
      <point x="237" y="-85" type="curve" smooth="yes"/>
      <point x="237" y="-62"/>
      <point x="224" y="-38"/>
      <point x="215" y="-17" type="curve"/>
      <point x="390" y="81" type="line"/>
    </contour>
    <contour>
      <point x="335" y="200" type="line"/>
      <point x="317" y="192"/>
      <point x="296" y="191"/>
      <point x="276" y="191" type="curve" smooth="yes"/>
      <point x="219" y="191"/>
      <point x="173" y="241"/>
      <point x="173" y="297" type="curve" smooth="yes"/>
      <point x="173" y="320"/>
      <point x="180" y="342"/>
      <point x="194" y="360" type="curve"/>
    </contour>
    <contour>
      <point x="384" y="241" type="line"/>
      <point x="246" y="397" type="line"/>
      <point x="255" y="402"/>
      <point x="266" y="403"/>
      <point x="276" y="403" type="curve" smooth="yes"/>
      <point x="324" y="403"/>
      <point x="364" y="382"/>
      <point x="390" y="342" type="curve"/>
      <point x="390" y="251" type="line"/>
    </contour>
  </outline>
</glyph>
<glyph name="dv_BhCha" format="1">
  <advance width="1276"/>
  <outline>
    <contour>
      <point x="1288" y="569" type="line"/>
      <point x="1272" y="680" type="line"/>
      <point x="437" y="680" type="line"/>
      <point x="455" y="569" type="line"/>
      <point x="547" y="569" type="line"/>
      <point x="540" y="549"/>
      <point x="535" y="527"/>
      <point x="535" y="504" type="curve" smooth="yes"/>
      <point x="535" y="444"/>
      <point x="568" y="371"/>
      <point x="640" y="347" type="curve"/>
      <point x="620" y="343"/>
      <point x="602" y="334"/>
      <point x="586" y="323" type="curve"/>
      <point x="346" y="323" type="line"/>
      <point x="346" y="521" type="line" smooth="yes"/>
      <point x="346" y="629"/>
      <point x="286" y="699"/>
      <point x="185" y="699" type="curve" smooth="yes"/>
      <point x="112" y="699"/>
      <point x="45" y="649"/>
      <point x="45" y="572" type="curve" smooth="yes"/>
      <point x="45" y="493"/>
      <point x="101" y="440"/>
      <point x="183" y="440" type="curve" smooth="yes"/>
      <point x="190" y="440"/>
      <point x="200" y="439"/>
      <point x="210" y="441" type="curve"/>
      <point x="210" y="323" type="line"/>
      <point x="167" y="323"/>
      <point x="139" y="304"/>
      <point x="139" y="265" type="curve" smooth="yes"/>
      <point x="139" y="188"/>
      <point x="219" y="139"/>
      <point x="288" y="139" type="curve" smooth="yes"/>
      <point x="318" y="139"/>
      <point x="332" y="182"/>
      <point x="332" y="213" type="curve"/>
      <point x="524" y="213" type="line"/>
      <point x="523" y="207"/>
      <point x="523" y="201"/>
      <point x="523" y="195" type="curve" smooth="yes"/>
      <point x="523" y="66"/>
      <point x="633" y="-15"/>
      <point x="808" y="-15" type="curve" smooth="yes"/>
      <point x="1082" y="-15"/>
      <point x="1228" y="208"/>
      <point x="1228" y="374" type="curve" smooth="yes"/>
      <point x="1228" y="436"/>
      <point x="1197" y="497"/>
      <point x="1135" y="526" type="curve"/>
      <point x="1135" y="569" type="line"/>
    </contour>
    <contour>
      <point x="903" y="290"/>
      <point x="960" y="230"/>
      <point x="1035" y="209" type="curve"/>
      <point x="997" y="150"/>
      <point x="923" y="100"/>
      <point x="815" y="100" type="curve" smooth="yes"/>
      <point x="731" y="100"/>
      <point x="666" y="139"/>
      <point x="666" y="200" type="curve" smooth="yes"/>
      <point x="666" y="266"/>
      <point x="715" y="301"/>
      <point x="818" y="301" type="curve" smooth="yes"/>
      <point x="845" y="301" type="line"/>
      <point x="831" y="403" type="line"/>
      <point x="811" y="403" type="line" smooth="yes"/>
      <point x="721" y="403"/>
      <point x="680" y="448"/>
      <point x="680" y="503" type="curve" smooth="yes"/>
      <point x="680" y="530"/>
      <point x="694" y="554"/>
      <point x="720" y="569" type="curve"/>
      <point x="1018" y="569" type="line"/>
      <point x="1018" y="535" type="line"/>
      <point x="948" y="517"/>
      <point x="903" y="451"/>
      <point x="903" y="374" type="curve" smooth="yes"/>
    </contour>
    <contour>
      <point x="1019" y="406"/>
      <point x="1035" y="432"/>
      <point x="1063" y="432" type="curve" smooth="yes"/>
      <point x="1098" y="432"/>
      <point x="1112" y="401"/>
      <point x="1112" y="367" type="curve" smooth="yes"/>
      <point x="1112" y="344"/>
      <point x="1105" y="319"/>
      <point x="1095" y="304" type="curve"/>
      <point x="1056" y="306"/>
      <point x="1019" y="333"/>
      <point x="1019" y="374" type="curve" smooth="yes"/>
    </contour>
    <contour>
      <point x="179" y="545"/>
      <point x="169" y="552"/>
      <point x="169" y="566" type="curve" smooth="yes"/>
      <point x="169" y="577"/>
      <point x="176" y="588"/>
      <point x="189" y="588" type="curve" smooth="yes"/>
      <point x="202" y="588"/>
      <point x="211" y="573"/>
      <point x="211" y="556" type="curve"/>
      <point x="207" y="551"/>
      <point x="199" y="545"/>
      <point x="190" y="545" type="curve" smooth="yes"/>
    </contour>
  </outline>
</glyph>
<glyph name="dv_BhNga" format="1">
  <advance width="1116"/>
  <outline>
    <contour>
      <point x="1128" y="569" type="line"/>
      <point x="1112" y="680" type="line"/>
      <point x="437" y="680" type="line"/>
      <point x="455" y="569" type="line"/>
      <point x="771" y="569" type="line"/>
      <point x="771" y="524" type="line"/>
      <point x="667" y="524" type="line" smooth="yes"/>
      <point x="570" y="524"/>
      <point x="496" y="470"/>
      <point x="496" y="369" type="curve" smooth="yes"/>
      <point x="496" y="353"/>
      <point x="498" y="338"/>
      <point x="502" y="325" type="curve"/>
      <point x="346" y="325" type="line"/>
      <point x="346" y="521" type="line" smooth="yes"/>
      <point x="346" y="629"/>
      <point x="286" y="699"/>
      <point x="185" y="699" type="curve" smooth="yes"/>
      <point x="112" y="699"/>
      <point x="45" y="649"/>
      <point x="45" y="572" type="curve" smooth="yes"/>
      <point x="45" y="493"/>
      <point x="101" y="440"/>
      <point x="183" y="440" type="curve" smooth="yes"/>
      <point x="190" y="440"/>
      <point x="200" y="439"/>
      <point x="210" y="441" type="curve"/>
      <point x="210" y="325" type="line"/>
      <point x="167" y="324"/>
      <point x="139" y="304"/>
      <point x="139" y="267" type="curve" smooth="yes"/>
      <point x="139" y="189"/>
      <point x="219" y="141"/>
      <point x="288" y="141" type="curve" smooth="yes"/>
      <point x="318" y="141"/>
      <point x="332" y="184"/>
      <point x="332" y="213" type="curve"/>
      <point x="755" y="213" type="line" smooth="yes"/>
      <point x="799" y="213"/>
      <point x="815" y="190"/>
      <point x="815" y="162" type="curve" smooth="yes"/>
      <point x="815" y="129"/>
      <point x="781" y="100"/>
      <point x="715" y="100" type="curve" smooth="yes"/>
      <point x="648" y="100"/>
      <point x="593" y="110"/>
      <point x="526" y="151" type="curve"/>
      <point x="501" y="37" type="line"/>
      <point x="561" y="4"/>
      <point x="644" y="-15"/>
      <point x="722" y="-15" type="curve" smooth="yes"/>
      <point x="875" y="-15"/>
      <point x="958" y="71"/>
      <point x="958" y="162" type="curve" smooth="yes"/>
      <point x="958" y="281"/>
      <point x="869" y="330"/>
      <point x="748" y="330" type="curve" smooth="yes"/>
      <point x="673" y="330" type="line" smooth="yes"/>
      <point x="646" y="330"/>
      <point x="626" y="349"/>
      <point x="626" y="369" type="curve" smooth="yes"/>
      <point x="626" y="389"/>
      <point x="644" y="406"/>
      <point x="672" y="406" type="curve" smooth="yes"/>
      <point x="898" y="406" type="line"/>
      <point x="898" y="569" type="line"/>
    </contour>
    <contour>
      <point x="960" y="316"/>
      <point x="995" y="281"/>
      <point x="1038" y="281" type="curve" smooth="yes"/>
      <point x="1081" y="281"/>
      <point x="1116" y="316"/>
      <point x="1116" y="359" type="curve" smooth="yes"/>
      <point x="1116" y="402"/>
      <point x="1081" y="437"/>
      <point x="1038" y="437" type="curve" smooth="yes"/>
      <point x="995" y="437"/>
      <point x="960" y="402"/>
      <point x="960" y="359" type="curve" smooth="yes"/>
    </contour>
    <contour>
      <point x="179" y="545"/>
      <point x="169" y="552"/>
      <point x="169" y="566" type="curve" smooth="yes"/>
      <point x="169" y="577"/>
      <point x="176" y="588"/>
      <point x="189" y="588" type="curve" smooth="yes"/>
      <point x="202" y="588"/>
      <point x="211" y="573"/>
      <point x="211" y="556" type="curve"/>
      <point x="207" y="551"/>
      <point x="199" y="545"/>
      <point x="190" y="545" type="curve" smooth="yes"/>
    </contour>
  </outline>
</glyph>
<glyph name="dv_BhNya" format="1">
  <advance width="1273"/>
  <outline>
    <contour>
      <point x="1051" y="0" type="line"/>
      <point x="1193" y="-16" type="line"/>
      <point x="1193" y="569" type="line"/>
      <point x="1304" y="569" type="line"/>
      <point x="1288" y="680" type="line"/>
      <point x="458" y="680" type="line"/>
      <point x="474" y="569" type="line"/>
      <point x="1051" y="569" type="line"/>
      <point x="1051" y="360" type="line"/>
      <point x="944" y="360" type="line"/>
      <point x="920" y="470"/>
      <point x="832" y="530"/>
      <point x="720" y="530" type="curve" smooth="yes"/>
      <point x="680" y="530"/>
      <point x="630" y="525"/>
      <point x="576" y="505" type="curve"/>
      <point x="606" y="395" type="line"/>
      <point x="648" y="407"/>
      <point x="688" y="412"/>
      <point x="717" y="412" type="curve" smooth="yes"/>
      <point x="778" y="412"/>
      <point x="822" y="366"/>
      <point x="822" y="304" type="curve" smooth="yes"/>
      <point x="822" y="239"/>
      <point x="762" y="197"/>
      <point x="701" y="197" type="curve" smooth="yes"/>
      <point x="640" y="197"/>
      <point x="594" y="214"/>
      <point x="549" y="267" type="curve"/>
      <point x="549" y="323" type="line"/>
      <point x="346" y="323" type="line"/>
      <point x="346" y="521" type="line" smooth="yes"/>
      <point x="346" y="629"/>
      <point x="286" y="699"/>
      <point x="185" y="699" type="curve" smooth="yes"/>
      <point x="112" y="699"/>
      <point x="45" y="649"/>
      <point x="45" y="572" type="curve" smooth="yes"/>
      <point x="45" y="493"/>
      <point x="101" y="440"/>
      <point x="183" y="440" type="curve" smooth="yes"/>
      <point x="190" y="440"/>
      <point x="200" y="439"/>
      <point x="210" y="441" type="curve"/>
      <point x="210" y="323" type="line"/>
      <point x="167" y="323"/>
      <point x="139" y="304"/>
      <point x="139" y="265" type="curve" smooth="yes"/>
      <point x="139" y="188"/>
      <point x="219" y="139"/>
      <point x="288" y="139" type="curve" smooth="yes"/>
      <point x="318" y="139"/>
      <point x="332" y="182"/>
      <point x="332" y="213" type="curve"/>
      <point x="414" y="213" type="line"/>
      <point x="515" y="121"/>
      <point x="595" y="83"/>
      <point x="708" y="83" type="curve" smooth="yes"/>
      <point x="820" y="83"/>
      <point x="920" y="138"/>
      <point x="943" y="247" type="curve"/>
      <point x="1051" y="247" type="line"/>
    </contour>
    <contour>
      <point x="179" y="545"/>
      <point x="169" y="552"/>
      <point x="169" y="566" type="curve" smooth="yes"/>
      <point x="169" y="577"/>
      <point x="176" y="588"/>
      <point x="189" y="588" type="curve" smooth="yes"/>
      <point x="202" y="588"/>
      <point x="211" y="573"/>
      <point x="211" y="556" type="curve"/>
      <point x="207" y="551"/>
      <point x="199" y="545"/>
      <point x="190" y="545" type="curve" smooth="yes"/>
    </contour>
  </outline>
</glyph>
<glyph name="dv_BhSha" format="1">
  <advance width="1259"/>
  <outline>
    <contour>
      <point x="874" y="584"/>
      <point x="793" y="699"/>
      <point x="647" y="699" type="curve" smooth="yes"/>
      <point x="561" y="699"/>
      <point x="496" y="645"/>
      <point x="496" y="569" type="curve" smooth="yes"/>
      <point x="496" y="498"/>
      <point x="552" y="457"/>
      <point x="624" y="457" type="curve" smooth="yes"/>
      <point x="666" y="457"/>
      <point x="719" y="476"/>
      <point x="735" y="512" type="curve"/>
      <point x="747" y="502"/>
      <point x="745" y="463"/>
      <point x="745" y="451" type="curve" smooth="yes"/>
      <point x="745" y="403"/>
      <point x="722" y="367"/>
      <point x="675" y="348" type="curve"/>
      <point x="667" y="373"/>
      <point x="645" y="411"/>
      <point x="625" y="411" type="curve" smooth="yes"/>
      <point x="581" y="411"/>
      <point x="534" y="369"/>
      <point x="511" y="323" type="curve"/>
      <point x="346" y="323" type="line"/>
      <point x="346" y="521" type="line" smooth="yes"/>
      <point x="346" y="629"/>
      <point x="286" y="699"/>
      <point x="185" y="699" type="curve" smooth="yes"/>
      <point x="112" y="699"/>
      <point x="45" y="649"/>
      <point x="45" y="572" type="curve" smooth="yes"/>
      <point x="45" y="493"/>
      <point x="101" y="440"/>
      <point x="183" y="440" type="curve" smooth="yes"/>
      <point x="190" y="440"/>
      <point x="200" y="439"/>
      <point x="210" y="441" type="curve"/>
      <point x="210" y="323" type="line"/>
      <point x="167" y="323"/>
      <point x="139" y="304"/>
      <point x="139" y="265" type="curve" smooth="yes"/>
      <point x="139" y="188"/>
      <point x="219" y="139"/>
      <point x="288" y="139" type="curve" smooth="yes"/>
      <point x="318" y="139"/>
      <point x="332" y="182"/>
      <point x="332" y="213" type="curve"/>
      <point x="600" y="213" type="line"/>
      <point x="745" y="-21" type="line"/>
      <point x="876" y="12" type="line"/>
      <point x="717" y="244" type="line"/>
      <point x="807" y="274"/>
      <point x="874" y="365"/>
      <point x="874" y="456" type="curve" smooth="yes"/>
    </contour>
    <contour>
      <point x="1019" y="0" type="line"/>
      <point x="1161" y="-16" type="line"/>
      <point x="1161" y="569" type="line"/>
      <point x="1272" y="569" type="line"/>
      <point x="1255" y="680" type="line"/>
      <point x="911" y="680" type="line"/>
      <point x="927" y="569" type="line"/>
      <point x="1019" y="569" type="line"/>
    </contour>
    <contour>
      <point x="619" y="545"/>
      <point x="608" y="556"/>
      <point x="608" y="566" type="curve" smooth="yes"/>
      <point x="608" y="583"/>
      <point x="624" y="596"/>
      <point x="643" y="596" type="curve" smooth="yes"/>
      <point x="657" y="596"/>
      <point x="678" y="593"/>
      <point x="685" y="579" type="curve"/>
      <point x="685" y="569"/>
      <point x="668" y="545"/>
      <point x="634" y="545" type="curve" smooth="yes"/>
    </contour>
    <contour>
      <point x="179" y="545"/>
      <point x="169" y="552"/>
      <point x="169" y="566" type="curve" smooth="yes"/>
      <point x="169" y="577"/>
      <point x="176" y="588"/>
      <point x="189" y="588" type="curve" smooth="yes"/>
      <point x="202" y="588"/>
      <point x="211" y="573"/>
      <point x="211" y="556" type="curve"/>
      <point x="207" y="551"/>
      <point x="199" y="545"/>
      <point x="190" y="545" type="curve" smooth="yes"/>
    </contour>
  </outline>
</glyph>
<glyph name="dv_BhVa" format="1">
  <advance width="1075"/>
  <outline>
    <contour>
      <point x="834" y="0" type="line"/>
      <point x="976" y="-16" type="line"/>
      <point x="976" y="569" type="line"/>
      <point x="1086" y="569" type="line"/>
      <point x="1070" y="680" type="line"/>
      <point x="437" y="680" type="line"/>
      <point x="454" y="569" type="line"/>
      <point x="834" y="569" type="line"/>
      <point x="834" y="464" type="line"/>
      <point x="807" y="484"/>
      <point x="757" y="498"/>
      <point x="722" y="498" type="curve" smooth="yes"/>
      <point x="599" y="498"/>
      <point x="512" y="425"/>
      <point x="493" y="323" type="curve"/>
      <point x="346" y="323" type="line"/>
      <point x="346" y="521" type="line" smooth="yes"/>
      <point x="346" y="629"/>
      <point x="286" y="699"/>
      <point x="185" y="699" type="curve" smooth="yes"/>
      <point x="112" y="699"/>
      <point x="45" y="649"/>
      <point x="45" y="572" type="curve" smooth="yes"/>
      <point x="45" y="493"/>
      <point x="101" y="440"/>
      <point x="183" y="440" type="curve" smooth="yes"/>
      <point x="190" y="440"/>
      <point x="200" y="439"/>
      <point x="210" y="441" type="curve"/>
      <point x="210" y="323" type="line"/>
      <point x="167" y="323"/>
      <point x="139" y="304"/>
      <point x="139" y="265" type="curve" smooth="yes"/>
      <point x="139" y="188"/>
      <point x="219" y="139"/>
      <point x="288" y="139" type="curve" smooth="yes"/>
      <point x="318" y="139"/>
      <point x="332" y="182"/>
      <point x="332" y="213" type="curve"/>
      <point x="498" y="213" type="line"/>
      <point x="525" y="122"/>
      <point x="607" y="59"/>
      <point x="722" y="59" type="curve" smooth="yes"/>
      <point x="757" y="59"/>
      <point x="807" y="73"/>
      <point x="834" y="93" type="curve"/>
    </contour>
    <contour>
      <point x="668" y="177"/>
      <point x="623" y="218"/>
      <point x="623" y="279" type="curve" smooth="yes"/>
      <point x="623" y="339"/>
      <point x="668" y="381"/>
      <point x="720" y="381" type="curve" smooth="yes"/>
      <point x="792" y="381"/>
      <point x="815" y="349"/>
      <point x="834" y="321" type="curve"/>
      <point x="834" y="237" type="line"/>
      <point x="815" y="208"/>
      <point x="792" y="175"/>
      <point x="720" y="176" type="curve" smooth="yes"/>
    </contour>
    <contour>
      <point x="179" y="545"/>
      <point x="169" y="552"/>
      <point x="169" y="566" type="curve" smooth="yes"/>
      <point x="169" y="577"/>
      <point x="176" y="588"/>
      <point x="189" y="588" type="curve" smooth="yes"/>
      <point x="202" y="588"/>
      <point x="211" y="573"/>
      <point x="211" y="556" type="curve"/>
      <point x="207" y="551"/>
      <point x="199" y="545"/>
      <point x="190" y="545" type="curve" smooth="yes"/>
    </contour>
  </outline>
</glyph>
<glyph name="dv_BhYa" format="1">
  <advance width="1114"/>
  <outline>
    <contour>
      <point x="874" y="0" type="line"/>
      <point x="1015" y="-16" type="line"/>
      <point x="1015" y="569" type="line"/>
      <point x="1127" y="569" type="line"/>
      <point x="1111" y="680" type="line"/>
      <point x="437" y="680" type="line"/>
      <point x="454" y="569" type="line"/>
      <point x="535" y="569" type="line"/>
      <point x="563" y="558"/>
      <point x="584" y="527"/>
      <point x="584" y="493" type="curve" smooth="yes"/>
      <point x="584" y="440"/>
      <point x="555" y="398"/>
      <point x="526" y="388" type="curve"/>
      <point x="499" y="360" type="line"/>
      <point x="499" y="347"/>
      <point x="500" y="335"/>
      <point x="503" y="323" type="curve"/>
      <point x="346" y="323" type="line"/>
      <point x="346" y="521" type="line" smooth="yes"/>
      <point x="346" y="629"/>
      <point x="286" y="699"/>
      <point x="185" y="699" type="curve" smooth="yes"/>
      <point x="112" y="699"/>
      <point x="45" y="649"/>
      <point x="45" y="572" type="curve" smooth="yes"/>
      <point x="45" y="493"/>
      <point x="101" y="440"/>
      <point x="183" y="440" type="curve" smooth="yes"/>
      <point x="190" y="440"/>
      <point x="200" y="439"/>
      <point x="210" y="441" type="curve"/>
      <point x="210" y="323" type="line"/>
      <point x="167" y="323"/>
      <point x="139" y="304"/>
      <point x="139" y="265" type="curve" smooth="yes"/>
      <point x="139" y="188"/>
      <point x="219" y="139"/>
      <point x="288" y="139" type="curve" smooth="yes"/>
      <point x="318" y="139"/>
      <point x="332" y="182"/>
      <point x="332" y="213" type="curve"/>
      <point x="577" y="213" type="line"/>
      <point x="624" y="175"/>
      <point x="685" y="151"/>
      <point x="748" y="151" type="curve" smooth="yes"/>
      <point x="811" y="151"/>
      <point x="845" y="164"/>
      <point x="874" y="178" type="curve"/>
    </contour>
    <contour>
      <point x="683" y="269"/>
      <point x="652" y="307"/>
      <point x="634" y="334" type="curve"/>
      <point x="686" y="372"/>
      <point x="710" y="426"/>
      <point x="710" y="486" type="curve" smooth="yes"/>
      <point x="710" y="515"/>
      <point x="701" y="548"/>
      <point x="692" y="569" type="curve"/>
      <point x="874" y="569" type="line"/>
      <point x="874" y="358" type="line"/>
      <point x="865" y="303"/>
      <point x="811" y="269"/>
      <point x="751" y="269" type="curve" smooth="yes"/>
    </contour>
    <contour>
      <point x="179" y="545"/>
      <point x="169" y="552"/>
      <point x="169" y="566" type="curve" smooth="yes"/>
      <point x="169" y="577"/>
      <point x="176" y="588"/>
      <point x="189" y="588" type="curve" smooth="yes"/>
      <point x="202" y="588"/>
      <point x="211" y="573"/>
      <point x="211" y="556" type="curve"/>
      <point x="207" y="551"/>
      <point x="199" y="545"/>
      <point x="190" y="545" type="curve" smooth="yes"/>
    </contour>
  </outline>
</glyph>
<glyph name="dv_Bh.half" format="1">
  <advance width="450"/>
  <outline>
    <contour>
      <point x="549" y="323" type="line"/>
      <point x="346" y="323" type="line"/>
      <point x="346" y="521" type="line" smooth="yes"/>
      <point x="346" y="629"/>
      <point x="286" y="699"/>
      <point x="185" y="699" type="curve" smooth="yes"/>
      <point x="112" y="699"/>
      <point x="45" y="649"/>
      <point x="45" y="572" type="curve" smooth="yes"/>
      <point x="45" y="493"/>
      <point x="101" y="440"/>
      <point x="183" y="440" type="curve" smooth="yes"/>
      <point x="190" y="440"/>
      <point x="200" y="439"/>
      <point x="210" y="441" type="curve"/>
      <point x="210" y="323" type="line"/>
      <point x="167" y="323"/>
      <point x="139" y="304"/>
      <point x="139" y="265" type="curve" smooth="yes"/>
      <point x="139" y="188"/>
      <point x="219" y="139"/>
      <point x="288" y="139" type="curve" smooth="yes"/>
      <point x="318" y="139"/>
      <point x="332" y="182"/>
      <point x="332" y="213" type="curve"/>
      <point x="549" y="213" type="line"/>
    </contour>
    <contour>
      <point x="179" y="545"/>
      <point x="169" y="552"/>
      <point x="169" y="566" type="curve" smooth="yes"/>
      <point x="169" y="577"/>
      <point x="176" y="588"/>
      <point x="189" y="588" type="curve" smooth="yes"/>
      <point x="202" y="588"/>
      <point x="211" y="573"/>
      <point x="211" y="556" type="curve"/>
      <point x="207" y="551"/>
      <point x="199" y="545"/>
      <point x="190" y="545" type="curve" smooth="yes"/>
    </contour>
  </outline>
</glyph>
<glyph name="dv_CCa" format="1">
  <advance width="1112"/>
  <outline>
    <contour>
      <point x="870" y="0" type="line"/>
      <point x="1011" y="-16" type="line"/>
      <point x="1011" y="569" type="line"/>
      <point x="1122" y="569" type="line"/>
      <point x="1106" y="680" type="line"/>
      <point x="-11" y="680" type="line"/>
      <point x="6" y="569" type="line"/>
      <point x="870" y="569" type="line"/>
      <point x="870" y="255" type="line"/>
      <point x="857" y="213"/>
      <point x="799" y="183"/>
      <point x="748" y="183" type="curve" smooth="yes"/>
      <point x="687" y="183"/>
      <point x="634" y="217"/>
      <point x="634" y="271" type="curve" smooth="yes"/>
      <point x="634" y="324"/>
      <point x="671" y="356"/>
      <point x="750" y="358" type="curve"/>
      <point x="783" y="358" type="line"/>
      <point x="766" y="468" type="line"/>
      <point x="34" y="468" type="line"/>
      <point x="50" y="358" type="line"/>
      <point x="143" y="358" type="line"/>
      <point x="130" y="332"/>
      <point x="122" y="304"/>
      <point x="122" y="271" type="curve" smooth="yes"/>
      <point x="122" y="137"/>
      <point x="239" y="67"/>
      <point x="370" y="67" type="curve" smooth="yes"/>
      <point x="464" y="67"/>
      <point x="524" y="99"/>
      <point x="562" y="133" type="curve"/>
      <point x="607" y="89"/>
      <point x="674" y="67"/>
      <point x="748" y="67" type="curve" smooth="yes"/>
      <point x="785" y="67"/>
      <point x="839" y="77"/>
      <point x="870" y="90" type="curve"/>
    </contour>
    <contour>
      <point x="528" y="358" type="line"/>
      <point x="514" y="332"/>
      <point x="507" y="304"/>
      <point x="507" y="271" type="curve" smooth="yes"/>
      <point x="507" y="260" type="line"/>
      <point x="489" y="222"/>
      <point x="450" y="183"/>
      <point x="369" y="183" type="curve" smooth="yes"/>
      <point x="308" y="183"/>
      <point x="250" y="217"/>
      <point x="250" y="271" type="curve" smooth="yes"/>
      <point x="250" y="324"/>
      <point x="288" y="356"/>
      <point x="367" y="358" type="curve"/>
    </contour>
  </outline>
</glyph>
<glyph name="dv_CChVa" format="1">
  <advance width="1211"/>
  <outline>
    <contour>
      <point x="399" y="358" type="line"/>
      <point x="383" y="468" type="line"/>
      <point x="34" y="468" type="line"/>
      <point x="50" y="358" type="line"/>
      <point x="143" y="358" type="line"/>
      <point x="130" y="332"/>
      <point x="122" y="304"/>
      <point x="122" y="271" type="curve" smooth="yes"/>
      <point x="122" y="137"/>
      <point x="233" y="67"/>
      <point x="363" y="67" type="curve" smooth="yes"/>
      <point x="402" y="67"/>
      <point x="457" y="78"/>
      <point x="487" y="91" type="curve"/>
      <point x="505" y="64"/>
      <point x="530" y="41"/>
      <point x="562" y="24" type="curve"/>
      <point x="533" y="-11"/>
      <point x="517" y="-56"/>
      <point x="517" y="-109" type="curve" smooth="yes"/>
      <point x="518" y="-232"/>
      <point x="610" y="-321"/>
      <point x="750" y="-321" type="curve" smooth="yes"/>
      <point x="785" y="-321"/>
      <point x="836" y="-308"/>
      <point x="862" y="-288" type="curve"/>
      <point x="862" y="-342" type="line"/>
      <point x="1004" y="-358" type="line"/>
      <point x="1004" y="70" type="line"/>
      <point x="1108" y="150"/>
      <point x="1163" y="272"/>
      <point x="1163" y="374" type="curve" smooth="yes"/>
      <point x="1163" y="436"/>
      <point x="1132" y="497"/>
      <point x="1070" y="526" type="curve"/>
      <point x="1070" y="569" type="line"/>
      <point x="1223" y="569" type="line"/>
      <point x="1207" y="680" type="line"/>
      <point x="-11" y="680" type="line"/>
      <point x="6" y="569" type="line"/>
      <point x="482" y="569" type="line"/>
      <point x="475" y="549"/>
      <point x="470" y="527"/>
      <point x="470" y="504" type="curve" smooth="yes"/>
      <point x="470" y="444"/>
      <point x="503" y="371"/>
      <point x="575" y="347" type="curve"/>
      <point x="510" y="333"/>
      <point x="467" y="277"/>
      <point x="459" y="215" type="curve"/>
      <point x="437" y="196"/>
      <point x="402" y="183"/>
      <point x="363" y="183" type="curve" smooth="yes"/>
      <point x="302" y="183"/>
      <point x="250" y="217"/>
      <point x="250" y="271" type="curve" smooth="yes"/>
      <point x="250" y="324"/>
      <point x="288" y="356"/>
      <point x="367" y="358" type="curve"/>
    </contour>
    <contour>
      <point x="839" y="290"/>
      <point x="896" y="230"/>
      <point x="971" y="209" type="curve"/>
      <point x="932" y="150"/>
      <point x="857" y="100"/>
      <point x="751" y="100" type="curve" smooth="yes"/>
      <point x="667" y="100"/>
      <point x="601" y="139"/>
      <point x="601" y="200" type="curve" smooth="yes"/>
      <point x="601" y="266"/>
      <point x="650" y="301"/>
      <point x="753" y="301" type="curve" smooth="yes"/>
      <point x="780" y="301" type="line"/>
      <point x="766" y="403" type="line"/>
      <point x="747" y="403" type="line" smooth="yes"/>
      <point x="657" y="403"/>
      <point x="615" y="448"/>
      <point x="615" y="503" type="curve" smooth="yes"/>
      <point x="615" y="530"/>
      <point x="629" y="554"/>
      <point x="656" y="569" type="curve"/>
      <point x="953" y="569" type="line"/>
      <point x="953" y="535" type="line"/>
      <point x="883" y="517"/>
      <point x="839" y="451"/>
      <point x="839" y="374" type="curve" smooth="yes"/>
    </contour>
    <contour>
      <point x="786" y="-15"/>
      <point x="825" y="-10"/>
      <point x="862" y="0" type="curve"/>
      <point x="862" y="-145" type="line"/>
      <point x="844" y="-173"/>
      <point x="820" y="-206"/>
      <point x="749" y="-205" type="curve" smooth="yes"/>
      <point x="696" y="-204"/>
      <point x="651" y="-169"/>
      <point x="651" y="-108" type="curve" smooth="yes"/>
      <point x="651" y="-58"/>
      <point x="681" y="-25"/>
      <point x="721" y="-14" type="curve"/>
      <point x="728" y="-15"/>
      <point x="735" y="-15"/>
      <point x="743" y="-15" type="curve" smooth="yes"/>
    </contour>
    <contour>
      <point x="954" y="406"/>
      <point x="971" y="432"/>
      <point x="998" y="432" type="curve" smooth="yes"/>
      <point x="1034" y="432"/>
      <point x="1046" y="401"/>
      <point x="1046" y="367" type="curve" smooth="yes"/>
      <point x="1046" y="344"/>
      <point x="1040" y="319"/>
      <point x="1030" y="304" type="curve"/>
      <point x="991" y="306"/>
      <point x="954" y="333"/>
      <point x="954" y="374" type="curve" smooth="yes"/>
    </contour>
  </outline>
</glyph>
<glyph name="dv_CCha" format="1">
  <advance width="1211"/>
  <outline>
    <contour>
      <point x="399" y="358" type="line"/>
      <point x="383" y="468" type="line"/>
      <point x="34" y="468" type="line"/>
      <point x="50" y="358" type="line"/>
      <point x="143" y="358" type="line"/>
      <point x="130" y="332"/>
      <point x="122" y="304"/>
      <point x="122" y="271" type="curve" smooth="yes"/>
      <point x="122" y="137"/>
      <point x="233" y="67"/>
      <point x="363" y="67" type="curve" smooth="yes"/>
      <point x="402" y="67"/>
      <point x="457" y="78"/>
      <point x="487" y="91" type="curve"/>
      <point x="531" y="24"/>
      <point x="621" y="-15"/>
      <point x="743" y="-15" type="curve" smooth="yes"/>
      <point x="1018" y="-15"/>
      <point x="1163" y="208"/>
      <point x="1163" y="374" type="curve" smooth="yes"/>
      <point x="1163" y="436"/>
      <point x="1132" y="497"/>
      <point x="1070" y="526" type="curve"/>
      <point x="1070" y="569" type="line"/>
      <point x="1223" y="569" type="line"/>
      <point x="1207" y="680" type="line"/>
      <point x="-11" y="680" type="line"/>
      <point x="6" y="569" type="line"/>
      <point x="482" y="569" type="line"/>
      <point x="475" y="549"/>
      <point x="470" y="527"/>
      <point x="470" y="504" type="curve" smooth="yes"/>
      <point x="470" y="444"/>
      <point x="503" y="371"/>
      <point x="575" y="347" type="curve"/>
      <point x="510" y="333"/>
      <point x="467" y="277"/>
      <point x="459" y="215" type="curve"/>
      <point x="437" y="196"/>
      <point x="402" y="183"/>
      <point x="363" y="183" type="curve" smooth="yes"/>
      <point x="302" y="183"/>
      <point x="250" y="217"/>
      <point x="250" y="271" type="curve" smooth="yes"/>
      <point x="250" y="324"/>
      <point x="288" y="356"/>
      <point x="367" y="358" type="curve"/>
    </contour>
    <contour>
      <point x="839" y="290"/>
      <point x="896" y="230"/>
      <point x="971" y="209" type="curve"/>
      <point x="932" y="150"/>
      <point x="857" y="100"/>
      <point x="751" y="100" type="curve" smooth="yes"/>
      <point x="667" y="100"/>
      <point x="601" y="139"/>
      <point x="601" y="200" type="curve" smooth="yes"/>
      <point x="601" y="266"/>
      <point x="650" y="301"/>
      <point x="753" y="301" type="curve" smooth="yes"/>
      <point x="780" y="301" type="line"/>
      <point x="766" y="403" type="line"/>
      <point x="747" y="403" type="line" smooth="yes"/>
      <point x="657" y="403"/>
      <point x="615" y="448"/>
      <point x="615" y="503" type="curve" smooth="yes"/>
      <point x="615" y="530"/>
      <point x="629" y="554"/>
      <point x="656" y="569" type="curve"/>
      <point x="953" y="569" type="line"/>
      <point x="953" y="535" type="line"/>
      <point x="883" y="517"/>
      <point x="839" y="451"/>
      <point x="839" y="374" type="curve" smooth="yes"/>
    </contour>
    <contour>
      <point x="954" y="406"/>
      <point x="971" y="432"/>
      <point x="998" y="432" type="curve" smooth="yes"/>
      <point x="1034" y="432"/>
      <point x="1046" y="401"/>
      <point x="1046" y="367" type="curve" smooth="yes"/>
      <point x="1046" y="344"/>
      <point x="1040" y="319"/>
      <point x="1030" y="304" type="curve"/>
      <point x="991" y="306"/>
      <point x="954" y="333"/>
      <point x="954" y="374" type="curve" smooth="yes"/>
    </contour>
  </outline>
</glyph>
<glyph name="dv_CDda" format="1">
  <advance width="925"/>
  <outline>
    <contour>
      <point x="399" y="387" type="line"/>
      <point x="383" y="497" type="line"/>
      <point x="34" y="497" type="line"/>
      <point x="50" y="387" type="line"/>
      <point x="143" y="387" type="line"/>
      <point x="130" y="360"/>
      <point x="122" y="344"/>
      <point x="122" y="310" type="curve" smooth="yes"/>
      <point x="122" y="197"/>
      <point x="205" y="119"/>
      <point x="335" y="119" type="curve" smooth="yes"/>
      <point x="444" y="119"/>
      <point x="524" y="173"/>
      <point x="567" y="216" type="curve"/>
      <point x="579" y="214"/>
      <point x="591" y="213"/>
      <point x="604" y="213" type="curve" smooth="yes"/>
      <point x="691" y="213" type="line" smooth="yes"/>
      <point x="734" y="213"/>
      <point x="750" y="190"/>
      <point x="750" y="162" type="curve" smooth="yes"/>
      <point x="750" y="129"/>
      <point x="716" y="100"/>
      <point x="650" y="100" type="curve" smooth="yes"/>
      <point x="583" y="100"/>
      <point x="530" y="106"/>
      <point x="472" y="140" type="curve"/>
      <point x="448" y="24" type="line"/>
      <point x="507" y="-8"/>
      <point x="579" y="-15"/>
      <point x="657" y="-15" type="curve" smooth="yes"/>
      <point x="811" y="-15"/>
      <point x="893" y="71"/>
      <point x="893" y="162" type="curve" smooth="yes"/>
      <point x="893" y="281"/>
      <point x="804" y="330"/>
      <point x="683" y="330" type="curve" smooth="yes"/>
      <point x="609" y="330" type="line" smooth="yes"/>
      <point x="582" y="330"/>
      <point x="561" y="349"/>
      <point x="561" y="369" type="curve" smooth="yes"/>
      <point x="561" y="389"/>
      <point x="579" y="406"/>
      <point x="608" y="406" type="curve" smooth="yes"/>
      <point x="833" y="406" type="line"/>
      <point x="833" y="569" type="line"/>
      <point x="936" y="569" type="line"/>
      <point x="918" y="680" type="line"/>
      <point x="-11" y="680" type="line"/>
      <point x="6" y="569" type="line"/>
      <point x="707" y="569" type="line"/>
      <point x="707" y="524" type="line"/>
      <point x="601" y="524" type="line" smooth="yes"/>
      <point x="505" y="524"/>
      <point x="430" y="470"/>
      <point x="430" y="369" type="curve" smooth="yes"/>
      <point x="430" y="334"/>
      <point x="441" y="304"/>
      <point x="459" y="280" type="curve"/>
      <point x="432" y="254"/>
      <point x="392" y="234"/>
      <point x="335" y="234" type="curve" smooth="yes"/>
      <point x="286" y="234"/>
      <point x="250" y="265"/>
      <point x="250" y="310" type="curve" smooth="yes"/>
      <point x="250" y="358"/>
      <point x="288" y="386"/>
      <point x="367" y="387" type="curve" smooth="yes"/>
    </contour>
  </outline>
</glyph>
<glyph name="dv_CNa" format="1">
  <advance width="726"/>
  <outline>
    <contour>
      <point x="486" y="0" type="line"/>
      <point x="626" y="-16" type="line"/>
      <point x="626" y="569" type="line"/>
      <point x="737" y="569" type="line"/>
      <point x="720" y="680" type="line"/>
      <point x="-11" y="680" type="line"/>
      <point x="6" y="569" type="line"/>
      <point x="486" y="569" type="line"/>
      <point x="486" y="295" type="line" smooth="yes"/>
      <point x="486" y="254"/>
      <point x="396" y="223"/>
      <point x="363" y="223" type="curve" smooth="yes"/>
      <point x="311" y="223"/>
      <point x="250" y="251"/>
      <point x="250" y="311" type="curve" smooth="yes"/>
      <point x="250" y="395"/>
      <point x="337" y="398"/>
      <point x="399" y="398" type="curve"/>
      <point x="383" y="508" type="line"/>
      <point x="34" y="508" type="line"/>
      <point x="50" y="398" type="line"/>
      <point x="143" y="398" type="line"/>
      <point x="129" y="371"/>
      <point x="122" y="341"/>
      <point x="122" y="311" type="curve" smooth="yes"/>
      <point x="122" y="213"/>
      <point x="182" y="144"/>
      <point x="275" y="118" type="curve"/>
      <point x="231" y="90"/>
      <point x="93" y="30"/>
      <point x="93" y="-40" type="curve" smooth="yes"/>
      <point x="93" y="-101"/>
      <point x="173" y="-132"/>
      <point x="224" y="-132" type="curve" smooth="yes"/>
      <point x="252" y="-132"/>
      <point x="302" y="-126"/>
      <point x="302" y="-89" type="curve" smooth="yes"/>
      <point x="302" y="-65"/>
      <point x="289" y="-39"/>
      <point x="280" y="-17" type="curve"/>
      <point x="486" y="120" type="line"/>
    </contour>
  </outline>
</glyph>
<glyph name="dv_CTha" format="1">
  <advance width="1100"/>
  <outline>
    <contour>
      <point x="399" y="358" type="line"/>
      <point x="383" y="468" type="line"/>
      <point x="34" y="468" type="line"/>
      <point x="50" y="358" type="line"/>
      <point x="143" y="358" type="line"/>
      <point x="130" y="332"/>
      <point x="122" y="304"/>
      <point x="122" y="271" type="curve" smooth="yes"/>
      <point x="122" y="137"/>
      <point x="239" y="67"/>
      <point x="370" y="67" type="curve" smooth="yes"/>
      <point x="502" y="67"/>
      <point x="596" y="131"/>
      <point x="628" y="173" type="curve"/>
      <point x="661" y="159"/>
      <point x="696" y="151"/>
      <point x="733" y="151" type="curve" smooth="yes"/>
      <point x="797" y="151"/>
      <point x="829" y="164"/>
      <point x="860" y="179" type="curve"/>
      <point x="860" y="0" type="line"/>
      <point x="1001" y="-16" type="line"/>
      <point x="1001" y="569" type="line"/>
      <point x="1112" y="569" type="line"/>
      <point x="1095" y="680" type="line"/>
      <point x="750" y="680" type="line"/>
      <point x="767" y="569" type="line"/>
      <point x="860" y="569" type="line"/>
      <point x="860" y="358" type="line"/>
      <point x="850" y="303"/>
      <point x="796" y="269"/>
      <point x="736" y="269" type="curve" smooth="yes"/>
      <point x="674" y="269"/>
      <point x="642" y="300"/>
      <point x="624" y="326" type="curve"/>
      <point x="680" y="360"/>
      <point x="737" y="408"/>
      <point x="737" y="520" type="curve" smooth="yes"/>
      <point x="737" y="622"/>
      <point x="666" y="699"/>
      <point x="571" y="699" type="curve" smooth="yes"/>
      <point x="542" y="699"/>
      <point x="515" y="692"/>
      <point x="493" y="680" type="curve"/>
      <point x="-11" y="680" type="line"/>
      <point x="6" y="569" type="line"/>
      <point x="430" y="569" type="line"/>
      <point x="432" y="505"/>
      <point x="486" y="468"/>
      <point x="545" y="468" type="curve" smooth="yes"/>
      <point x="583" y="468"/>
      <point x="617" y="486"/>
      <point x="622" y="507" type="curve"/>
      <point x="622" y="429"/>
      <point x="545" y="407"/>
      <point x="513" y="395" type="curve"/>
      <point x="485" y="360" type="line"/>
      <point x="485" y="320"/>
      <point x="500" y="283"/>
      <point x="525" y="250" type="curve"/>
      <point x="499" y="215"/>
      <point x="450" y="183"/>
      <point x="369" y="183" type="curve" smooth="yes"/>
      <point x="308" y="183"/>
      <point x="250" y="217"/>
      <point x="250" y="271" type="curve" smooth="yes"/>
      <point x="250" y="324"/>
      <point x="288" y="356"/>
      <point x="367" y="358" type="curve"/>
    </contour>
    <contour>
      <point x="538" y="555"/>
      <point x="527" y="566"/>
      <point x="527" y="579" type="curve" smooth="yes"/>
      <point x="527" y="596"/>
      <point x="540" y="608"/>
      <point x="557" y="608" type="curve" smooth="yes"/>
      <point x="568" y="608"/>
      <point x="579" y="595"/>
      <point x="580" y="588" type="curve"/>
      <point x="580" y="568"/>
      <point x="568" y="555"/>
      <point x="549" y="555" type="curve" smooth="yes"/>
    </contour>
  </outline>
</glyph>
<glyph name="dv_ChRYa" format="1">
  <advance width="1430"/>
  <outline>
    <contour>
      <point x="249" y="-177" type="line"/>
      <point x="360" y="-78" type="line"/>
      <point x="473" y="-177" type="line"/>
      <point x="556" y="-122" type="line"/>
      <point x="432" y="-9" type="line"/>
      <point x="660" y="26"/>
      <point x="780" y="223"/>
      <point x="780" y="374" type="curve" smooth="yes"/>
      <point x="780" y="387"/>
      <point x="778" y="401"/>
      <point x="774" y="416" type="curve"/>
      <point x="829" y="416" type="line" smooth="yes"/>
      <point x="858" y="416"/>
      <point x="900" y="412"/>
      <point x="900" y="391" type="curve" smooth="yes"/>
      <point x="900" y="367"/>
      <point x="871" y="370"/>
      <point x="840" y="360" type="curve"/>
      <point x="815" y="331" type="line"/>
      <point x="815" y="221"/>
      <point x="937" y="122"/>
      <point x="1062" y="122" type="curve" smooth="yes"/>
      <point x="1126" y="122"/>
      <point x="1160" y="135"/>
      <point x="1190" y="150" type="curve"/>
      <point x="1190" y="0" type="line"/>
      <point x="1331" y="-16" type="line"/>
      <point x="1331" y="569" type="line"/>
      <point x="1442" y="569" type="line"/>
      <point x="1424" y="680" type="line"/>
      <point x="-11" y="680" type="line"/>
      <point x="6" y="569" type="line"/>
      <point x="98" y="569" type="line"/>
      <point x="90" y="549"/>
      <point x="87" y="527"/>
      <point x="87" y="504" type="curve" smooth="yes"/>
      <point x="87" y="444"/>
      <point x="120" y="371"/>
      <point x="190" y="347" type="curve"/>
      <point x="119" y="332"/>
      <point x="73" y="264"/>
      <point x="73" y="195" type="curve" smooth="yes"/>
      <point x="73" y="85"/>
      <point x="152" y="10"/>
      <point x="283" y="-9" type="curve"/>
      <point x="160" y="-122" type="line"/>
    </contour>
    <contour>
      <point x="511" y="535"/>
      <point x="453" y="451"/>
      <point x="453" y="374" type="curve" smooth="yes"/>
      <point x="453" y="290"/>
      <point x="511" y="230"/>
      <point x="586" y="209" type="curve"/>
      <point x="548" y="150"/>
      <point x="472" y="100"/>
      <point x="367" y="100" type="curve" smooth="yes"/>
      <point x="281" y="100"/>
      <point x="216" y="139"/>
      <point x="216" y="200" type="curve" smooth="yes"/>
      <point x="216" y="266"/>
      <point x="265" y="301"/>
      <point x="369" y="301" type="curve" smooth="yes"/>
      <point x="395" y="301" type="line"/>
      <point x="381" y="403" type="line"/>
      <point x="361" y="403" type="line" smooth="yes"/>
      <point x="272" y="403"/>
      <point x="230" y="448"/>
      <point x="230" y="503" type="curve" smooth="yes"/>
      <point x="230" y="530"/>
      <point x="245" y="554"/>
      <point x="271" y="569" type="curve"/>
      <point x="1190" y="569" type="line"/>
      <point x="1190" y="330" type="line"/>
      <point x="1180" y="274"/>
      <point x="1126" y="240"/>
      <point x="1067" y="240" type="curve" smooth="yes"/>
      <point x="998" y="240"/>
      <point x="967" y="278"/>
      <point x="948" y="305" type="curve"/>
      <point x="990" y="332"/>
      <point x="1025" y="356"/>
      <point x="1025" y="416" type="curve" smooth="yes"/>
      <point x="1025" y="466"/>
      <point x="979" y="520"/>
      <point x="882" y="520" type="curve" smooth="yes"/>
      <point x="687" y="520" type="line"/>
      <point x="666" y="529"/>
      <point x="639" y="535"/>
      <point x="608" y="535" type="curve" smooth="yes"/>
    </contour>
    <contour>
      <point x="569" y="406"/>
      <point x="586" y="432"/>
      <point x="613" y="432" type="curve" smooth="yes"/>
      <point x="650" y="432"/>
      <point x="663" y="401"/>
      <point x="663" y="367" type="curve" smooth="yes"/>
      <point x="663" y="344"/>
      <point x="656" y="319"/>
      <point x="645" y="304" type="curve"/>
      <point x="606" y="306"/>
      <point x="569" y="333"/>
      <point x="569" y="374" type="curve" smooth="yes"/>
    </contour>
  </outline>
</glyph>
<glyph name="dv_ChRa" format="1">
  <advance width="827"/>
  <outline>
    <contour>
      <point x="244" y="-177" type="line"/>
      <point x="357" y="-78" type="line"/>
      <point x="469" y="-177" type="line"/>
      <point x="551" y="-122" type="line"/>
      <point x="428" y="-10" type="line"/>
      <point x="658" y="24"/>
      <point x="780" y="222"/>
      <point x="780" y="374" type="curve" smooth="yes"/>
      <point x="780" y="436"/>
      <point x="748" y="497"/>
      <point x="685" y="526" type="curve"/>
      <point x="685" y="569" type="line"/>
      <point x="839" y="569" type="line"/>
      <point x="822" y="680" type="line"/>
      <point x="-11" y="680" type="line"/>
      <point x="6" y="569" type="line"/>
      <point x="98" y="569" type="line"/>
      <point x="90" y="549"/>
      <point x="87" y="527"/>
      <point x="87" y="504" type="curve" smooth="yes"/>
      <point x="87" y="444"/>
      <point x="120" y="371"/>
      <point x="190" y="347" type="curve"/>
      <point x="119" y="332"/>
      <point x="73" y="264"/>
      <point x="73" y="195" type="curve" smooth="yes"/>
      <point x="73" y="86"/>
      <point x="151" y="12"/>
      <point x="280" y="-8" type="curve"/>
      <point x="155" y="-122" type="line"/>
    </contour>
    <contour>
      <point x="453" y="290"/>
      <point x="511" y="230"/>
      <point x="586" y="209" type="curve"/>
      <point x="548" y="150"/>
      <point x="472" y="100"/>
      <point x="367" y="100" type="curve" smooth="yes"/>
      <point x="281" y="100"/>
      <point x="216" y="139"/>
      <point x="216" y="200" type="curve" smooth="yes"/>
      <point x="216" y="266"/>
      <point x="265" y="301"/>
      <point x="369" y="301" type="curve" smooth="yes"/>
      <point x="395" y="301" type="line"/>
      <point x="381" y="403" type="line"/>
      <point x="361" y="403" type="line" smooth="yes"/>
      <point x="272" y="403"/>
      <point x="230" y="448"/>
      <point x="230" y="503" type="curve" smooth="yes"/>
      <point x="230" y="530"/>
      <point x="245" y="554"/>
      <point x="271" y="569" type="curve"/>
      <point x="568" y="569" type="line"/>
      <point x="568" y="535" type="line"/>
      <point x="498" y="517"/>
      <point x="453" y="451"/>
      <point x="453" y="374" type="curve" smooth="yes"/>
    </contour>
    <contour>
      <point x="569" y="406"/>
      <point x="586" y="432"/>
      <point x="613" y="432" type="curve" smooth="yes"/>
      <point x="650" y="432"/>
      <point x="663" y="401"/>
      <point x="663" y="367" type="curve" smooth="yes"/>
      <point x="663" y="344"/>
      <point x="656" y="319"/>
      <point x="645" y="304" type="curve"/>
      <point x="606" y="306"/>
      <point x="569" y="333"/>
      <point x="569" y="374" type="curve" smooth="yes"/>
    </contour>
  </outline>
</glyph>
<glyph name="dv_ChYa" format="1">
  <advance width="1430"/>
  <outline>
    <contour>
      <point x="-11" y="680" type="line"/>
      <point x="6" y="569" type="line"/>
      <point x="98" y="569" type="line"/>
      <point x="90" y="549"/>
      <point x="87" y="527"/>
      <point x="87" y="504" type="curve" smooth="yes"/>
      <point x="87" y="444"/>
      <point x="120" y="371"/>
      <point x="190" y="347" type="curve"/>
      <point x="119" y="332"/>
      <point x="73" y="264"/>
      <point x="73" y="195" type="curve" smooth="yes"/>
      <point x="73" y="66"/>
      <point x="183" y="-15"/>
      <point x="359" y="-15" type="curve" smooth="yes"/>
      <point x="634" y="-15"/>
      <point x="780" y="208"/>
      <point x="780" y="374" type="curve" smooth="yes"/>
      <point x="780" y="387"/>
      <point x="778" y="401"/>
      <point x="774" y="416" type="curve"/>
      <point x="829" y="416" type="line" smooth="yes"/>
      <point x="858" y="416"/>
      <point x="900" y="412"/>
      <point x="900" y="391" type="curve" smooth="yes"/>
      <point x="900" y="367"/>
      <point x="871" y="370"/>
      <point x="840" y="360" type="curve"/>
      <point x="815" y="331" type="line"/>
      <point x="815" y="221"/>
      <point x="937" y="122"/>
      <point x="1062" y="122" type="curve" smooth="yes"/>
      <point x="1126" y="122"/>
      <point x="1160" y="135"/>
      <point x="1190" y="150" type="curve"/>
      <point x="1190" y="0" type="line"/>
      <point x="1331" y="-16" type="line"/>
      <point x="1331" y="569" type="line"/>
      <point x="1442" y="569" type="line"/>
      <point x="1424" y="680" type="line"/>
    </contour>
    <contour>
      <point x="1190" y="569" type="line"/>
      <point x="1190" y="330" type="line"/>
      <point x="1180" y="274"/>
      <point x="1126" y="240"/>
      <point x="1067" y="240" type="curve" smooth="yes"/>
      <point x="998" y="240"/>
      <point x="967" y="278"/>
      <point x="948" y="305" type="curve"/>
      <point x="990" y="332"/>
      <point x="1025" y="356"/>
      <point x="1025" y="416" type="curve" smooth="yes"/>
      <point x="1025" y="466"/>
      <point x="979" y="520"/>
      <point x="882" y="520" type="curve" smooth="yes"/>
      <point x="687" y="520" type="line"/>
      <point x="666" y="529"/>
      <point x="639" y="535"/>
      <point x="608" y="535" type="curve" smooth="yes"/>
      <point x="511" y="535"/>
      <point x="453" y="451"/>
      <point x="453" y="374" type="curve" smooth="yes"/>
      <point x="453" y="290"/>
      <point x="511" y="230"/>
      <point x="586" y="209" type="curve"/>
      <point x="548" y="150"/>
      <point x="472" y="100"/>
      <point x="367" y="100" type="curve" smooth="yes"/>
      <point x="281" y="100"/>
      <point x="216" y="139"/>
      <point x="216" y="200" type="curve" smooth="yes"/>
      <point x="216" y="266"/>
      <point x="265" y="301"/>
      <point x="369" y="301" type="curve" smooth="yes"/>
      <point x="395" y="301" type="line"/>
      <point x="381" y="403" type="line"/>
      <point x="361" y="403" type="line" smooth="yes"/>
      <point x="272" y="403"/>
      <point x="230" y="448"/>
      <point x="230" y="503" type="curve" smooth="yes"/>
      <point x="230" y="530"/>
      <point x="245" y="554"/>
      <point x="271" y="569" type="curve"/>
    </contour>
    <contour>
      <point x="569" y="406"/>
      <point x="586" y="432"/>
      <point x="613" y="432" type="curve" smooth="yes"/>
      <point x="650" y="432"/>
      <point x="663" y="401"/>
      <point x="663" y="367" type="curve" smooth="yes"/>
      <point x="663" y="344"/>
      <point x="656" y="319"/>
      <point x="645" y="304" type="curve"/>
      <point x="606" y="306"/>
      <point x="569" y="333"/>
      <point x="569" y="374" type="curve" smooth="yes"/>
    </contour>
  </outline>
</glyph>
<glyph name="dv_DDYa" format="1">
  <advance width="1170"/>
  <outline>
    <contour>
      <point x="71" y="38"/>
      <point x="179" y="-18"/>
      <point x="307" y="-18" type="curve" smooth="yes"/>
      <point x="332" y="-18"/>
      <point x="359" y="-16"/>
      <point x="385" y="-13" type="curve"/>
      <point x="451" y="-134" type="line"/>
      <point x="563" y="-91" type="line"/>
      <point x="543" y="-56"/>
      <point x="516" y="-14"/>
      <point x="496" y="23" type="curve"/>
      <point x="514" y="42"/>
      <point x="526" y="72"/>
      <point x="526" y="94" type="curve" smooth="yes"/>
      <point x="526" y="148"/>
      <point x="465" y="183"/>
      <point x="414" y="183" type="curve" smooth="yes"/>
      <point x="370" y="183"/>
      <point x="339" y="153"/>
      <point x="339" y="109" type="curve" smooth="yes"/>
      <point x="339" y="103" type="line"/>
      <point x="327" y="102"/>
      <point x="317" y="102"/>
      <point x="307" y="102" type="curve" smooth="yes"/>
      <point x="252" y="102"/>
      <point x="211" y="127"/>
      <point x="211" y="169" type="curve" smooth="yes"/>
      <point x="211" y="223"/>
      <point x="253" y="246"/>
      <point x="326" y="246" type="curve" smooth="yes"/>
      <point x="447" y="246" type="line"/>
      <point x="432" y="349" type="line"/>
      <point x="252" y="349" type="line" smooth="yes"/>
      <point x="232" y="349"/>
      <point x="213" y="367"/>
      <point x="213" y="388" type="curve" smooth="yes"/>
      <point x="213" y="409"/>
      <point x="232" y="425"/>
      <point x="252" y="425" type="curve" smooth="yes"/>
      <point x="568" y="425" type="line" smooth="yes"/>
      <point x="598" y="425"/>
      <point x="640" y="421"/>
      <point x="640" y="401" type="curve" smooth="yes"/>
      <point x="640" y="376"/>
      <point x="610" y="379"/>
      <point x="580" y="370" type="curve"/>
      <point x="554" y="340" type="line"/>
      <point x="554" y="230"/>
      <point x="677" y="133"/>
      <point x="802" y="133" type="curve" smooth="yes"/>
      <point x="865" y="133"/>
      <point x="899" y="145"/>
      <point x="930" y="159" type="curve"/>
      <point x="930" y="0" type="line"/>
      <point x="1071" y="-16" type="line"/>
      <point x="1071" y="569" type="line"/>
      <point x="1182" y="569" type="line"/>
      <point x="1165" y="680" type="line"/>
      <point x="-11" y="680" type="line"/>
      <point x="6" y="569" type="line"/>
      <point x="321" y="569" type="line"/>
      <point x="321" y="535" type="line"/>
      <point x="239" y="535" type="line" smooth="yes"/>
      <point x="141" y="535"/>
      <point x="77" y="476"/>
      <point x="76" y="391" type="curve" smooth="yes"/>
      <point x="76" y="345"/>
      <point x="95" y="308"/>
      <point x="126" y="282" type="curve"/>
      <point x="85" y="246"/>
      <point x="71" y="202"/>
      <point x="71" y="169" type="curve" smooth="yes"/>
    </contour>
    <contour>
      <point x="463" y="569" type="line"/>
      <point x="930" y="569" type="line"/>
      <point x="930" y="339" type="line"/>
      <point x="920" y="284"/>
      <point x="865" y="250"/>
      <point x="806" y="250" type="curve" smooth="yes"/>
      <point x="738" y="250"/>
      <point x="707" y="288"/>
      <point x="688" y="316" type="curve"/>
      <point x="731" y="341"/>
      <point x="766" y="365"/>
      <point x="766" y="426" type="curve" smooth="yes"/>
      <point x="766" y="476"/>
      <point x="719" y="530"/>
      <point x="623" y="530" type="curve" smooth="yes"/>
      <point x="463" y="530" type="line"/>
    </contour>
  </outline>
</glyph>
<glyph name="dv_DRYa" format="1">
  <advance width="831"/>
  <outline>
    <contour>
      <point x="314" y="-130" type="line"/>
      <point x="590" y="122" type="line"/>
      <point x="590" y="0" type="line"/>
      <point x="731" y="-16" type="line"/>
      <point x="731" y="569" type="line"/>
      <point x="842" y="569" type="line"/>
      <point x="826" y="680" type="line"/>
      <point x="-11" y="680" type="line"/>
      <point x="6" y="569" type="line"/>
      <point x="321" y="569" type="line"/>
      <point x="321" y="535" type="line"/>
      <point x="239" y="535" type="line" smooth="yes"/>
      <point x="141" y="535"/>
      <point x="77" y="476"/>
      <point x="76" y="391" type="curve" smooth="yes"/>
      <point x="76" y="346"/>
      <point x="94" y="308"/>
      <point x="125" y="282" type="curve"/>
      <point x="85" y="246"/>
      <point x="71" y="202"/>
      <point x="71" y="169" type="curve" smooth="yes"/>
      <point x="71" y="61"/>
      <point x="145" y="1"/>
      <point x="264" y="-14" type="curve"/>
      <point x="223" y="-49" type="line"/>
    </contour>
    <contour>
      <point x="247" y="91"/>
      <point x="211" y="129"/>
      <point x="211" y="178" type="curve" smooth="yes"/>
      <point x="211" y="224"/>
      <point x="253" y="246"/>
      <point x="326" y="246" type="curve" smooth="yes"/>
      <point x="447" y="246" type="line"/>
      <point x="432" y="349" type="line"/>
      <point x="252" y="349" type="line" smooth="yes"/>
      <point x="232" y="349"/>
      <point x="213" y="367"/>
      <point x="213" y="388" type="curve" smooth="yes"/>
      <point x="213" y="409"/>
      <point x="232" y="425"/>
      <point x="252" y="425" type="curve" smooth="yes"/>
      <point x="463" y="425" type="line"/>
      <point x="463" y="569" type="line"/>
      <point x="590" y="569" type="line"/>
      <point x="590" y="258" type="line"/>
      <point x="400" y="99" type="line"/>
      <point x="377" y="94"/>
      <point x="355" y="91"/>
      <point x="335" y="91" type="curve" smooth="yes"/>
    </contour>
  </outline>
</glyph>
